<svg xmlns="http://www.w3.org/2000/svg" xmlns:xlink="http://www.w3.org/1999/xlink" viewBox="0 0 460.18 307.11"><defs><style>.cls-1{fill:url(#linear-gradient);}.cls-2,.cls-4{fill:#fff;}.cls-2,.cls-3,.cls-31,.cls-5,.cls-6,.cls-7,.cls-8{opacity:0.35;}.cls-3{fill:#d1d3d4;}.cls-5{fill:url(#linear-gradient-2);}.cls-6{fill:url(#linear-gradient-3);}.cls-7{fill:url(#linear-gradient-4);}.cls-8{fill:url(#linear-gradient-5);}.cls-9{fill:#111434;}.cls-10{fill:none;stroke:#111434;stroke-miterlimit:10;stroke-width:0.5px;}.cls-11{fill:#f5cd89;}.cls-12{fill:#bb8d6a;}.cls-13{fill:#c5a076;}.cls-14{fill:#695553;}.cls-15{fill:#e74547;}.cls-16{fill:#1c4271;}.cls-17{fill:#414142;}.cls-18{fill:#595a5c;}.cls-19{fill:#808184;}.cls-20{fill:#6e6f71;}.cls-21{fill:#1795c4;}.cls-22{fill:#030303;}.cls-23{fill:#121434;}.cls-24{fill:#204184;}.cls-25{fill:#8f6aae;}.cls-26{fill:#72459b;}.cls-27{fill:#cab6d8;}.cls-28{fill:#e3a038;}.cls-29{fill:#242361;}.cls-30{fill:#101235;}.cls-31{fill:url(#linear-gradient-6);}</style><linearGradient id="linear-gradient" x1="1.42" y1="962.36" x2="460.18" y2="962.36" gradientTransform="translate(0 -809.77)" gradientUnits="userSpaceOnUse"><stop offset="0" stop-color="#2bb673"/><stop offset="1" stop-color="#00a79d"/></linearGradient><linearGradient id="linear-gradient-2" x1="291.05" y1="142.25" x2="341.09" y2="142.25" gradientTransform="translate(0)" gradientUnits="userSpaceOnUse"><stop offset="0" stop-color="#d1d3d4"/><stop offset="1" stop-color="#fff"/></linearGradient><linearGradient id="linear-gradient-3" x1="308.12" y1="116.47" x2="324.02" y2="116.47" xlink:href="#linear-gradient-2"/><linearGradient id="linear-gradient-4" x1="315.37" y1="91.1" x2="316.77" y2="91.1" xlink:href="#linear-gradient-2"/><linearGradient id="linear-gradient-5" x1="-1014.83" y1="214.03" x2="-920.38" y2="214.03" gradientTransform="matrix(-1, 0, 0, 1, -651.29, 0)" xlink:href="#linear-gradient-2"/><linearGradient id="linear-gradient-6" x1="228.7" y1="168.2" x2="269.09" y2="168.2" gradientTransform="matrix(1, 0, 0, 1, 0, 0)" xlink:href="#linear-gradient-2"/></defs><title>BG-Main</title><g id="Layer_2" data-name="Layer 2"><g id="Layer_1-2" data-name="Layer 1"><path class="cls-1" d="M143.5,0S176,30.5,153.61,72.59c-7.2,13.5-19,23.92-32.86,30.33-14.87,6.85-37.43,22.49-38.72,54.53l0,2.22c-1.15,8-2.22,18.43-38.43,27.17A57.37,57.37,0,0,0,9.4,210.07c-9.77,14.41-11.76,45.18.75,69.12,29,55.39,116.5,6.88,137-5.46a74.78,74.78,0,0,1,12.55-6.06c23.71-8.81,85.33-48.34,153.18-11.49,90.49,49.14,114.35-24.38,104.33-46-10.11-21.81-83.88-97.85-8-150.21,0,0,22-15.44,51-12.77V0Z"/><path class="cls-2" d="M135.11,144.38v136.4l38.17-17.3V144.38Zm24.2,117h-14.1v-14.1h14.1Zm0-32.91h-14.1v-14.1h14.1Zm0-31.52h-14.1V182.81h14.1Zm0-33.67h-14.1v-14.1h14.1Z"/><rect class="cls-2" x="140.78" y="135.17" width="21.57" height="9.2"/><rect class="cls-2" x="140.78" y="123.7" width="21.57" height="9.4"/><rect class="cls-3" x="140.78" y="133.1" width="21.57" height="2.07"/><path class="cls-2" d="M65.72,171.44l-.4,135.67,57.36-9.5V171.44Zm40.57,40.1h4.43v7.74h-4.43ZM87.94,240.27v-7.74h4.42v7.74Zm.92,13.58v7.74H84.43v-7.74Zm1.08,0h4.43v7.74H89.94Zm3.33-13.58v-7.74h4.42v7.74Zm2.28,13.58H100v7.74H95.55Zm3.13-13.58v-7.74h4.42v7.74Zm2.21,13.58h4.42v7.74h-4.42Zm3.44-13.58v-7.74h4.42v7.74Zm2,13.58h4.43v7.74h-4.43Zm4.09-13.58v-7.74h4.42v7.74Zm-9.49-28.73h4.42v7.74h-4.42Zm-5.34,0H100v7.74H95.55Zm-5.61,0h4.43v7.74H89.94Zm-5.51,0h4.43v7.74H84.43Zm-7.61,21h4.42v7.74H76.82Zm4.75,53H77.14v-7.74h4.43Zm.75-53h4.43v7.74H82.32Zm4.76,53H82.65v-7.74h4.43Zm5.61,0H88.26v-7.74h4.43Zm5.33,0H93.6v-7.74H98Zm5.41,0H99v-7.74h4.43Zm5.65,0h-4.42v-7.74h4.42Zm6,0h-4.42v-7.74h4.42Zm1.24-23.92H112v-7.74h4.42Zm0-42.31H112v-7.74h4.42Zm6,42.31H118v-7.74h4.42Zm0-42.31H118v-7.74h4.42Z"/><circle class="cls-4" cx="351.39" cy="98.23" r="13.01"/><rect class="cls-5" x="291.05" y="129.73" width="50.04" height="25.03"/><rect class="cls-6" x="308.12" y="103.2" width="15.9" height="26.53"/><rect class="cls-7" x="315.37" y="79" width="1.4" height="24.2"/><path class="cls-8" d="M363.54,273.29V154.76H269.12l0,87.49c16.34,2.05,30.65,7.32,50.9,18.32A111.53,111.53,0,0,0,363.54,273.29Zm-63.37-83.66H288.25V177.71h11.92Zm0,28.47H288.25V206.18h11.92Zm0,26.66H288.25V232.84h11.92Z"/><path class="cls-9" d="M407.9,162.85s6.18-18.89-15.77-26.43c0,0-9.64-14.56-24-4.89,0,0-11.2.24-10.75,13.4,0,0-13.46,14.41,1.85,27.1l24,8.21S404.76,171.43,407.9,162.85Z"/><path class="cls-10" d="M390.19,130.39S381,120.09,371,127"/><path class="cls-10" d="M355.13,145.46s-11.4,5-6.07,16"/><path class="cls-10" d="M405,141.75S419,161,405.83,169"/><path class="cls-11" d="M380,171.43a14.15,14.15,0,0,0,.59,4.83C378.1,175.24,377.82,173.49,380,171.43Z"/><path class="cls-12" d="M365.83,152.19l-.41,19.25c-.15,6.76,5.63,12.37,12.9,12.52s13.29-5.19,13.44-12l.25-11.76a7.43,7.43,0,0,0-7.27-7.59S366,152.23,365.83,152.19Z"/><path class="cls-12" d="M389.61,165.87a3.1,3.1,0,0,1,2.29-.92,2.81,2.81,0,1,1-.13,5.61,3.11,3.11,0,0,1-2.24-1Z"/><path class="cls-13" d="M385.85,170.35c0,1.09-2,1.92-4.3,1.87s-4.23-1-4.21-2.05,2-1.92,4.3-1.87S385.87,169.27,385.85,170.35Z"/><path class="cls-13" d="M366.19,168.64a3.26,3.26,0,0,0-.71.05l-.06,2.75c0,.12,0,.24,0,.35a3.83,3.83,0,0,0,.69.09c1.42,0,2.59-.67,2.61-1.57S367.61,168.67,366.19,168.64Z"/><polygon class="cls-14" points="370.21 170 373.64 170.07 373.79 163.23 372.67 163.21 370.21 170"/><path class="cls-15" d="M373.46,178.34a2.57,2.57,0,0,0,2.63-2.51l-5.14-.12A2.56,2.56,0,0,0,373.46,178.34Z"/><ellipse class="cls-16" cx="368.73" cy="165.04" rx="0.95" ry="1.93"/><ellipse class="cls-16" cx="379.13" cy="165.04" rx="0.95" ry="1.93"/><path class="cls-17" d="M364.69,172.14s3.48-1.88,16.85.36c8.63,1.44,8.92-12.62,2.36-13.22-3.4-.3-15.11,4.19-25.25,6.07Z"/><path class="cls-18" d="M376.89,162.87l7,7.72s-17.95-.78-20.83-.14l-3.24-1.34Z"/><path class="cls-18" d="M381.5,158.59l3.7,2.72s2.63,2-1.3,9.28l-8-4.42,1-7.71Z"/><path class="cls-17" d="M360.74,158.44H381a1,1,0,0,1,1,.8,14.13,14.13,0,0,1-1,8.59,4,4,0,0,1-1.75,1s-19.22.59-19.39.26C359.3,168.13,356.61,161.14,360.74,158.44Z"/><path class="cls-17" d="M380.62,167.62l4.06,2.44s-.43.55-.78.53L380,168.45A4.71,4.71,0,0,0,380.62,167.62Z"/><path class="cls-19" d="M380,168.45l3.87,2.14s-.75,0-1.21,0l-3.63-1.7A4.94,4.94,0,0,0,380,168.45Z"/><path class="cls-20" d="M383.9,162.28a19,19,0,0,1,9.8,2l-.32,1.88a15.24,15.24,0,0,1-.19,2s.2-.56-9.22-1.82Z"/><polygon class="cls-17" points="392.13 163.8 389.87 163.22 390.38 167.57 392.72 168.22 392.13 163.8"/><polygon class="cls-12" points="286.82 213.25 282.94 212.63 277.48 206.76 274.34 214.58 284.7 218.02 286.82 213.25"/><polygon class="cls-12" points="411.7 264.1 412.16 268.14 407.81 275.22 416.49 276.19 417.05 264.89 411.7 264.1"/><path class="cls-15" d="M405.54,198.6a16.74,16.74,0,0,0-12.65-8.16l-6.7-.72H373l-8.79.91a30.39,30.39,0,0,0-12.71,4.29l-30.16,18.42a9.53,9.53,0,0,1-5.85,1.36L284,211.85l-.8,7.36,34.27,5.95a9.6,9.6,0,0,0,6-.91l32.37-16.53.1,3.33a21.38,21.38,0,0,1-2,4.09,9.44,9.44,0,0,0,2.07,12.8l.5.38L363.11,273s24,2.94,38.62-12.64l-.86-6a88.19,88.19,0,0,1-1.2-23.28l1.46-18,10.42,16.24a8.21,8.21,0,0,1,1.28,5l-2.18,32.05L418,267l5.23-34.66a8.22,8.22,0,0,0-1-5.38Z"/><polygon class="cls-12" points="374.38 189.72 376 180.26 382.59 180.26 384.85 189.72 379.62 195.35 374.38 189.72"/><polygon class="cls-12" points="374.38 189.72 377.98 208.52 384.85 189.72 379.62 195.35 374.38 189.72"/><path class="cls-4" d="M58.88,183.3,67.32,196l8.91-12.54a.15.15,0,0,1,.26.07c.41,4.93,6.43,58.29-9.37,121.63l-4.88.66a39.38,39.38,0,0,1-7.6.31l-4.18-.24s19.36-57.37,8.35-122.54A0,0,0,0,1,58.88,183.3Z"/><path class="cls-21" d="M51.45,305.92c-20.51-1.12-29.28-12.25-29.28-12.25,11-24,3.76-67,3.76-67l-8.85,18.2,2.56,35.66L8.91,284.77.64,250.65a22.92,22.92,0,0,1,2.18-16.39l19.21-35a14.83,14.83,0,0,1,8.66-7l27.51-8.45a.46.46,0,0,1,.55.33C61.44,191,69.66,246,51.45,305.92Z"/><path class="cls-21" d="M67.12,305.13c14.37-77,9.93-116.37,9.29-121a.31.31,0,0,1,.4-.33l49,15.68a14.17,14.17,0,0,0,7.53.31l28-6.46,4.65,10c-22.25,10.24-36.92,14.24-43.38,12S97,211,97,211c-10.35,55.75-4.14,87.49-4.14,87.49C80.28,302.41,78.35,303.26,67.12,305.13Z"/><polygon class="cls-12" points="58.77 183.79 61.81 173.26 73.72 173.28 76.41 184.1 67.21 196.47 58.77 183.79"/><path class="cls-11" d="M66.14,165a19.78,19.78,0,0,1-.82,6.74C68.79,170.33,69.19,167.88,66.14,165Z"/><path class="cls-12" d="M85.92,138.15,86.5,165c.21,9.44-7.86,17.27-18,17.49s-18.56-7.26-18.76-16.69l-.35-16.43A10.37,10.37,0,0,1,59.53,138.8S85.67,138.2,85.92,138.15Z"/><polygon class="cls-14" points="79.81 163.01 75.02 163.12 74.81 153.56 76.38 153.53 79.81 163.01"/><path class="cls-15" d="M75.11,176.1a3.6,3.6,0,0,1-3.67-3.51l7.19-.16A3.59,3.59,0,0,1,75.11,176.1Z"/><ellipse class="cls-4" cx="81.88" cy="156.08" rx="1.33" ry="2.7"/><ellipse class="cls-4" cx="67.35" cy="156.08" rx="1.33" ry="2.7"/><ellipse class="cls-22" cx="67.59" cy="156.17" rx="0.71" ry="1.44"/><ellipse class="cls-22" cx="81.88" cy="156.17" rx="0.71" ry="1.44"/><path class="cls-23" d="M49.73,165.82s1.94-9.91,7.35-11.26l1.35-12.46s19.3.89,24.77-1.81l.77,8.53,2.22,1.67,1-16.17s-2.2-8.82-7.35-9.91c0,0-4.08-1.87-11.61-1.87,0,0-10.22-.63-13,5.56,0,0-5.77,1.26-7.36,8.31C47.82,136.41,40.25,147.12,49.73,165.82Z"/><path class="cls-17" d="M86.46,163.18s-4.95-2.66-23.94.51c-12.26,2.05-12.67-17.93-3.35-18.77,4.82-.44,21.46,6,35.87,8.61Z"/><path class="cls-18" d="M69.13,150l-10,11s25.49-1.1,29.58-.19l4.62-1.92Z"/><path class="cls-18" d="M62.58,143.93l-5.27,3.86s-3.73,2.89,1.86,13.19l11.38-6.27-1.46-11Z"/><path class="cls-17" d="M92.06,143.72H63.32a1.45,1.45,0,0,0-1.41,1.14,20.07,20.07,0,0,0,1.41,12.2,5.8,5.8,0,0,0,2.49,1.45s27.3.84,27.56.36C94.11,157.48,97.93,147.56,92.06,143.72Z"/><path class="cls-17" d="M63.82,156.76l-5.77,3.46s.62.79,1.12.76l5.49-3A6.93,6.93,0,0,1,63.82,156.76Z"/><path class="cls-19" d="M64.66,157.93l-5.49,3s1.07,0,1.71-.06L66,158.51A6.52,6.52,0,0,1,64.66,157.93Z"/><path class="cls-20" d="M59.17,149.17s-7.56-.68-13.93,2.89l.46,2.67a22.21,22.21,0,0,0,.26,2.88s-.27-.79,13.1-2.58Z"/><polygon class="cls-17" points="47.47 151.33 50.69 150.51 49.96 156.69 46.63 157.62 47.47 151.33"/><path class="cls-12" d="M52.73,157.24A4.34,4.34,0,0,0,49.54,156a3.93,3.93,0,1,0,.17,7.83,4.34,4.34,0,0,0,3.13-1.42Z"/><polygon class="cls-12" points="162.01 194.71 166.15 194.05 175.05 184.48 180.17 197.22 165.46 202.1 162.01 194.71"/><polygon class="cls-12" points="17.73 281.29 18.02 285.44 26.76 295.17 13.61 299.13 10.06 284.31 17.73 281.29"/><path d="M58.7,184.07c1.56,4.89,14,48.05-7.25,121.85l-4.78-.45S66.93,239.23,55,184.74l3.09-1A.51.51,0,0,1,58.7,184.07Z"/><path d="M67.12,305.13s14.33-70.59,9.17-121.52l4.88,1.26s7.61,32.5-9.52,119.5Z"/><path class="cls-24" d="M152.67,193.74l6.57,14.09s5.65-.11,7.66-3l-6.35-13.42A11,11,0,0,0,152.67,193.74Z"/><path class="cls-24" d="M20,276,5.65,279.78s-.57,5.57,1.84,8.08l14-3.68A14.17,14.17,0,0,0,20,276Z"/><path class="cls-25" d="M207.34,167.41a22.44,22.44,0,0,1,3.4-8,22.11,22.11,0,0,1,25.17-8.49c-.07.82-.32,1-1.21.77a22.18,22.18,0,0,0-7.35-.69,21,21,0,0,0-17.77,13,10,10,0,0,0-1,3.6c0,.11-.16.34.12.28a21.63,21.63,0,0,1,3.9-.59c.05,0,.12,0,.13-.06.18-.47.61-.29,1-.38,1.56-.43,3.18-.45,4.75-.75a.5.5,0,0,0,.68,0c.47-.32.78-.91,1.41-1a3.9,3.9,0,0,0,1.63-.09,4.81,4.81,0,0,1,1.56-.2c.58,0,.9.5,1.28.83s.81.48,1.29,0c.76-.8,1.6-1.51,2.41-2.26a.49.49,0,0,0,.6.27l4.72-1a31.65,31.65,0,0,1,3,1.94.78.78,0,0,0,1.08-.08c1.1-.93,2.22-1.83,3.35-2.74a1.48,1.48,0,0,1,2.22.15c.19.19.36.39.53.59a29,29,0,0,0,2.45,2.63q1.44,1.62,2.9,3.23a1.09,1.09,0,0,1,.3.64,18.76,18.76,0,0,1,.13,3.18c-.86.3-1.74.56-2.57.92a8.8,8.8,0,0,0-2.53,1.16c-.78-.16-1.27.46-1.9.7-.5,0-.54-.27-.4-.67a13,13,0,0,0,.49-2.47c0-.22.23-.53-.15-.59a.6.6,0,0,0-.71.48,4.33,4.33,0,0,0,0,.72c0,.31-.07.64-.39.71-.79.17-1.59.52-2.35-.08a.78.78,0,0,0-.83,0c-.33.14-.66.3-1,.41-2.91.95-5.69,2.25-8.63,3.11a9.13,9.13,0,0,0-1.33.56c-.3.15-.56.4-.25.74a2.27,2.27,0,0,0,1.2.87c1.86.4,3.77.49,5.61,1a1.16,1.16,0,0,0,1.13-.33c.86-.82,1.75-1.6,2.57-2.44a18,18,0,0,1,1.47-1.28,1.43,1.43,0,0,1,1.68-.2c.28.15.57.28.85.41,0,.8.13,1,.91.79s1.77.14,2.64-.15c.05,0,.14.09.22.14-.13.25-.35.29-.55.37a89.2,89.2,0,0,1-9.06,3.34,115.25,115.25,0,0,1-17.64,3.72,46,46,0,0,1-6.32.28,1.63,1.63,0,0,1-.51-.7c4.13-.45,8.26-.83,12.57-1.49a7.85,7.85,0,0,0-2.62-1.27c-.86-.27-1.76-.43-2.55-.62l4.82-1.49c.13,0,.31-.08.31-.26s-.23-.2-.39-.21c-1.06-.07-2.12-.1-3.17-.19a94.74,94.74,0,0,0-11.05.18c-.49,0-.49.26-.34.61L210,181a2.73,2.73,0,0,1-.94.49,20.6,20.6,0,0,1-1.69-4.88,24.82,24.82,0,0,1-.43-6.83Zm16.22,9.28h1.52c.19,0,.41,0,.49-.21s-.11-.3-.23-.41c-.88-.81-1.76-1.63-2.66-2.42a1.35,1.35,0,0,0-1.91,0c-1.11.88-2.2,1.78-3.3,2.68-.1.09-.3.15-.23.32s.27.17.44.16C219.64,176.66,221.61,177,223.56,176.69Zm12.84-11.06a33.25,33.25,0,0,0-4.51,1.19c-.9.25-1.79.56-2.67.86-.2.07-.45.14-.45.41s.23.28.41.35l2,.92a.83.83,0,0,0,1-.08A53.4,53.4,0,0,0,236.4,165.63Z"/><path class="cls-26" d="M220.52,165.1c-.63.1-.94.69-1.41,1a.5.5,0,0,1-.68,0c-.93-1-1.86-2-2.8-3-1.07-1.14-1.74-1.13-2.83,0l-4.22,4.47a10,10,0,0,1,1-3.6,21,21,0,0,1,17.77-13,22.18,22.18,0,0,1,7.35.69c.89.22,1.14.05,1.21-.77a20.45,20.45,0,0,1,7.92,4.65c.68.64,1.33,1.3,2,2l1.44,1.93a23.78,23.78,0,0,1,1.43,2.43,25.88,25.88,0,0,1,1.34,3.32c-.14.37-.51.53-.77.93-.28-.73-.51-1.35-.77-2-.1-.23-.14-.59-.45-.58s-.38.36-.42.6a1.08,1.08,0,0,1-1,.92,29,29,0,0,1-2.45-2.63c-.17-.2-.34-.4-.53-.59a1.48,1.48,0,0,0-2.22-.15c-1.13.91-2.25,1.81-3.35,2.74a.78.78,0,0,1-1.08.08,31.65,31.65,0,0,0-3-1.94c-.52-.37-1-.76-1.58-1.11a1.38,1.38,0,0,0-2,.13c-.6.56-1.19,1.13-1.78,1.7-.81.75-1.65,1.46-2.41,2.26-.48.51-.81.47-1.29,0s-.7-.8-1.28-.83A1.48,1.48,0,0,0,222,164,3,3,0,0,0,220.52,165.1Zm1.78-10-.43.14a15.6,15.6,0,0,0-7.33,5.4c-.25.34-.53.71-.08,1.06s.77,0,1-.34a14.33,14.33,0,0,1,6.76-5,2.37,2.37,0,0,0,.46-.2.54.54,0,0,0,.23-.69A.6.6,0,0,0,222.3,155.08Zm1.28,4.07a6.51,6.51,0,0,0,1.21-.1c.56-.1.64-.44.55-.9A1.57,1.57,0,0,0,223.5,157a1.42,1.42,0,0,0-1,1.55C222.56,159.41,223.21,159.06,223.58,159.15Z"/><path class="cls-26" d="M224.31,193.46a22.11,22.11,0,0,1-8.95-4.18,23.91,23.91,0,0,1-3.17-3,63.34,63.34,0,0,0,11-1c1.66-.27,3.32-.57,5-.86a13.28,13.28,0,0,0,7.76,1.35,21.85,21.85,0,0,0,3.55-.77,3.63,3.63,0,0,1-1,1,17.14,17.14,0,0,1-3.75,2.12,65.76,65.76,0,0,1-8.1,3.58c-.47.15-1,.29-1.22.88C224.66,192.4,224.5,193,224.31,193.46Z"/><path class="cls-27" d="M228.16,184.41c-1.66.29-3.32.59-5,.86a63.34,63.34,0,0,1-11,1h0l-1.3-1.69c.4-.16.87.12,1.23-.21a46,46,0,0,0,6.32-.28,115.25,115.25,0,0,0,17.64-3.72,89.2,89.2,0,0,0,9.06-3.34c.2-.08.42-.12.55-.37-.08,0-.17-.15-.22-.14-.87.29-1.76,0-2.64.15s-.94,0-.91-.79L243,175c.63-.24,1.12-.86,1.9-.7a2.92,2.92,0,0,1,1.39,1.32c.42.67.83.69,1.47.31s1.46-.73,2.19-1.09l.75-.41c.19.58.3,1.21,1,1.4,0,0,0,.05,0,.07-.35.23-.85.22-1.08.66a4.47,4.47,0,0,0-1.18.58c-.1,0-.18,0-.19.16h0a2.25,2.25,0,0,0-1.13.59,18.1,18.1,0,0,0-2.67,1.06c-3,1.19-6,2.44-9.06,3.34C233.67,183,230.91,183.72,228.16,184.41Z"/><path class="cls-28" d="M181.1,166.17a3.9,3.9,0,0,1-1.77-3c-.13-.73-.7-1.41-.29-2.25.21-.41.58-.86.22-1.41,0-.05.11-.25.19-.36a5.62,5.62,0,0,1,8.16-.83c.3.25.73.46.46,1-.12.26.24.55.36.84.19.48.62.93.12,1.51-.13.16,0,.52,0,.78a4.41,4.41,0,0,1-1.27,3.28c-.14.14-.29.5-.61.2-.74,0-1.49,0-2.24,0A12.6,12.6,0,0,0,181.1,166.17Z"/><path class="cls-29" d="M207.34,167.41l-.36,2.34a24.42,24.42,0,0,0-8.58,7c-1.35,2.12-1,3.76.91,5.29a22.36,22.36,0,0,0,2.63,1.33c-.17.31-.47.26-.75.27a1.43,1.43,0,0,0-1.33.77,5.89,5.89,0,0,1-3.92-4.2,6.12,6.12,0,0,1,1.3-4.95c1.92-2.82,4.67-4.67,7.51-6.4A14.21,14.21,0,0,1,207.34,167.41Z"/><path class="cls-29" d="M249.46,177.09a4.47,4.47,0,0,1,1.18-.58c-2.1,8.51-7.33,14.1-15.7,16.68a20.73,20.73,0,0,1-10.08.45,3.54,3.54,0,0,1-.55-.18c.19-.5.35-1.06,1.1-.86a5.12,5.12,0,0,0,.56.15,21.3,21.3,0,0,0,12.15-1.92,21.45,21.45,0,0,0,10.75-12.09,3.75,3.75,0,0,0,.39-1.5h0Z"/><path class="cls-28" d="M268,179.55a3.31,3.31,0,0,1,0,6.62,3.31,3.31,0,1,1,0-6.62Z"/><path class="cls-25" d="M251.72,175.85s0-.07,0-.07c-.72-.19-.83-.82-1-1.4l.35-.3a29.49,29.49,0,0,0,5.82-3.94,10.65,10.65,0,0,0,3.39-4.48,2.15,2.15,0,0,0,1.05-.19c.32-.14.67-.21.74.32a7.1,7.1,0,0,1-1.9,3.73,22.47,22.47,0,0,1-4.36,3.9A33.26,33.26,0,0,1,251.72,175.85Z"/><path class="cls-29" d="M247.26,159.46l-1.44-1.93a43.64,43.64,0,0,1,7.49.47,17.67,17.67,0,0,1,5.88,1.92c.16.09.37.14.42.37a1.41,1.41,0,0,0-.2,1.51l.25.42-.27,0c-.85-.44-1.59-1.05-2.49-1.41a29.3,29.3,0,0,0-9.18-1.52A.5.5,0,0,0,247.26,159.46Z"/><path class="cls-28" d="M199.77,142.3a2.23,2.23,0,0,1,2.16,2.18,2.21,2.21,0,1,1-2.16-2.18Z"/><path class="cls-26" d="M199.86,184.39a1.43,1.43,0,0,1,1.33-.77c.28,0,.58,0,.74-.27a25.25,25.25,0,0,0,3.64.74c1.68.28,3.39.2,5.07.39a11.54,11.54,0,0,0-2.36.11A32.25,32.25,0,0,0,205,185.8a8,8,0,0,1-1.78-.19c-.5-.16-.71.07-.95.37a1.15,1.15,0,0,1-1.68.43,1.33,1.33,0,0,1-.78-1.6A.75.75,0,0,0,199.86,184.39Zm.81.25a3.69,3.69,0,0,0,1.32.55c.2.05.54.32.62-.13s-.08-.66-.53-.68A2.82,2.82,0,0,0,200.67,184.64Z"/><path class="cls-29" d="M243.48,195.06a5.76,5.76,0,0,1,.31,2.25c0,1.14.2,1.3,1.32,1.38a10.39,10.39,0,0,1,2.31.37l-1.61.22c-2.27.28-1.75-.24-2,2a13,13,0,0,1-.26,1.62,12,12,0,0,1-.44-2.85c0-.44-.13-.63-.61-.66a16.88,16.88,0,0,1-3-.49l2.36-.22.79-.09c.4,0,.48-.27.5-.64A12.53,12.53,0,0,1,243.48,195.06Z"/><path class="cls-26" d="M259.41,161.8a1.41,1.41,0,0,1,.2-1.51h.22c.59.86,1.53.54,2.34.67a1.43,1.43,0,0,1-.31,1.21c-.25.25-.11.47,0,.73a4.51,4.51,0,0,1,.2,2.88c-.07-.53-.42-.46-.74-.32a2.15,2.15,0,0,1-1.05.19,3.48,3.48,0,0,0-.86-3.42l.27,0a1.57,1.57,0,0,0,1.25.43c.26,0,.6,0,.63-.34a.63.63,0,0,0-.48-.64A2,2,0,0,0,259.41,161.8Z"/><path class="cls-25" d="M205,185.8a32.25,32.25,0,0,1,3.28-1.21,11.54,11.54,0,0,1,2.36-.11h0l.22.06,1.3,1.69a31.69,31.69,0,0,1-5.84-.23C205.91,185.94,205.41,186.11,205,185.8Z"/><path class="cls-29" d="M257,136.51c-.89.1-1.78.27-2.68.29-.71,0-.84.38-.87.95-.05.85-.14,1.71-.27,2.57a9.19,9.19,0,0,1-.39-2.7c-.07-.57-.23-.79-.82-.81a11.35,11.35,0,0,1-2.66-.43c.81-.08,1.62-.21,2.43-.22s1.06-.15,1.06-1a11,11,0,0,1,.4-2.64c.08.77.19,1.55.24,2.32.07,1.2.08,1.2,1.23,1.27.78,0,1.56.16,2.34.25Z"/><path class="cls-29" d="M214.71,147.61a47.73,47.73,0,0,1-3.65,4.71.75.75,0,0,1-1.2.07.7.7,0,0,1,.07-1.17q1.9-1.54,3.83-3.06c.28-.22.58-.42.87-.63Z"/><path class="cls-29" d="M222.06,199.43c-1.25,1.6-2.48,3.19-3.74,4.78-.4.49-.89.54-1.24.16a.77.77,0,0,1,.07-1.21c1.48-1.24,3-2.44,4.48-3.64.1-.09.27-.08.41-.11Z"/><path class="cls-29" d="M203.4,188.45c-1.18,1.51-2.35,3-3.55,4.52a.72.72,0,0,1-1.13.14.7.7,0,0,1-.09-1.09,32.33,32.33,0,0,1,4.68-3.65Z"/><path class="cls-29" d="M245.69,147.74c-1.1,1.6-2.31,3.12-3.56,4.61a.73.73,0,0,1-1.15.08.72.72,0,0,1,0-1.14,33.73,33.73,0,0,1,4.65-3.62Z"/><path class="cls-29" d="M268.32,165.27l-2.27,2.95c-.36.45-.71.91-1.09,1.35s-.95.57-1.31.2a.91.91,0,0,1,.24-1.32l4-3.14C268,165.24,268,165.15,268.32,165.27Z"/><path class="cls-27" d="M181.1,166.17a12.6,12.6,0,0,1,3.3-.17c.75,0,1.5,0,2.24,0,.11.39-.24.46-.46.59A4.45,4.45,0,0,1,181.1,166.17Z"/><path class="cls-29" d="M216.82,196.93c-.26-.62.08-1.32-.38-1.72s-1.11.06-1.82-.35a13,13,0,0,1,1.43-.2c.47,0,.62-.24.63-.68a1.85,1.85,0,0,1,.23-1.17c-.14,1.49.49,2.17,1.92,2.11a3.51,3.51,0,0,1-.89.14c-.76-.06-1,.34-.95,1A1.22,1.22,0,0,1,216.82,196.93Z"/><path class="cls-29" d="M217,135.49c1.7.45,2-.47,2-1.81.27,1.65.27,1.65,2.06,2a.94.94,0,0,1-.82.17c-.69,0-1,.23-1.06.93,0,.32-.07.65-.14,1.18a2,2,0,0,1-.17-1.21c.05-.6-.24-.83-.78-.87l-1-.08Z"/><path class="cls-29" d="M254.4,182.25a11.64,11.64,0,0,1-1.67,2.37,2,2,0,0,1-.64.67c-.22.1-.42.13-.57-.09s-.28-.39-.05-.64A22.73,22.73,0,0,1,254.4,182.25Z"/><path class="cls-29" d="M193.62,188.55c-.4-.53.06-1.29-.47-1.62a4.93,4.93,0,0,0-1.63-.3l.12-.07a4.38,4.38,0,0,0,1.53-.28c.45-.29.13-.95.26-1.43a.51.51,0,0,1,.11-.18c.4,1.72.4,1.72,2,1.93-.2.31-.52.24-.78.2-.77-.11-1,.27-1.05,1C193.66,188,193.63,188.29,193.62,188.55Z"/><path class="cls-29" d="M271,141.81c-.57.22-1.3-.18-1.62.3a5,5,0,0,0-.34,1.75c-.09-.7,0-1.33-.33-1.74s-1.06-.12-1.66-.37c1.39.07,2.26-.37,2-1.91,0,.2.1.41.13.62.15,1.14.15,1.13,1.35,1.2A.44.44,0,0,1,271,141.81Z"/><path class="cls-29" d="M187.05,152c1.45.22,2.14-.36,2-1.87.13.58,0,1.21.37,1.59s1,.23,1.55.29a.75.75,0,0,1-.57.2c-1.17.12-1.17.12-1.24,1.32,0,.12,0,.24,0,.47a1.46,1.46,0,0,1-.22-1.07c0-.48-.19-.72-.69-.7A2.5,2.5,0,0,1,187.05,152Z"/><path class="cls-29" d="M262.17,161c-.81-.13-1.75.19-2.34-.67.32-.66.92-.41,1.39-.36A1.07,1.07,0,0,1,262.17,161Z"/><path class="cls-29" d="M260.19,154c.24.57.21,1.31,1.2,1.09-.72.14-1.19.4-1.16,1.18-.09-.68-.31-1.18-1.2-1C259.41,154.74,260.44,155,260.19,154Z"/><path class="cls-29" d="M230.36,146.73c-.78,0-1.1.38-1.13,1.13,0-.74-.38-1.14-1.17-1.05.23-.61,1.47-.13,1.12-1.29A1.2,1.2,0,0,0,230.36,146.73Z"/><path class="cls-29" d="M192.43,171.91c.88,0,1-.54,1.18-1.21,0,.75.17,1.32,1.13,1.15-.64.21-1.44.16-1.11,1.25C193.43,172.44,193.3,171.85,192.43,171.91Z"/><path class="cls-29" d="M247.72,141.81c-.08-.74-.27-1.26-1.16-1.27.93.14,1.08-.41,1.06-1.26.38,1.15.38,1.15,1.17,1.27C248.07,140.63,247.61,140.93,247.72,141.81Z"/><path class="cls-29" d="M268.57,164.89l-.05,0s0,0,0-.06l.07.06Z"/><path class="cls-29" d="M245.62,147.67l.11,0,0,.1Z"/><path class="cls-29" d="M214.84,147.45c0,.06-.09.11-.13.16l-.08-.08.16-.13Z"/><polygon class="cls-29" points="203.8 187.99 203.83 187.95 203.8 187.98 203.8 187.99"/><path class="cls-29" d="M203.66,188.13l-.13.16-.06-.06.18-.11Z"/><path class="cls-29" d="M203.53,188.29l-.13.16-.09-.08.16-.14Z"/><path class="cls-29" d="M214.79,147.4l.06,0s0,0,0,0l0,0Z"/><path class="cls-29" d="M222,199.41l0,0,0,0,0,0Z"/><path class="cls-29" d="M203.8,188l-.14.15h0l.15-.13Z"/><path class="cls-30" d="M210.68,184.49h0c-1.68-.19-3.39-.11-5.07-.39a25.25,25.25,0,0,1-3.64-.74,23,23,0,0,1-2.62-1.33c-1.95-1.53-2.26-3.17-.91-5.29a24.42,24.42,0,0,1,8.58-7,24.82,24.82,0,0,0,.43,6.83,20.6,20.6,0,0,0,1.69,4.88c.22.45.46.9.67,1.35S210.55,183.84,210.68,184.49Z"/><path class="cls-27" d="M210,181l-.84-2.07c-.15-.35-.15-.59.34-.61a94.74,94.74,0,0,1,11.05-.18c1,.09,2.11.12,3.17.19.16,0,.37,0,.39.21s-.18.22-.31.26L219,180.26c.79.19,1.69.35,2.55.62a7.85,7.85,0,0,1,2.62,1.27c-4.31.66-8.44,1-12.57,1.49A23.12,23.12,0,0,1,210,181Z"/><path class="cls-26" d="M243,175l-1.06.9c-.28-.13-.57-.26-.85-.41a1.43,1.43,0,0,0-1.68.2,18,18,0,0,0-1.47,1.28c-.82.84-1.71,1.62-2.57,2.44a1.16,1.16,0,0,1-1.13.33c-1.84-.48-3.75-.57-5.61-1a2.27,2.27,0,0,1-1.2-.87c-.31-.34,0-.59.25-.74a9.13,9.13,0,0,1,1.33-.56c2.94-.86,5.72-2.16,8.63-3.11.34-.11.67-.27,1-.41a.78.78,0,0,1,.83,0c.76.6,1.56.25,2.35.08.32-.07.38-.4.39-.71a4.33,4.33,0,0,1,0-.72.6.6,0,0,1,.71-.48c.38.06.17.37.15.59a13,13,0,0,1-.49,2.47C242.45,174.68,242.49,175,243,175Z"/><path class="cls-27" d="M208.58,167.61l4.22-4.47c1.09-1.16,1.76-1.17,2.83,0,.94,1,1.87,2,2.8,3-1.57.3-3.19.32-4.75.75-.34.09-.77-.09-1,.38,0,0-.08.06-.13.06a21.63,21.63,0,0,0-3.9.59C208.42,168,208.6,167.72,208.58,167.61Z"/><path class="cls-27" d="M223.56,176.69c-1.95.28-3.92,0-5.88.08-.17,0-.36,0-.44-.16s.13-.23.23-.32c1.1-.9,2.19-1.8,3.3-2.68a1.35,1.35,0,0,1,1.91,0c.9.79,1.78,1.61,2.66,2.42.12.11.3.22.23.41s-.3.21-.49.21Z"/><path class="cls-29" d="M251,174.08l-.35.3-.75.41c-.12-.88.21-1.75.05-2.62a18.76,18.76,0,0,0-.13-3.18,1.09,1.09,0,0,0-.3-.64q-1.45-1.6-2.9-3.23a1.08,1.08,0,0,0,1-.92c0-.24.13-.6.42-.6s.35.35.45.58c.26.61.49,1.23.77,2,.26-.4.63-.56.77-.93a4.54,4.54,0,0,1,.45,1.36A22.61,22.61,0,0,1,251,174.08Z"/><path class="cls-26" d="M236.4,165.63a53.4,53.4,0,0,1-4.19,3.65.83.83,0,0,1-1,.08l-2-.92c-.18-.07-.4-.11-.41-.35s.25-.34.45-.41c.88-.3,1.77-.61,2.67-.86A33.25,33.25,0,0,1,236.4,165.63Z"/><path class="cls-26" d="M250,172.17c.16.87-.17,1.74-.05,2.62-.73.36-1.49.67-2.19,1.09s-1.05.36-1.47-.31a2.92,2.92,0,0,0-1.39-1.32,8.8,8.8,0,0,1,2.53-1.16C248.25,172.73,249.13,172.47,250,172.17Z"/><path class="cls-27" d="M228.69,163.35c.59-.57,1.18-1.14,1.78-1.7a1.38,1.38,0,0,1,2-.13c.54.35,1.06.74,1.58,1.11l-4.72,1A.49.49,0,0,1,228.69,163.35Z"/><path class="cls-26" d="M210,181a23.12,23.12,0,0,0,1.58,2.67,1.63,1.63,0,0,0,.51.7c-.36.33-.83,0-1.23.21l-.22-.06c-.13-.65-.64-1.1-.91-1.68s-.45-.9-.67-1.35A2.73,2.73,0,0,0,210,181Z"/><path class="cls-27" d="M220.52,165.1A3,3,0,0,1,222,164a1.48,1.48,0,0,1,1.72.83,4.81,4.81,0,0,0-1.56.2A3.9,3.9,0,0,1,220.52,165.1Z"/><path class="cls-30" d="M251,174.08a22.61,22.61,0,0,0-.56-7.51,4.54,4.54,0,0,0-.45-1.36,25.88,25.88,0,0,0-1.34-3.32,23.78,23.78,0,0,0-1.43-2.43.5.5,0,0,1,.46-.15,29.3,29.3,0,0,1,9.18,1.52c.9.36,1.64,1,2.49,1.41a3.48,3.48,0,0,1,.86,3.42,10.65,10.65,0,0,1-3.39,4.48A29.49,29.49,0,0,1,251,174.08Z"/><path class="cls-27" d="M222.3,155.08a.6.6,0,0,1,.66.4.54.54,0,0,1-.23.69,2.37,2.37,0,0,1-.46.2,14.33,14.33,0,0,0-6.76,5c-.28.38-.58.71-1,.34s-.17-.72.08-1.06a15.6,15.6,0,0,1,7.33-5.4Z"/><path class="cls-25" d="M223.58,159.15c-.37-.09-1,.26-1.09-.58a1.42,1.42,0,0,1,1-1.55,1.57,1.57,0,0,1,1.84,1.13c.09.46,0,.8-.55.9A6.51,6.51,0,0,1,223.58,159.15Z"/><path class="cls-25" d="M248.87,178.74a21.45,21.45,0,0,1-10.75,12.09A21.3,21.3,0,0,1,226,192.75a5.12,5.12,0,0,1-.56-.15c.19-.59.75-.73,1.22-.88a65.76,65.76,0,0,0,8.1-3.58,17.14,17.14,0,0,0,3.75-2.12,3.63,3.63,0,0,0,1-1,21.85,21.85,0,0,1-3.55.77,13.28,13.28,0,0,1-7.76-1.35c2.75-.69,5.51-1.38,8.24-2.18,3.1-.9,6.06-2.15,9.06-3.34a18.1,18.1,0,0,1,2.67-1.06A2.26,2.26,0,0,1,248.87,178.74Z"/><path class="cls-26" d="M248.87,178.74a2.26,2.26,0,0,0-.74-.91,2.25,2.25,0,0,1,1.13-.59A3.75,3.75,0,0,1,248.87,178.74Z"/><path class="cls-26" d="M249.46,177.09l-.19.16C249.28,177.13,249.36,177.1,249.46,177.09Z"/><path class="cls-25" d="M259.41,161.8a2,2,0,0,1,1.65-.13.63.63,0,0,1,.48.64c0,.34-.37.31-.63.34a1.57,1.57,0,0,1-1.25-.43C259.58,162.08,259.5,161.94,259.41,161.8Z"/><path class="cls-25" d="M200.67,184.64a2.82,2.82,0,0,1,1.41-.26c.45,0,.59.31.53.68s-.42.18-.62.13A3.69,3.69,0,0,1,200.67,184.64Z"/><path class="cls-31" d="M239.42,241.88l0-2.53h14.91v1.89a107.53,107.53,0,0,1,14.81,1l0-149.2H228.7v150.3A106.9,106.9,0,0,1,239.42,241.88Zm0-143.69h14.91v15.2H239.37Zm0,36.28h14.91v15.19H239.37Zm0,34h14.91v15.19H239.37Zm0,35.45h14.91v15.2H239.37Z"/></g></g></svg>