<?xml version="1.0" encoding="utf-8"?>
<!-- Generator: Adobe Illustrator 22.0.1, SVG Export Plug-In . SVG Version: 6.00 Build 0)  -->
<svg version="1.1" id="Layer_1" xmlns="http://www.w3.org/2000/svg" xmlns:xlink="http://www.w3.org/1999/xlink" x="0px" y="0px"
	 viewBox="0 0 1280 1024" style="enable-background:new 0 0 1280 1024;" xml:space="preserve">
<style type="text/css">
	.st0{fill:url(#SVGID_1_);}
	.st1{opacity:0.35;fill:#FFFFFF;}
	.st2{opacity:0.35;fill:#D0D2D3;}
	.st3{fill:none;stroke:#E64447;stroke-miterlimit:10;}
	.st4{fill:none;}
	.st5{fill:url(#SVGID_2_);}
	.st6{opacity:0.35;fill:url(#SVGID_3_);}
	.st7{opacity:0.35;fill:url(#SVGID_4_);}
	.st8{opacity:0.35;fill:url(#SVGID_5_);}
	.st9{opacity:0.35;fill:url(#SVGID_6_);}
	.st10{fill:#101334;}
	.st11{fill:none;stroke:#101334;stroke-width:0.5;stroke-miterlimit:10;}
	.st12{fill:#F4CC87;}
	.st13{fill:#BA8C6A;}
	.st14{fill:#C49F76;}
	.st15{fill:#685553;}
	.st16{fill:#E64447;}
	.st17{fill:#1B4271;}
	.st18{fill:#414141;}
	.st19{fill:#59595C;}
	.st20{fill:#808083;}
	.st21{fill:#6D6F70;}
	.st22{fill:#FFFFFF;}
	.st23{fill:#1494C3;}
	.st24{fill:#020202;}
	.st25{fill:#111433;}
	.st26{fill:#214182;}
	.st27{fill:#8E69AD;}
	.st28{fill:#72459A;}
	.st29{fill:#CAB5D7;}
	.st30{fill:#E39F38;}
	.st31{fill:#242260;}
	.st32{fill:#0F1235;}
	.st33{opacity:0.35;fill:url(#SVGID_7_);}
	.st34{opacity:0.5;}
	.st35{opacity:0.5;fill:#FFFFFF;}
</style>
<linearGradient id="SVGID_1_" gradientUnits="userSpaceOnUse" x1="72.7237" y1="1211.2859" x2="1280" y2="1211.2859" gradientTransform="matrix(1 0 0 1 0 -809.7699)">
	<stop  offset="0" style="stop-color:#29B473"/>
	<stop  offset="1" style="stop-color:#00A69C"/>
</linearGradient>
<path class="st0" d="M446.6,0c0,0,85.6,80.3,26.6,191c-18.9,35.5-49.9,63-86.5,79.8c-39.2,18-98.5,59.2-101.9,143.5l-0.1,5.8
	c-3,21.1-5.8,48.5-101.1,71.5c-36.4,8.8-68.9,30.1-89.9,61.1c-25.7,37.9-30.9,118.9,2,181.9c76.2,145.8,306.6,18.1,360.4-14.4
	c10.5-6.3,21.5-11.7,33-15.9c62.4-23.2,224.6-127.2,403.1-30.2C1130.3,803.4,1280,594.7,1280,532c0-59-0.1-532-0.1-532L446.6,0z"/>
<g>
	<path class="st1" d="M424.5,379.9v358.9L525,693.3V379.9H424.5z M488.2,687.7h-37.1v-37.1h37.1V687.7z M488.2,601.1h-37.1V564h37.1
		V601.1z M488.2,518.2h-37.1v-37.1h37.1V518.2z M488.2,429.6h-37.1v-37.1h37.1V429.6z"/>
	<rect x="439.5" y="355.7" class="st1" width="56.8" height="24.2"/>
	<rect x="439.5" y="325.5" class="st1" width="56.8" height="24.7"/>
	<rect x="439.5" y="350.2" class="st2" width="56.8" height="5.5"/>
</g>
<path class="st1" d="M241.9,451.1l-1.1,357l151-25v-332H241.9z M348.7,556.6h11.6V577h-11.6V556.6z M300.4,632.2v-20.4H312v20.4
	H300.4z M302.8,668v20.4h-11.6V668H302.8z M305.7,668h11.6v20.4h-11.6V668z M314.4,632.2v-20.4h11.6v20.4H314.4z M320.4,668h11.6
	v20.4h-11.6V668z M328.7,632.2v-20.4h11.6v20.4H328.7z M334.5,668h11.6v20.4h-11.6V668z M343.5,632.2v-20.4h11.6v20.4H343.5z
	 M348.7,668h11.6v20.4h-11.6V668z M359.4,632.2v-20.4h11.6v20.4H359.4z M334.5,556.6h11.6V577h-11.6V556.6z M320.4,556.6h11.6V577
	h-11.6V556.6z M305.7,556.6h11.6V577h-11.6V556.6z M291.2,556.6h11.6V577h-11.6V556.6z M271.1,611.9h11.6v20.4h-11.6V611.9z
	 M283.6,751.3H272v-20.4h11.6V751.3z M285.6,611.9h11.6v20.4h-11.6V611.9z M298.1,751.3h-11.6v-20.4h11.6V751.3z M312.9,751.3h-11.6
	v-20.4h11.6V751.3z M326.9,751.3h-11.6v-20.4h11.6V751.3z M341.2,751.3h-11.6v-20.4h11.6V751.3z M356,751.3h-11.6v-20.4H356V751.3z
	 M372,751.3h-11.6v-20.4H372V751.3z M375.2,688.3h-11.6V668h11.6V688.3z M375.2,577h-11.6v-20.4h11.6V577z M391.1,688.3h-11.6V668
	h11.6V688.3z M391.1,577h-11.6v-20.4h11.6V577z"/>
<path class="st3" d="M974.3,624.9"/>
<path class="st4" d="M240.5,484.4"/>
<linearGradient id="SVGID_2_" gradientUnits="userSpaceOnUse" x1="61.4114" y1="424.4733" x2="129.8595" y2="424.4733">
	<stop  offset="0" style="stop-color:#29B473"/>
	<stop  offset="1" style="stop-color:#00A69C"/>
</linearGradient>
<circle class="st5" cx="95.6" cy="424.5" r="34.2"/>
<g>
	
		<linearGradient id="SVGID_3_" gradientUnits="userSpaceOnUse" x1="834.872" y1="374.3071" x2="966.5531" y2="374.3071" gradientTransform="matrix(1 0 0 1 3.237860e-05 0)">
		<stop  offset="0" style="stop-color:#D0D2D3"/>
		<stop  offset="1" style="stop-color:#FFFFFF"/>
	</linearGradient>
	<rect x="834.9" y="341.4" class="st6" width="131.7" height="65.9"/>
	
		<linearGradient id="SVGID_4_" gradientUnits="userSpaceOnUse" x1="879.7913" y1="306.4667" x2="921.6339" y2="306.4667" gradientTransform="matrix(1 0 0 1 3.237860e-05 0)">
		<stop  offset="0" style="stop-color:#D0D2D3"/>
		<stop  offset="1" style="stop-color:#FFFFFF"/>
	</linearGradient>
	<rect x="879.8" y="271.6" class="st7" width="41.8" height="69.8"/>
	
		<linearGradient id="SVGID_5_" gradientUnits="userSpaceOnUse" x1="898.8666" y1="239.7143" x2="902.5586" y2="239.7143" gradientTransform="matrix(1 0 0 1 3.237860e-05 0)">
		<stop  offset="0" style="stop-color:#D0D2D3"/>
		<stop  offset="1" style="stop-color:#FFFFFF"/>
	</linearGradient>
	<rect x="898.9" y="207.9" class="st8" width="3.7" height="63.7"/>
	
		<linearGradient id="SVGID_6_" gradientUnits="userSpaceOnUse" x1="-849.6369" y1="561.1192" x2="-600.7307" y2="561.1192" gradientTransform="matrix(-1 0 0 1 176.3631 0)">
		<stop  offset="0" style="stop-color:#D0D2D3"/>
		<stop  offset="1" style="stop-color:#FFFFFF"/>
	</linearGradient>
	<path class="st9" d="M1026,715l-0.4-307.8H777.2l-0.1,230.2c43,5.4,80.6,17.6,133.9,46.5C950,705.2,994.6,713,1026,715z M858.9,499
		h-31.4v-31.4h31.4V499z M858.9,573.9h-31.4v-31.4h31.4V573.9z M858.9,644.1h-31.4v-31.4h31.4V644.1z"/>
</g>
<g>
	<g>
		<path class="st10" d="M1142.3,428.5c0,0,16.3-49.7-41.5-69.5c0,0-25.4-38.3-63.1-12.9c0,0-29.5,0.6-28.3,35.3
			c0,0-35.4,37.9,4.9,71.3l63.1,21.6C1077.4,474.3,1134.1,451.1,1142.3,428.5z"/>
		<path class="st11" d="M1095.8,343.1c0,0-24.2-27.1-50.6-8.9"/>
		<path class="st11" d="M1003.5,382.8c0,0-30,13.1-16,42.1"/>
		<path class="st11" d="M1134.6,373c0,0,37,50.8,2.3,71.6"/>
		<g>
			<path class="st12" d="M1068.9,451.1c-0.2,4.8,0.4,8.7,1.5,12.7C1063.9,461.1,1063.2,456.5,1068.9,451.1z"/>
			<path class="st13" d="M1031.6,400.5l-1.1,50.7c-0.4,17.8,14.8,32.5,34,32.9c19.1,0.4,35-13.7,35.4-31.5l0.7-31
				c0.2-10.8-8.3-19.7-19.1-20C1081.4,401.7,1032.1,400.6,1031.6,400.5z"/>
			<path class="st13" d="M1094.2,436.5c1.5-1.5,3.6-2.5,6-2.4c4.4,0.1,7.9,3.5,7.8,7.6c-0.1,4.1-3.7,7.3-8.1,7.2
				c-2.4-0.1-4.5-1.1-5.9-2.7L1094.2,436.5z"/>
			<path class="st14" d="M1084.3,448.3c-0.1,2.9-5.1,5.1-11.3,4.9c-6.2-0.1-11.1-2.6-11.1-5.4c0.1-2.9,5.1-5.1,11.3-4.9
				C1079.4,443,1084.4,445.4,1084.3,448.3z"/>
			<path class="st14" d="M1032.6,443.7c-0.7,0-1.3,0-1.9,0.1l-0.2,7.2c0,0.3,0,0.6,0,0.9c0.6,0.1,1.2,0.2,1.8,0.2
				c3.7,0.1,6.8-1.8,6.9-4.1C1039.3,445.8,1036.3,443.8,1032.6,443.7z"/>
			<polygon class="st15" points="1043.2,447.3 1052.2,447.5 1052.6,429.5 1049.6,429.5 			"/>
			<path class="st16" d="M1051.7,469.3c3.7,0.1,6.8-2.9,6.9-6.6l-13.5-0.3C1045,466.1,1048,469.2,1051.7,469.3z"/>
		</g>
		<ellipse class="st17" cx="1039.3" cy="434.3" rx="2.5" ry="5.1"/>
		<ellipse class="st17" cx="1066.7" cy="434.3" rx="2.5" ry="5.1"/>
	</g>
	<g>
		<path class="st18" d="M1028.6,453c0,0,9.2-4.9,44.4,0.9c22.7,3.8,23.5-33.2,6.2-34.8c-8.9-0.8-39.7,11-66.4,15.9L1028.6,453z"/>
		<path class="st19" d="M1060.7,428.6l18.4,20.3c0,0-47.2-2.1-54.8-0.4l-8.5-3.5L1060.7,428.6z"/>
		<path class="st19" d="M1072.9,417.3l9.8,7.1c0,0,6.9,5.4-3.4,24.4l-21.1-11.6l2.7-20.3L1072.9,417.3z"/>
		<path class="st18" d="M1018.3,416.9h53.2c1.3,0,2.3,0.9,2.6,2.1c0.9,4.3,1.7,13.3-2.6,22.6c-0.4,0.8-3.8,2.7-4.6,2.7
			c0,0-50.6,1.5-51,0.7C1014.5,442.4,1007.4,424,1018.3,416.9z"/>
		<path class="st18" d="M1070.6,441.1l10.7,6.4c0,0-1.1,1.5-2.1,1.4l-10.2-5.6C1069,443.2,1069.6,442.7,1070.6,441.1z"/>
		<path class="st20" d="M1069,443.2l10.2,5.6c0,0-2,0-3.2-0.1l-9.6-4.5C1066.5,444.3,1068.3,443.7,1069,443.2z"/>
		<path class="st21" d="M1079.2,427c0,0,14-1.3,25.8,5.4l-0.9,4.9c0.1,1.1-0.5,5.3-0.5,5.3s0.5-1.5-24.3-4.8L1079.2,427z"/>
		<polygon class="st18" points="1100.8,431 1094.9,429.5 1096.2,440.9 1102.4,442.7 		"/>
	</g>
	<polygon class="st13" points="823.7,561.1 813.5,559.5 799.2,544.1 790.9,564.6 818.2,573.7 	"/>
	<polygon class="st13" points="1152.4,695 1153.6,705.6 1142.1,724.2 1164.9,726.8 1166.4,697 	"/>
	<path class="st3" d="M1063.6,582.9"/>
	<path class="st16" d="M1136.1,522.6c-7.1-12-19.4-20-33.3-21.5l-17.6-1.9h-34.7l-23.1,2.4c-11.8,1.2-23.3,5.1-33.4,11.3l-79.4,48.5
		c-4.6,2.8-10,4.1-15.4,3.6l-83-7.5l-2.1,19.4l90.2,15.6c5.4,0.9,10.9,0.1,15.7-2.4l85.2-43.5l0.3,8.7c-1.5,3.7-3.4,7.9-5.4,10.8
		c-7.3,10.6-5.3,25.5,5.4,33.7l1.3,1L1024,715c0,0,60,4,105-16l-5.2-29.6c-3.8-20.2-4.8-40.8-3.2-61.3l3.8-47.4l27.4,42.7
		c2.5,3.9,3.7,8.5,3.4,13.1l-5.7,84.3l19.4,1.7l13.8-91.2c0.7-4.9-0.2-9.9-2.7-14.2L1136.1,522.6z"/>
	<polygon class="st13" points="1054.2,499.2 1058.4,474.3 1075.7,474.3 1081.7,499.2 1067.9,514 	"/>
	<polygon class="st13" points="1054.2,499.2 1063.6,548.7 1081.7,499.2 1067.9,514 	"/>
</g>
<g>
	<path class="st22" d="M223.9,482.3l22.2,33.4l23.4-33c0.2-0.3,0.6-0.2,0.7,0.2c1.1,13,16.9,153.4-24.7,320.1l-12.8,1.7
		c-6.6,0.9-13.3,1.2-20,0.8l-11-0.6c0,0,50.9-151,22-322.4C223.7,482.3,223.9,482.2,223.9,482.3z"/>
	<g>
		<path class="st23" d="M204.4,805c-54-2.9-77-32.2-77-32.2c29-63.2,9.9-176.3,9.9-176.3L114,644.4l6.7,93.8l-28.3,11.1l-21.7-89.8
			c-3.5-14.6-1.5-30,5.7-43.1l50.6-92.2c4.9-8.9,13.1-15.6,22.8-18.5l72.4-22.2c0.6-0.2,1.2,0.2,1.5,0.8
			C230.7,502.6,252.3,647.2,204.4,805z"/>
		<path class="st23" d="M245.6,802.9c37.8-202.7,26.1-306.2,24.5-318.5c-0.1-0.6,0.5-1.1,1.1-0.9l128.9,41.3
			c6.4,2.1,13.3,2.3,19.8,0.8l73.7-17l12.2,26.4c-58.6,26.9-97.2,37.5-114.1,31.6c-17-5.9-67.3-11.4-67.3-11.4
			c-27.2,146.7-10.9,230.2-10.9,230.2C280.2,795.8,275.2,798,245.6,802.9z"/>
	</g>
	<path class="st4" d="M214.8,443.2"/>
	<polygon class="st13" points="223.6,483.6 231.7,455.9 263,456 270.1,484.4 245.9,517 	"/>
	<path class="st12" d="M243,434.2c0.3,6.6-0.6,12.1-2.1,17.7C250,448.2,251.1,441.8,243,434.2z"/>
	<path class="st13" d="M295.1,363.5l1.5,70.7c0.5,24.8-20.7,45.4-47.4,46c-26.7,0.6-48.8-19.1-49.4-43.9l-0.9-43.2
		c-0.3-15.1,11.6-27.6,26.7-27.9C225.6,365.2,294.4,363.7,295.1,363.5z"/>
	<polygon class="st15" points="279,428.9 266.4,429.2 265.9,404.1 270,404 	"/>
	<path class="st16" d="M266.7,463.4c-5.2,0.1-9.5-4-9.7-9.3l18.9-0.4C276,459,271.9,463.3,266.7,463.4z"/>
	<ellipse class="st22" cx="284.5" cy="410.7" rx="3.5" ry="7.1"/>
	<ellipse class="st22" cx="246.2" cy="410.7" rx="3.5" ry="7.1"/>
	<ellipse class="st24" cx="246.9" cy="410.9" rx="1.9" ry="3.8"/>
	<ellipse class="st24" cx="284.5" cy="410.9" rx="1.9" ry="3.8"/>
	<path class="st25" d="M199.9,436.3c0,0,5.1-26.1,19.3-29.6l3.5-32.8c0,0,50.8,2.4,65.2-4.8l2,22.5l5.8,4.4l2.5-42.5
		c0,0-5.8-23.2-19.3-26.1c0,0-10.7-4.9-30.6-4.9c0,0-26.9-1.7-34.3,14.6c0,0-15.2,3.3-19.3,21.9
		C194.8,358.9,174.9,387.1,199.9,436.3z"/>
	<g>
		<path class="st18" d="M296.5,429.4c0,0-13-7-63,1.3c-32.3,5.4-33.3-47.2-8.8-49.4c12.7-1.1,56.5,15.7,94.4,22.7L296.5,429.4z"/>
		<path class="st19" d="M250.9,394.8l-26.2,28.9c0,0,67.1-2.9,77.8-0.5l12.1-5L250.9,394.8z"/>
		<path class="st19" d="M233.7,378.7l-13.9,10.2c0,0-9.8,7.6,4.9,34.7l29.9-16.5l-3.8-28.8L233.7,378.7z"/>
		<path class="st18" d="M311.3,378.2h-75.6c-1.8,0-3.3,1.2-3.7,3c-1.3,6.1-2.4,19,3.7,32.1c0.5,1.1,5.4,3.8,6.6,3.8
			c0,0,71.8,2.2,72.5,1C316.6,414.4,326.7,388.3,311.3,378.2z"/>
		<path class="st18" d="M236.9,412.5l-15.2,9.1c0,0,1.6,2.1,2.9,2l14.4-8C239.1,415.6,238.3,414.7,236.9,412.5z"/>
		<path class="st20" d="M239.1,415.6l-14.4,8c0,0,2.8,0,4.5-0.2l13.6-6.3C242.8,417.1,240.1,416.3,239.1,415.6z"/>
		<path class="st21" d="M224.7,392.5c0,0-19.9-1.8-36.7,7.6l1.2,7c-0.2,1.6,0.7,7.6,0.7,7.6s-0.7-2.1,34.5-6.8L224.7,392.5z"/>
		<polygon class="st18" points="193.9,398.2 202.4,396 200.5,412.3 191.7,414.7 		"/>
	</g>
	<path class="st13" d="M207.7,413.8c-2.1-2.1-5.1-3.4-8.4-3.4c-6.1,0.1-11,4.9-10.9,10.5c0.1,5.7,5.2,10.2,11.3,10.1
		c3.3-0.1,6.3-1.5,8.2-3.7L207.7,413.8z"/>
	<polygon class="st13" points="495.3,512.3 506.2,510.6 529.6,485.4 543.1,519 504.4,531.8 	"/>
	<polygon class="st13" points="115.7,740.2 116.4,751.1 139.4,776.7 104.8,787.1 95.5,748.1 	"/>
	<path d="M223.5,484.4c4.1,12.9,37,126.4-19.1,320.6l-12.6-1.2c0,0,53.3-174.3,21.9-317.7l8.1-2.6
		C222.5,483.3,223.2,483.7,223.5,484.4z"/>
	<path d="M245.6,802.9c0,0,37.7-185.7,24.1-319.8l12.8,3.3c0,0,20,85.5-25.1,314.5L245.6,802.9z"/>
	<path class="st26" d="M470.7,509.8l17.3,37.1c0,0,14.9-0.3,20.2-7.7l-16.7-35.3C491.5,503.8,480.6,502.1,470.7,509.8z"/>
	<path class="st26" d="M121.6,726.3l-37.8,9.9c0,0-1.5,14.7,4.8,21.3l36.8-9.7C125.5,747.8,127.3,737.4,121.6,726.3z"/>
</g>
<g>
	<path class="st27" d="M614.6,440.5c1.7-7.6,4.5-14.7,9-21c4.5-6.5,10.1-12.1,16.9-16.3c15.5-9.6,32-11.4,49.3-6
		c-0.2,2.1-0.8,2.6-3.2,2c-6.4-1.6-12.7-2.4-19.4-1.8c-9,0.8-17.4,3.5-25,8.3c-10,6.3-17.3,15-21.8,25.9c-1.2,3-2.6,6.1-2.6,9.5
		c0,0.3-0.4,0.9,0.3,0.7c3.4-0.7,6.8-1.5,10.3-1.6c0.1,0,0.3-0.1,0.3-0.1c0.5-1.3,1.6-0.8,2.5-1c4.1-1.1,8.4-1.2,12.5-2
		c0.6,0.4,1,0.5,1.8,0c1.3-0.9,2.1-2.4,3.7-2.7c1.4,0.3,2.9,0.1,4.3-0.2c1.3-0.3,2.7-0.7,4.1-0.5c1.5,0.1,2.4,1.3,3.4,2.2
		c1.3,1.1,2.1,1.2,3.4-0.1c2-2.1,4.2-4,6.3-5.9c0.3,0.7,0.9,0.9,1.6,0.7c4.1-0.9,8.3-1.7,12.4-2.6c2.9,1.4,5.3,3.4,8,5.1
		c1.1,0.7,1.8,0.7,2.8-0.2c2.9-2.5,5.9-4.8,8.8-7.2c2-1.6,4-1.5,5.9,0.4c0.5,0.5,0.9,1,1.4,1.5c2.1,2.3,4,4.9,6.4,6.9
		c2.5,2.8,5.1,5.7,7.6,8.5c0.4,0.5,0.7,1,0.8,1.7c0.3,2.8,0.5,5.6,0.4,8.4c-2.3,0.8-4.6,1.5-6.8,2.4c-2.2,1-4.7,1.4-6.7,3.1
		c-2-0.4-3.3,1.2-5,1.8c-1.3,0-1.4-0.7-1.1-1.8c0.7-2.1,1-4.3,1.3-6.5c0.1-0.6,0.6-1.4-0.4-1.5c-0.9-0.1-1.7,0.3-1.8,1.3
		c-0.1,0.6-0.1,1.3-0.1,1.9c0,0.8-0.2,1.7-1,1.9c-2.1,0.4-4.2,1.4-6.2-0.2c-0.7-0.5-1.4-0.4-2.2,0c-0.9,0.4-1.7,0.8-2.6,1.1
		c-7.7,2.5-15,5.9-22.7,8.2c-1.2,0.4-2.4,0.9-3.5,1.5c-0.8,0.4-1.5,1.1-0.7,1.9c0.9,1,1.7,2,3.2,2.3c4.9,1.1,9.9,1.3,14.8,2.6
		c1.1,0.3,2.1-0.1,3-0.9c2.3-2.1,4.6-4.2,6.8-6.4c1.2-1.2,2.5-2.3,3.8-3.4c1.3-1.1,2.8-1.3,4.4-0.5c0.7,0.4,1.5,0.7,2.2,1.1
		c-0.1,2.1,0.3,2.5,2.4,2.1c2.3-0.5,4.7,0.4,6.9-0.4c0.1,0,0.4,0.2,0.6,0.4c-0.3,0.7-0.9,0.8-1.4,1c-7.9,3.2-15.6,6.5-23.8,8.8
		c-15.3,4.3-30.6,7.9-46.4,9.8c-5.5,0.7-11.1,0.8-16.6,0.7c-0.7-0.4-1-1.2-1.4-1.8c10.9-1.2,21.7-2.2,33.1-3.9
		c-2.4-1.9-4.7-2.6-6.9-3.3c-2.3-0.7-4.6-1.1-6.7-1.6c4.1-1.3,8.4-2.6,12.7-3.9c0.3-0.1,0.8-0.2,0.8-0.7c0-0.6-0.6-0.5-1-0.6
		c-2.8-0.2-5.6-0.3-8.3-0.5c-9.7-0.8-19.4,0.1-29.1,0.5c-1.3,0-1.3,0.7-0.9,1.6c0.7,1.8,1.5,3.6,2.2,5.4c-0.7,0.6-1.6,1-2.5,1.3
		c-2.1-4.1-3.4-8.4-4.5-12.8c-1.3-5.9-1.4-11.9-1.1-18C614,444.6,614.3,442.6,614.6,440.5z M657.3,464.9c1.3,0,2.7,0,4,0
		c0.5,0,1.1,0,1.3-0.6c0.2-0.5-0.3-0.8-0.6-1.1c-2.3-2.1-4.6-4.3-7-6.4c-1.7-1.4-3.3-1.5-5-0.1c-2.9,2.3-5.8,4.7-8.7,7.1
		c-0.3,0.2-0.8,0.4-0.6,0.8c0.2,0.4,0.7,0.5,1.2,0.4C647,464.9,652.1,465.7,657.3,464.9z M691.1,435.8c-4.1,0.5-7.9,2.1-11.9,3.1
		c-2.4,0.6-4.7,1.5-7,2.3c-0.5,0.2-1.2,0.4-1.2,1.1c0,0.6,0.6,0.7,1.1,0.9c1.8,0.8,3.6,1.6,5.4,2.4c0.9,0.4,1.7,0.5,2.6-0.2
		C683.7,442.3,687.6,439.4,691.1,435.8z"/>
	<path class="st28" d="M649.3,434.4c-1.7,0.3-2.5,1.8-3.7,2.7c-0.8,0.5-1.2,0.4-1.8,0c-2.5-2.6-4.9-5.3-7.4-7.9
		c-2.8-3-4.6-3-7.5,0.1c-3.7,3.9-7.4,7.8-11.1,11.8c0-3.4,1.4-6.4,2.6-9.5c4.5-11,11.8-19.6,21.8-25.9c7.6-4.8,16-7.5,25-8.3
		c6.6-0.6,13,0.2,19.4,1.8c2.3,0.6,3,0.1,3.2-2c7.9,2.5,14.8,6.5,20.8,12.2c1.8,1.7,3.5,3.4,5.2,5.2c1.3,1.7,2.5,3.4,3.8,5.1
		c1.4,2,2.6,4.2,3.8,6.4c1.5,2.8,2.5,5.8,3.5,8.7c-0.4,1-1.3,1.4-2,2.4c-0.7-1.9-1.3-3.5-2-5.1c-0.3-0.6-0.4-1.6-1.2-1.5
		c-0.8,0-1,0.9-1.1,1.6c-0.3,1.5-1.2,2.2-2.5,2.4c-2.4-2.1-4.3-4.6-6.4-6.9c-0.5-0.5-0.9-1.1-1.4-1.5c-1.9-1.9-3.8-2-5.9-0.4
		c-3,2.4-5.9,4.7-8.8,7.2c-1,0.8-1.7,0.9-2.8,0.2c-2.7-1.7-5.1-3.7-8-5.1c-1.4-1-2.7-2-4.2-2.9c-2-1.3-3.5-1.2-5.2,0.4
		c-1.6,1.5-3.1,3-4.7,4.5c-2.1,2-4.3,3.8-6.3,5.9c-1.3,1.3-2.1,1.2-3.4,0.1c-1-0.9-1.8-2.1-3.4-2.2c-1-1.8-2.5-2.6-4.5-2.2
		C651.4,431.8,650.4,433.2,649.3,434.4z M654,408.1c-0.3,0.1-0.7,0.2-1.1,0.4c-7.8,2.8-14.3,7.5-19.3,14.2c-0.7,0.9-1.4,1.9-0.2,2.8
		c1.2,1,2,0.1,2.8-0.9c4.6-6.1,10.5-10.5,17.8-13.1c0.4-0.1,0.8-0.3,1.2-0.5c0.7-0.4,0.9-1.1,0.6-1.8
		C655.4,408.4,654.9,408.1,654,408.1z M657.3,418.8c1.2,0,2.2-0.1,3.2-0.3c1.5-0.3,1.7-1.2,1.4-2.4c-0.4-2.1-2.8-3.5-4.8-3
		c-1.8,0.5-2.8,2.2-2.7,4.1C654.6,419.5,656.4,418.5,657.3,418.8z"/>
	<path class="st28" d="M659.2,509.1c-8.6-2-16.5-5.5-23.5-11c-3-2.4-5.8-5.1-8.4-8c9.7,0.1,19.4-1,28.9-2.6
		c4.4-0.7,8.7-1.5,13.1-2.3c6.4,3.5,13.3,4.2,20.4,3.6c3-0.3,6-1.2,9.3-2c-0.8,1.4-1.7,2-2.6,2.7c-2.9,2.5-6.5,3.9-9.9,5.6
		c-7,3.4-13.9,7-21.3,9.4c-1.3,0.4-2.7,0.8-3.2,2.3C660.2,506.3,659.8,507.7,659.2,509.1z"/>
	<path class="st29" d="M669.4,485.3c-4.4,0.8-8.7,1.6-13.1,2.3c-9.6,1.6-19.2,2.7-28.9,2.6c0,0,0,0,0,0c-1.1-1.5-2.3-3-3.4-4.5
		c1-0.4,2.3,0.3,3.2-0.5c5.6,0.1,11.1-0.1,16.6-0.7c15.8-1.9,31.2-5.5,46.4-9.8c8.2-2.3,16-5.6,23.8-8.8c0.5-0.2,1.1-0.3,1.4-1
		c-0.2-0.1-0.5-0.4-0.6-0.4c-2.3,0.8-4.6-0.1-6.9,0.4c-2.1,0.4-2.5,0-2.4-2.1c0.9-0.8,1.9-1.6,2.8-2.4c1.7-0.6,2.9-2.3,5-1.8
		c1.7,0.6,2.8,2,3.7,3.5c1.1,1.8,2.2,1.8,3.8,0.8c1.8-1.1,3.8-1.9,5.8-2.9c0.7-0.4,1.3-0.7,2-1.1c0.5,1.5,0.8,3.2,2.7,3.7
		c0,0,0,0.1,0,0.2c-0.9,0.6-2.2,0.6-2.8,1.7c-1.1,0.3-2.1,0.9-3.1,1.5c-0.3,0-0.5,0.1-0.5,0.4c0,0,0,0,0,0c-1.1,0.3-2.2,0.7-3,1.5
		c-2.5,0.6-4.7,1.9-7,2.8c-7.9,3.1-15.7,6.4-23.8,8.8C683.9,481.6,676.6,483.4,669.4,485.3z"/>
	<path class="st30" d="M545.5,437.3c-3.1-1.7-4.1-4.7-4.6-7.9c-0.3-1.9-1.9-3.7-0.8-5.9c0.6-1.1,1.5-2.3,0.6-3.7
		c-0.1-0.1,0.3-0.7,0.5-0.9c5.3-6.8,14.9-7.8,21.5-2.2c0.8,0.7,1.9,1.2,1.2,2.8c-0.3,0.7,0.6,1.4,0.9,2.2c0.5,1.3,1.6,2.5,0.3,4
		c-0.3,0.4-0.1,1.3-0.1,2c0.1,3.3-1,6.2-3.3,8.6c-0.4,0.4-0.8,1.3-1.6,0.5c-2,0-3.9,0-5.9,0C551.3,436.9,548.4,436.4,545.5,437.3z"
		/>
	<path class="st31" d="M614.6,440.5c-0.3,2.1-0.6,4.1-0.9,6.2c-3.3,1.3-6.2,3.4-9.1,5.4c-5.2,3.6-10,7.5-13.5,13
		c-3.5,5.6-2.7,9.9,2.4,13.9c2.1,1.6,4.7,2.2,6.9,3.5c-0.4,0.8-1.2,0.7-2,0.7c-1.5,0.1-2.8,0.6-3.5,2c-5.2-2.1-9-5.5-10.3-11.1
		c-1.1-4.9,0.7-9.1,3.4-13c5.1-7.4,12.3-12.3,19.8-16.8C610,442.9,612.1,441.4,614.6,440.5z"/>
	<path class="st31" d="M725.4,466c1-0.6,2-1.2,3.1-1.5c-5.5,22.4-19.3,37.1-41.3,43.9c-8.7,2.7-17.6,2.9-26.5,1.2
		c-0.5-0.1-1-0.3-1.4-0.5c0.5-1.3,0.9-2.8,2.9-2.3c0.5,0.1,1,0.3,1.5,0.4c11.1,1.4,21.8-0.1,32-5c6-2.9,11.2-6.8,15.9-11.6
		c5.6-5.9,9.8-12.5,12.4-20.2c0.5-1.3,1.1-2.5,1-3.9c0,0,0,0,0,0C725.1,466.3,725.3,466.1,725.4,466z"/>
	<path class="st30" d="M774.2,472.5c4.7,0,8.8,3.9,8.7,8.5c-0.2,5.2-3.5,8.8-8.7,8.9c-4.8,0.1-8.8-4.1-8.8-8.4
		C765.4,476.3,769.2,472.5,774.2,472.5z"/>
	<path class="st27" d="M731.4,462.7c0-0.1,0-0.2,0-0.2c-1.9-0.5-2.2-2.2-2.7-3.7c0.3-0.3,0.6-0.5,0.9-0.8
		c5.5-2.8,10.6-6.3,15.3-10.4c3.8-3.3,7.2-6.9,8.9-11.8c1,0.1,1.9-0.1,2.8-0.5c0.9-0.4,1.8-0.6,2,0.8c-0.6,3.8-2.5,7-5,9.8
		c-3.5,3.8-7.1,7.5-11.5,10.3C738.6,458.6,735.2,461,731.4,462.7z"/>
	<path class="st31" d="M719.6,419.6c-1.3-1.7-2.5-3.4-3.8-5.1c6.6,0,13.2,0.1,19.7,1.2c5.4,0.9,10.7,2.3,15.5,5c0.4,0.2,1,0.4,1.1,1
		c-0.7,1.3-1.4,2.5-0.5,4c0.2,0.4,0.4,0.7,0.7,1.1c-0.2,0-0.5,0-0.7,0c-2.2-1.2-4.2-2.8-6.6-3.7c-7.8-3.1-16-3.5-24.2-4
		C720.4,419.2,720,419.2,719.6,419.6z"/>
	<path class="st30" d="M594.7,374.5c3.1,0.1,5.7,2.7,5.7,5.7c0,3.3-2.6,5.9-6,5.8c-3.2-0.1-5.7-2.7-5.6-5.9
		C588.8,376.9,591.4,374.4,594.7,374.5z"/>
	<path class="st28" d="M594.9,485.2c0.7-1.4,2-1.9,3.5-2c0.7,0,1.5,0.1,2-0.7c3.1,1,6.3,1.4,9.6,1.9c4.4,0.7,8.9,0.5,13.4,1
		c-2.1,0.1-4.3-0.2-6.2,0.3c-3,0.8-5.8,2.1-8.6,3.2c-1.6-0.1-3.2,0-4.7-0.5c-1.3-0.4-1.9,0.2-2.5,1c-1.4,1.8-2.5,2.1-4.4,1.1
		c-1.7-0.8-2.5-2.3-2.1-4.2C594.8,485.9,595,485.6,594.9,485.2z M597,485.9c1.2,0.9,2.4,1.1,3.5,1.4c0.5,0.1,1.4,0.9,1.6-0.3
		c0.2-1-0.2-1.7-1.4-1.8C599.6,485.1,598.4,485.2,597,485.9z"/>
	<path class="st31" d="M709.7,513.3c0.8,1.9,0.8,3.9,0.8,5.9c0.1,3,0.5,3.4,3.5,3.6c2,0.2,4,0.3,6.1,1c-1.4,0.2-2.8,0.4-4.3,0.6
		c-6,0.7-4.6-0.6-5.3,5.3c-0.2,1.4-0.3,2.8-0.7,4.3c-0.8-2.4-1-5-1.2-7.5c-0.1-1.2-0.3-1.7-1.6-1.8c-2.7-0.2-5.3-0.6-8-1.3
		c2.1-0.2,4.2-0.4,6.2-0.6c0.7-0.1,1.4-0.2,2.1-0.2c1.1-0.1,1.3-0.7,1.3-1.7C708.8,518.4,708.9,515.8,709.7,513.3z"/>
	<path class="st28" d="M751.6,425.8c-0.9-1.5-0.2-2.7,0.5-4c0.2,0,0.4,0,0.6,0c1.6,2.3,4,1.4,6.2,1.8c0.1,1.2,0.1,2.3-0.8,3.2
		c-0.6,0.6-0.3,1.2,0,1.9c0.8,2.5,1.4,5,0.5,7.6c-0.2-1.4-1.1-1.2-2-0.8c-0.9,0.4-1.8,0.6-2.8,0.5c0.9-3.4,0.1-6.4-2.3-9
		c0.2,0,0.5,0,0.7,0c0.9,0.8,2,1.3,3.3,1.1c0.7-0.1,1.6,0,1.6-0.9c0.1-0.8-0.5-1.6-1.3-1.7C754.5,425.2,753,424.8,751.6,425.8z"/>
	<path class="st27" d="M608.4,488.9c2.9-1.1,5.7-2.4,8.6-3.2c2-0.5,4.1-0.2,6.2-0.3c0,0,0.1,0,0.1,0c0.2,0,0.4,0.1,0.6,0.1
		c1.1,1.5,2.3,3,3.4,4.5c-5.1,0.2-10.3,0.1-15.4-0.6C610.8,489.3,609.5,489.7,608.4,488.9z"/>
	<path class="st31" d="M745.3,359.2c-2.4,0.3-4.7,0.7-7.1,0.7c-1.9,0-2.2,1-2.3,2.5c-0.1,2.3-0.4,4.5-0.7,6.8c-1-2.3-0.7-4.7-1-7.1
		c-0.2-1.5-0.6-2.1-2.2-2.1c-2.3-0.1-4.6-0.4-7-1.1c2.1-0.2,4.3-0.6,6.4-0.6c1.8,0,2.8-0.4,2.8-2.5c0-2.3,0.5-4.6,1.1-6.9
		c0.2,2,0.5,4.1,0.6,6.1c0.2,3.1,0.2,3.2,3.2,3.3c2.1,0.1,4.1,0.4,6.2,0.6C745.3,359,745.3,359.1,745.3,359.2z"/>
	<path class="st31" d="M634,388.4c-2.9,4.4-6.2,8.4-9.6,12.4c-0.9,1.1-2.1,1.2-3.1,0.2c-1.1-1.1-0.9-2.2,0.2-3.1
		c3.3-2.7,6.7-5.4,10.1-8c0.7-0.6,1.5-1.1,2.3-1.7C633.9,388.3,633.9,388.4,634,388.4z"/>
	<path class="st31" d="M653.3,524.8c-3.3,4.2-6.5,8.4-9.8,12.6c-1,1.3-2.3,1.4-3.3,0.4c-1-1.1-0.8-2.3,0.2-3.2
		c3.9-3.3,7.8-6.4,11.8-9.6C652.5,524.8,652.9,524.8,653.3,524.8L653.3,524.8z"/>
	<path class="st31" d="M604.2,495.9c-3.1,4-6.2,8-9.3,11.9c-0.8,1-1.9,1.3-3,0.4c-1-0.9-1.1-2.1-0.2-2.9c3.8-3.6,7.9-6.8,12.3-9.6
		C604.1,495.7,604.1,495.8,604.2,495.9z"/>
	<path class="st31" d="M715.5,388.8c-2.9,4.2-6.1,8.2-9.4,12.1c-0.9,1-2,1.1-3,0.2c-1-0.9-1-2.1,0-3c3.8-3.5,7.8-6.7,12.2-9.5
		C715.4,388.6,715.4,388.7,715.5,388.8z"/>
	<path class="st31" d="M775.1,434.9c-2.1,2.7-4,5.2-6,7.7c-0.9,1.2-1.9,2.4-2.9,3.6c-1.1,1.3-2.5,1.5-3.5,0.5
		c-0.9-0.9-0.6-2.5,0.6-3.5c3.5-2.8,7-5.5,10.4-8.3C774.1,434.8,774.3,434.6,775.1,434.9z"/>
	<path class="st29" d="M545.5,437.3c2.9-0.9,5.8-0.3,8.7-0.5c2-0.1,3.9,0,5.9,0c0.3,1-0.7,1.2-1.2,1.6
		C554.8,440.8,549.4,440.4,545.5,437.3z"/>
	<path class="st31" d="M639.5,518.2c-0.7-1.6,0.2-3.5-1-4.5c-1.1-1-2.9,0.2-4.8-0.9c1.6-0.2,2.7-0.5,3.8-0.5c1.3,0,1.6-0.6,1.7-1.8
		c0-1-0.2-2,0.6-3.1c-0.4,3.9,1.3,5.7,5.1,5.5c-0.8,0.1-1.6,0.4-2.3,0.4c-2-0.2-2.5,0.9-2.5,2.6C640,516.6,640.1,517.3,639.5,518.2z
		"/>
	<path class="st31" d="M640.1,356.5c4.5,1.2,5.4-1.3,5.3-4.8c0.7,4.3,0.7,4.3,5.4,5.2c-0.7,0.7-1.5,0.5-2.2,0.4
		c-1.8-0.1-2.7,0.6-2.8,2.5c0,0.9-0.2,1.7-0.4,3.1c-0.7-1.4-0.5-2.3-0.5-3.2c0.1-1.6-0.6-2.2-2-2.3c-0.8-0.1-1.7-0.1-2.5-0.2
		C640.3,357,640.2,356.8,640.1,356.5z"/>
	<path class="st31" d="M738.4,479.6c-1.1,2.4-2.8,4.2-4.4,6.2c-0.5,0.6-0.9,1.4-1.7,1.8c-0.6,0.3-1.1,0.3-1.5-0.2
		c-0.4-0.5-0.7-1-0.1-1.7C733,483.3,735.8,481.6,738.4,479.6z"/>
	<path class="st31" d="M578.5,496.1c-1-1.4,0.2-3.4-1.2-4.2c-1.1-0.7-2.8-0.5-4.3-0.8c0.2-0.1,0.2-0.2,0.3-0.2c1.4-0.2,3-0.1,4-0.8
		c1.2-0.7,0.3-2.5,0.7-3.7c0-0.2,0.2-0.3,0.3-0.5c1,4.5,1,4.5,5.1,5.1c-0.5,0.8-1.4,0.6-2,0.5c-2-0.3-2.7,0.7-2.8,2.5
		C578.6,494.8,578.5,495.5,578.5,496.1z"/>
	<path class="st31" d="M782.2,373.1c-1.5,0.6-3.4-0.5-4.3,0.8c-0.7,1.1-0.6,2.8-0.9,4.6c-0.2-1.8,0.1-3.5-0.9-4.6
		c-1-1.2-2.8-0.3-4.4-1c3.7,0.2,6-1,5.3-5c0.1,0.5,0.3,1.1,0.3,1.6c0.4,3,0.4,3,3.6,3.2C781.4,372.8,781.8,372.7,782.2,373.1z"/>
	<path class="st31" d="M561.2,399.8c3.8,0.6,5.6-0.9,5.2-4.9c0.3,1.5,0,3.2,1,4.2c1,1,2.6,0.6,4.1,0.8c-0.4,0.5-1,0.5-1.5,0.5
		c-3.1,0.3-3.1,0.3-3.3,3.5c0,0.3,0,0.6-0.1,1.2c-0.8-1-0.6-2-0.6-2.8c0-1.3-0.5-1.9-1.8-1.8C563.3,400.5,562.3,400.3,561.2,399.8z"
		/>
	<path class="st31" d="M758.9,423.6c-2.1-0.3-4.6,0.5-6.2-1.8c0.8-1.7,2.4-1.1,3.7-0.9C757.8,421,758.7,422.1,758.9,423.6z"/>
	<path class="st31" d="M753.7,405.1c0.6,1.5,0.6,3.4,3.2,2.9c-1.9,0.4-3.1,1.1-3,3.1c-0.2-1.8-0.8-3.1-3.2-2.5
		C751.6,407.2,754.3,407.8,753.7,405.1z"/>
	<path class="st31" d="M675.2,386.1c-2.1,0-2.9,1-3,3c-0.1-1.9-1-3-3.1-2.7c0.6-1.6,3.9-0.4,2.9-3.4
		C672.3,385,673.3,385.9,675.2,386.1z"/>
	<path class="st31" d="M575.4,452.4c2.3,0.1,2.7-1.4,3.1-3.2c0,2,0.5,3.5,3,3c-1.7,0.6-3.8,0.4-2.9,3.3
		C578,453.8,577.6,452.2,575.4,452.4z"/>
	<path class="st31" d="M720.9,373.2c-0.2-2-0.7-3.3-3.1-3.3c2.4,0.4,2.8-1.1,2.8-3.3c1,3,1,3,3.1,3.3
		C721.8,370.1,720.5,370.9,720.9,373.2z"/>
	<path class="st31" d="M775.7,433.9c0,0-0.1-0.1-0.1-0.1c0-0.1,0.1-0.1,0.1-0.2c0.1,0.1,0.1,0.1,0.2,0.2
		C775.8,433.8,775.8,433.9,775.7,433.9z"/>
	<path class="st31" d="M715.3,388.6c0.1,0,0.2,0,0.3-0.1c0,0.1-0.1,0.2-0.1,0.3C715.4,388.7,715.4,388.6,715.3,388.6z"/>
	<path class="st31" d="M634.3,388c-0.1,0.1-0.2,0.3-0.3,0.4c-0.1-0.1-0.1-0.1-0.2-0.2c0.1-0.1,0.3-0.2,0.4-0.3L634.3,388z"/>
	<polygon class="st31" points="605.3,494.7 605.3,494.6 605.3,494.6 	"/>
	<path class="st31" d="M604.9,495c-0.1,0.1-0.2,0.3-0.3,0.4c-0.1-0.1-0.1-0.1-0.2-0.2C604.6,495.2,604.7,495.1,604.9,495
		C604.9,495,604.9,495,604.9,495z"/>
	<path class="st31" d="M604.6,495.5c-0.1,0.1-0.2,0.3-0.3,0.4c-0.1-0.1-0.1-0.1-0.2-0.2c0.1-0.1,0.3-0.2,0.4-0.4
		C604.5,495.4,604.5,495.4,604.6,495.5z"/>
	<path class="st31" d="M634.2,387.9c0,0,0.1-0.1,0.1-0.1c0,0,0.1,0.1,0.1,0.1c0,0.1-0.1,0.1-0.1,0.1
		C634.3,388,634.2,387.9,634.2,387.9z"/>
	<path class="st31" d="M653.3,524.7c0,0,0.1-0.1,0.1-0.1c0,0,0,0,0.1,0.1C653.4,524.7,653.4,524.8,653.3,524.7
		C653.3,524.8,653.3,524.7,653.3,524.7z"/>
	<path class="st31" d="M605.3,494.6c-0.1,0.1-0.2,0.3-0.4,0.4c0,0,0,0,0,0C605,494.9,605.2,494.8,605.3,494.6
		C605.3,494.7,605.3,494.6,605.3,494.6z"/>
	<path class="st32" d="M623.4,485.5c0,0-0.1,0-0.1,0c-4.4-0.5-8.9-0.3-13.4-1c-3.2-0.5-6.4-0.9-9.6-1.9c-2.2-1.3-4.8-1.9-6.9-3.5
		c-5.1-4-6-8.3-2.4-13.9c3.4-5.4,8.3-9.4,13.5-13c2.9-2,5.8-4.1,9.1-5.4c-0.3,6-0.2,12,1.1,18c1,4.4,2.4,8.8,4.5,12.8
		c0.6,1.2,1.2,2.4,1.8,3.6C621.7,482.6,623,483.8,623.4,485.5z"/>
	<path class="st29" d="M621.7,476.2c-0.7-1.8-1.5-3.6-2.2-5.4c-0.4-0.9-0.4-1.6,0.9-1.6c9.7-0.3,19.4-1.3,29.1-0.5
		c2.8,0.2,5.6,0.3,8.3,0.5c0.4,0,1-0.1,1,0.6c0,0.5-0.5,0.6-0.8,0.7c-4.3,1.3-8.6,2.7-12.7,3.9c2.1,0.5,4.4,0.9,6.7,1.6
		c2.2,0.7,4.5,1.4,6.9,3.3c-11.3,1.7-22.2,2.7-33.1,3.9C624.2,481.1,623.1,478.6,621.7,476.2z"/>
	<path class="st28" d="M708.4,460.4c-0.9,0.8-1.9,1.6-2.8,2.4c-0.7-0.4-1.5-0.7-2.2-1.1c-1.6-0.8-3.1-0.6-4.4,0.5
		c-1.3,1.1-2.6,2.2-3.8,3.4c-2.2,2.2-4.5,4.3-6.8,6.4c-0.9,0.8-1.9,1.2-3,0.9c-4.9-1.3-9.9-1.5-14.8-2.6c-1.4-0.3-2.3-1.3-3.2-2.3
		c-0.8-0.9-0.1-1.6,0.7-1.9c1.1-0.6,2.3-1.1,3.5-1.5c7.7-2.3,15-5.7,22.7-8.2c0.9-0.3,1.8-0.7,2.6-1.1c0.7-0.3,1.5-0.5,2.2,0
		c2,1.6,4.1,0.7,6.2,0.2c0.8-0.2,1-1,1-1.9c0-0.6,0-1.3,0.1-1.9c0.2-1,1-1.4,1.8-1.3c1,0.1,0.5,1,0.4,1.5c-0.3,2.2-0.6,4.4-1.3,6.5
		C707,459.7,707.1,460.4,708.4,460.4z"/>
	<path class="st29" d="M617.9,441c3.7-3.9,7.4-7.8,11.1-11.8c2.9-3,4.6-3.1,7.5-0.1c2.5,2.6,4.9,5.3,7.4,7.9
		c-4.1,0.8-8.4,0.8-12.5,2c-0.9,0.2-2-0.2-2.5,1c0,0.1-0.2,0.1-0.3,0.1c-3.5,0.1-6.9,0.9-10.3,1.6
		C617.4,441.9,617.9,441.3,617.9,441z"/>
	<path class="st29" d="M657.3,464.9c-5.1,0.7-10.3-0.1-15.5,0.2c-0.5,0-1,0-1.2-0.4c-0.2-0.5,0.3-0.6,0.6-0.8
		c2.9-2.4,5.8-4.8,8.7-7.1c1.7-1.4,3.4-1.3,5,0.1c2.4,2.1,4.7,4.2,7,6.4c0.3,0.3,0.8,0.6,0.6,1.1c-0.2,0.6-0.8,0.5-1.3,0.6
		C659.9,465,658.6,464.9,657.3,464.9z"/>
	<path class="st31" d="M729.6,458.1c-0.3,0.3-0.6,0.5-0.9,0.8c-0.7,0.4-1.3,0.7-2,1.1c-0.3-2.3,0.6-4.6,0.1-6.9
		c0.2-2.8-0.1-5.6-0.4-8.4c-0.1-0.7-0.3-1.2-0.8-1.7c-2.6-2.8-5.1-5.7-7.6-8.5c1.4-0.3,2.3-1,2.5-2.4c0.1-0.6,0.3-1.6,1.1-1.6
		c0.8,0,0.9,0.9,1.2,1.5c0.7,1.6,1.3,3.2,2,5.1c0.7-1.1,1.7-1.5,2-2.4c0.7,1.1,0.9,2.4,1.2,3.6C729.7,444.8,730.2,451.4,729.6,458.1
		z"/>
	<path class="st28" d="M691.1,435.8c-3.4,3.6-7.3,6.5-11,9.6c-0.9,0.7-1.7,0.7-2.6,0.2c-1.8-0.8-3.6-1.6-5.4-2.4
		c-0.5-0.2-1.1-0.3-1.1-0.9c0-0.7,0.7-0.9,1.2-1.1c2.3-0.8,4.7-1.6,7-2.3C683.1,437.9,687,436.3,691.1,435.8z"/>
	<path class="st28" d="M726.8,453c0.4,2.3-0.5,4.6-0.1,6.9c-1.9,0.9-3.9,1.8-5.8,2.9c-1.7,1-2.8,0.9-3.8-0.8c-0.9-1.4-2-2.8-3.7-3.5
		c1.9-1.7,4.4-2.1,6.7-3.1C722.3,454.5,724.6,453.8,726.8,453z"/>
	<path class="st29" d="M670.8,429.8c1.6-1.5,3.1-3,4.7-4.5c1.7-1.6,3.2-1.7,5.2-0.4c1.4,0.9,2.8,2,4.2,2.9
		c-4.1,0.9-8.3,1.7-12.4,2.6C671.7,430.7,671.1,430.5,670.8,429.8z"/>
	<path class="st28" d="M621.7,476.2c1.4,2.4,2.5,4.9,4.2,7c0.3,0.7,0.7,1.4,1.4,1.8c-1,0.9-2.2,0.1-3.2,0.5c-0.2,0-0.4-0.1-0.6-0.1
		c-0.4-1.7-1.7-2.9-2.4-4.4c-0.6-1.2-1.2-2.4-1.8-3.6C620.1,477.2,621,476.8,621.7,476.2z"/>
	<path class="st29" d="M649.3,434.4c1.1-1.2,2.2-2.6,3.9-2.9c2-0.4,3.6,0.3,4.5,2.2c-1.4-0.1-2.8,0.2-4.1,0.5
		C652.1,434.5,650.7,434.7,649.3,434.4z"/>
	<path class="st32" d="M729.6,458.1c0.6-6.7,0.1-13.3-1.5-19.8c-0.3-1.2-0.5-2.5-1.2-3.6c-1.1-3-2-5.9-3.5-8.7
		c-1.2-2.2-2.4-4.3-3.8-6.4c0.3-0.4,0.8-0.4,1.2-0.4c8.2,0.5,16.4,0.9,24.2,4c2.4,0.9,4.3,2.5,6.6,3.7c2.3,2.6,3.2,5.6,2.3,9
		c-1.7,4.9-5.1,8.5-8.9,11.8C740.2,451.8,735.1,455.2,729.6,458.1z"/>
	<path class="st29" d="M654,408.1c0.9,0,1.5,0.3,1.7,1c0.3,0.8,0,1.4-0.6,1.8c-0.4,0.2-0.8,0.4-1.2,0.5c-7.3,2.6-13.1,7-17.8,13.1
		c-0.8,1-1.6,1.9-2.8,0.9c-1.2-0.9-0.5-1.9,0.2-2.8c5-6.6,11.4-11.4,19.3-14.2C653.2,408.3,653.7,408.2,654,408.1z"/>
	<path class="st27" d="M657.3,418.8c-1-0.2-2.7,0.7-2.9-1.5c-0.2-1.9,0.9-3.6,2.7-4.1c2-0.5,4.4,0.9,4.8,3c0.3,1.2,0,2.1-1.4,2.4
		C659.5,418.7,658.5,418.8,657.3,418.8z"/>
	<path class="st27" d="M723.9,470.3c-2.6,7.7-6.8,14.3-12.4,20.2c-4.6,4.9-9.9,8.7-15.9,11.6c-10.1,4.9-20.8,6.4-32,5
		c-0.5-0.1-1-0.3-1.5-0.4c0.5-1.6,2-1.9,3.2-2.3c7.4-2.4,14.3-6,21.3-9.4c3.4-1.6,6.9-3.1,9.9-5.6c0.9-0.7,1.8-1.4,2.6-2.7
		c-3.4,0.8-6.3,1.8-9.3,2c-7.1,0.6-14,0-20.4-3.6c7.3-1.8,14.5-3.6,21.7-5.7c8.2-2.4,16-5.7,23.8-8.8c2.3-0.9,4.5-2.2,7-2.8
		C722.9,468.5,723.4,469.4,723.9,470.3z"/>
	<path class="st28" d="M723.9,470.3c-0.5-0.9-1-1.8-1.9-2.4c0.8-0.9,1.9-1.2,3-1.5C725,467.8,724.4,469.1,723.9,470.3z"/>
	<path class="st28" d="M725.4,466c-0.2,0.1-0.3,0.3-0.5,0.4C724.9,466.1,725.2,466,725.4,466z"/>
	<path class="st27" d="M751.6,425.8c1.4-1,2.9-0.6,4.3-0.3c0.7,0.1,1.3,0.9,1.3,1.7c-0.1,0.9-1,0.8-1.6,0.9
		c-1.3,0.1-2.3-0.3-3.3-1.1C752.1,426.5,751.8,426.1,751.6,425.8z"/>
	<path class="st27" d="M597,485.9c1.3-0.6,2.5-0.7,3.7-0.7c1.2,0,1.6,0.8,1.4,1.8c-0.2,1.2-1.1,0.5-1.6,0.3
		C599.4,487,598.2,486.7,597,485.9z"/>
</g>
<linearGradient id="SVGID_7_" gradientUnits="userSpaceOnUse" x1="670.7966" y1="442.5975" x2="777.0938" y2="442.5975">
	<stop  offset="0" style="stop-color:#D0D2D3"/>
	<stop  offset="1" style="stop-color:#FFFFFF"/>
</linearGradient>
<path class="st33" d="M699,636.5l-0.1-6.7h39.2v5c12.7-0.4,26.5,1.2,39,2.7l-0.2-392.6H670.8v395.5
	C684.2,638.2,686.8,637.5,699,636.5z M698.9,258.4h39.2v40h-39.2V258.4z M698.9,353.8h39.2v40h-39.2V353.8z M698.9,443.2h39.2v40
	h-39.2V443.2z M698.9,536.5h39.2v40h-39.2V536.5z"/>
<g>
	<g class="st34">
		<g>
			<path class="st22" d="M617.1,15l48.1,79.6c1.5,2.6,0.7,5.9-2,7.3h0c-2.7,1.5-6,0.4-7.3-2.4L617.1,15z"/>
			<circle class="st22" cx="660.5" cy="97.1" r="4.2"/>
		</g>
		<g>
			<path class="st22" d="M597,37l23.9,39.5c0.8,1.3,0.3,2.9-1,3.6l0,0c-1.3,0.7-3,0.2-3.6-1.2L597,37z"/>
			<circle class="st22" cx="618.5" cy="77.8" r="2.1"/>
		</g>
		<g>
			<path class="st22" d="M658.7,13.9l32.2,53.2c1,1.7,0.4,3.9-1.3,4.9l0,0c-1.8,1-4,0.2-4.9-1.6L658.7,13.9z"/>
			<circle class="st22" cx="687.8" cy="68.9" r="2.8"/>
		</g>
	</g>
	<path class="st35" d="M457.9,151.1c-0.2-0.4-0.4-0.9-0.4-1.4c0-1.3,0.9-2.4,2.2-2.7c-0.2-0.6-0.3-1.3-0.3-2c0-4,3.2-7.2,7.2-7.2
		c1,0,2,0.2,2.9,0.6c-0.2-1-0.3-2-0.3-3c0-7.9,6.4-14.3,14.3-14.3c1.9,0,3.7,0.4,5.3,1c3.3-4.1,8.3-6.7,13.9-6.7
		c1.3,0,2.5,0.1,3.7,0.4c2.9-9.9,12-17.2,22.9-17.2c13.2,0,23.8,10.7,23.8,23.8c0,1.7-0.2,3.4-0.5,5.1c1.5-0.6,3.1-1,4.8-1
		c6.6,0,12,5.4,12,12c0,1.1-0.2,2.2-0.4,3.2c2.1,0.5,3.6,2.4,3.6,4.6c0,0.8-0.2,1.6-0.6,2.3l26.1,6.5H442.2L457.9,151.1z"/>
</g>
</svg>
