<svg xmlns="http://www.w3.org/2000/svg" xmlns:xlink="http://www.w3.org/1999/xlink" viewBox="0 0 457.73 318.95"><defs><style>.cls-1{fill:url(#linear-gradient);}.cls-2,.cls-4{fill:#fff;}.cls-2,.cls-3,.cls-31,.cls-5,.cls-6,.cls-7,.cls-8{opacity:0.35;}.cls-3{fill:#d1d3d4;}.cls-5{fill:url(#linear-gradient-2);}.cls-6{fill:url(#linear-gradient-3);}.cls-7{fill:url(#linear-gradient-4);}.cls-8{fill:url(#linear-gradient-5);}.cls-9{fill:#111434;}.cls-10{fill:none;stroke:#111434;stroke-miterlimit:10;stroke-width:0.5px;}.cls-11{fill:#f5cd89;}.cls-12{fill:#bb8d6a;}.cls-13{fill:#c5a076;}.cls-14{fill:#695553;}.cls-15{fill:#e74547;}.cls-16{fill:#1c4271;}.cls-17{fill:#414142;}.cls-18{fill:#595a5c;}.cls-19{fill:#808184;}.cls-20{fill:#6e6f71;}.cls-21{fill:#1795c4;}.cls-22{fill:#030303;}.cls-23{fill:#121434;}.cls-24{fill:#204184;}.cls-25{fill:#8f6aae;}.cls-26{fill:#72459b;}.cls-27{fill:#cab6d8;}.cls-28{fill:#e3a038;}.cls-29{fill:#242361;}.cls-30{fill:#101235;}.cls-31{fill:url(#linear-gradient-6);}</style><linearGradient id="linear-gradient" x1="1.47" y1="968.24" x2="457.73" y2="968.24" gradientTransform="translate(0 -809.77)" gradientUnits="userSpaceOnUse"><stop offset="0" stop-color="#2bb673"/><stop offset="1" stop-color="#00a79d"/></linearGradient><linearGradient id="linear-gradient-2" x1="302.27" y1="147.73" x2="354.25" y2="147.73" gradientTransform="translate(0)" gradientUnits="userSpaceOnUse"><stop offset="0" stop-color="#d1d3d4"/><stop offset="1" stop-color="#fff"/></linearGradient><linearGradient id="linear-gradient-3" x1="320" y1="120.96" x2="336.52" y2="120.96" xlink:href="#linear-gradient-2"/><linearGradient id="linear-gradient-4" x1="327.53" y1="94.61" x2="328.99" y2="94.61" xlink:href="#linear-gradient-2"/><linearGradient id="linear-gradient-5" x1="-1033.89" y1="222.28" x2="-935.8" y2="222.28" gradientTransform="matrix(-1, 0, 0, 1, -656.33, 0)" xlink:href="#linear-gradient-2"/><linearGradient id="linear-gradient-6" x1="237.52" y1="174.68" x2="279.47" y2="174.68" gradientTransform="matrix(1, 0, 0, 1, 0, 0)" xlink:href="#linear-gradient-2"/></defs><title>Asset 1</title><g id="Layer_2" data-name="Layer 2"><g id="Layer_1-2" data-name="Layer 1"><path class="cls-1" d="M149,0s33.8,31.68,10.5,75.39c-7.47,14-19.69,24.84-34.12,31.49C110,114,86.54,130.24,85.2,163.52l0,2.31C84,174.15,82.87,185,45.26,194a59.59,59.59,0,0,0-35.5,24.13c-10.14,15-12.21,46.93.78,71.78,30.08,57.54,121,7.16,142.24-5.67a77.69,77.69,0,0,1,13-6.29c24.63-9.15,88.63-50.2,159.09-11.93,94,51,118.76-25.32,108.35-47.78-10.49-22.65-87.11-101.62-8.29-156,0,0,15.77-10.59,32.78-8.9V0Z"/><path class="cls-2" d="M140.32,149.94V291.61l39.64-18V149.94Zm25.13,121.49H150.81V256.78h14.64Zm0-34.18H150.81V222.6h14.64Zm0-32.74H150.81V189.86h14.64Zm0-35H150.81V154.9h14.64Z"/><rect class="cls-2" x="146.21" y="140.39" width="22.4" height="9.56"/><rect class="cls-2" x="146.21" y="128.47" width="22.4" height="9.76"/><rect class="cls-3" x="146.21" y="138.23" width="22.4" height="2.15"/><path class="cls-2" d="M68.25,178.05,67.84,319l59.57-9.87v-131Zm42.14,41.64H115v8.05h-4.6ZM91.33,249.53v-8h4.59v8Zm1,14.11v8h-4.6v-8Zm1.12,0H98v8h-4.6Zm3.45-14.11v-8h4.6v8Zm2.38,14.11h4.59v8H99.24Zm3.24-14.11v-8h4.6v8Zm2.3,14.11h4.59v8h-4.59Zm3.57-14.11v-8H113v8Zm2,14.11H115v8h-4.6Zm4.24-14.11v-8h4.6v8Zm-9.85-29.84h4.59v8.05h-4.59Zm-5.54,0h4.59v8.05H99.24Zm-5.83,0H98v8.05h-4.6Zm-5.72,0h4.6v8.05h-4.6Zm-7.91,21.8h4.59v8H79.78Zm4.93,55H80.12v-8h4.59Zm.79-55h4.59v8H85.5Zm4.93,55H85.84v-8h4.59Zm5.83,0H91.67v-8h4.59Zm5.54,0H97.21v-8h4.59Zm5.62,0h-4.6v-8h4.6Zm5.87,0h-4.6v-8h4.6Zm6.28,0H115v-8h4.6Zm1.29-24.84h-4.59v-8h4.59Zm0-43.94h-4.59v-8.05h4.59Zm6.28,43.94h-4.59v-8h4.59Zm0-43.94h-4.59v-8.05h4.59Z"/><circle class="cls-4" cx="364.94" cy="102.01" r="13.51"/><rect class="cls-5" x="302.27" y="134.73" width="51.97" height="25.99"/><rect class="cls-6" x="320" y="107.18" width="16.51" height="27.56"/><rect class="cls-7" x="327.53" y="82.04" width="1.46" height="25.14"/><path class="cls-8" d="M377.56,283.83V160.73H279.5l0,90.86c17,2.13,31.83,7.61,52.85,19A115.74,115.74,0,0,0,377.56,283.83ZM311.75,197H299.36V184.56h12.39Zm0,29.56H299.36V214.13h12.39Zm0,27.69H299.36V241.81h12.39Z"/><path class="cls-9" d="M423.62,169.13s6.43-19.62-16.37-27.45c0,0-10-15.13-24.89-5.08,0,0-11.63.25-11.17,13.91,0,0-14,15,1.92,28.16L398,187.19S420.37,178,423.62,169.13Z"/><path class="cls-10" d="M405.24,135.42s-9.56-10.7-20-3.53"/><path class="cls-10" d="M368.83,151.07s-11.84,5.18-6.31,16.61"/><path class="cls-10" d="M420.58,147.22s14.6,20,.89,28.26"/><path class="cls-11" d="M394.66,178.05a14.65,14.65,0,0,0,.6,5C392.68,182,392.39,180.18,394.66,178.05Z"/><path class="cls-12" d="M379.94,158.06l-.43,20c-.15,7,5.85,12.85,13.4,13s13.8-5.4,13.95-12.42l.27-12.21a7.73,7.73,0,0,0-7.55-7.89S380.13,158.1,379.94,158.06Z"/><path class="cls-12" d="M404.63,172.26a3.26,3.26,0,0,1,2.38-.95,2.92,2.92,0,1,1-.13,5.83,3.23,3.23,0,0,1-2.33-1.06Z"/><path class="cls-13" d="M400.72,176.92c0,1.13-2,2-4.46,1.94s-4.39-1-4.37-2.13,2-2,4.46-1.94S400.75,175.8,400.72,176.92Z"/><path class="cls-13" d="M380.31,175.14a3.58,3.58,0,0,0-.74.06l-.06,2.85c0,.13,0,.25,0,.37a4.18,4.18,0,0,0,.72.08c1.47,0,2.69-.69,2.71-1.62S381.79,175.17,380.31,175.14Z"/><polygon class="cls-14" points="384.49 176.56 388.05 176.63 388.2 169.53 387.04 169.5 384.49 176.56"/><path class="cls-15" d="M387.87,185.22a2.67,2.67,0,0,0,2.72-2.62l-5.34-.11A2.67,2.67,0,0,0,387.87,185.22Z"/><ellipse class="cls-16" cx="382.95" cy="171.4" rx="0.99" ry="2.01"/><ellipse class="cls-16" cx="393.75" cy="171.4" rx="0.99" ry="2.01"/><path class="cls-17" d="M378.75,178.78s3.62-1.95,17.5.37c9,1.5,9.26-13.11,2.45-13.72-3.53-.32-15.69,4.35-26.22,6.29Z"/><path class="cls-18" d="M391.42,169.15l7.28,8s-18.64-.81-21.63-.14l-3.37-1.4Z"/><path class="cls-18" d="M396.21,164.7l3.85,2.82s2.73,2.12-1.36,9.65l-8.32-4.59,1.06-8Z"/><path class="cls-17" d="M374.65,164.55h21a1.05,1.05,0,0,1,1,.83,14.63,14.63,0,0,1-1,8.92,4.18,4.18,0,0,1-1.82,1.06s-19.95.61-20.14.27C373.16,174.61,370.37,167.36,374.65,164.55Z"/><path class="cls-17" d="M395.3,174.09l4.22,2.52s-.45.58-.82.56l-4-2.23A5.06,5.06,0,0,0,395.3,174.09Z"/><path class="cls-19" d="M394.69,174.94l4,2.23s-.78,0-1.25,0l-3.78-1.76A4.71,4.71,0,0,0,394.69,174.94Z"/><path class="cls-20" d="M398.7,168.54a19.74,19.74,0,0,1,10.18,2.11l-.33,1.95a16.38,16.38,0,0,1-.19,2.1s.2-.57-9.58-1.88Z"/><polygon class="cls-17" points="407.25 170.11 404.9 169.51 405.43 174.03 407.87 174.71 407.25 170.11"/><polygon class="cls-12" points="297.88 221.47 293.85 220.83 288.18 214.73 284.92 222.85 295.68 226.42 297.88 221.47"/><polygon class="cls-12" points="427.58 274.28 428.05 278.48 423.53 285.84 432.55 286.84 433.13 275.11 427.58 274.28"/><path class="cls-15" d="M421.18,206.26A17.4,17.4,0,0,0,408,197.78l-7-.74H387.39l-9.13.94a31.63,31.63,0,0,0-13.2,4.46l-31.32,19.13a10,10,0,0,1-6.07,1.41l-32.77-3-.83,7.64,35.59,6.18a10,10,0,0,0,6.21-.94l33.61-17.17.11,3.45a22.85,22.85,0,0,1-2.11,4.26,9.79,9.79,0,0,0,2.15,13.29l.51.39,7,46.42s24.93,3,40.11-13.13l-.89-6.22A91.17,91.17,0,0,1,415.08,240l1.52-18.71,10.82,16.86a8.54,8.54,0,0,1,1.33,5.18l-2.26,33.29,7.65.66,5.43-36a8.53,8.53,0,0,0-1.08-5.59Z"/><polygon class="cls-12" points="388.82 197.04 390.5 187.21 397.34 187.21 399.69 197.04 394.26 202.88 388.82 197.04"/><polygon class="cls-12" points="388.82 197.04 392.56 216.56 399.69 197.04 394.26 202.88 388.82 197.04"/><path class="cls-4" d="M61.15,190.37l8.77,13.16,9.25-13a.15.15,0,0,1,.27.07c.43,5.13,6.68,60.54-9.73,126.32l-5.07.69a40.82,40.82,0,0,1-7.89.32l-4.34-.24s20.1-59.58,8.67-127.27C61.07,190.35,61.13,190.33,61.15,190.37Z"/><path class="cls-21" d="M53.43,317.71C32.13,316.56,23,305,23,305c11.44-25,3.9-69.58,3.9-69.58l-9.19,18.9,2.66,37L9.25,295.75.67,260.32a23.72,23.72,0,0,1,2.26-17l20-36.37a15.43,15.43,0,0,1,9-7.32l28.57-8.77a.47.47,0,0,1,.57.33C63.81,198.37,72.35,255.45,53.43,317.71Z"/><path class="cls-21" d="M69.71,316.89C84.63,236.89,80,196,79.36,191.2a.32.32,0,0,1,.41-.35l50.89,16.29a14.84,14.84,0,0,0,7.82.33l29.1-6.72,4.83,10.41c-23.11,10.64-38.34,14.79-45,12.47s-26.58-4.5-26.58-4.5C90,277,96.48,310,96.48,310,83.37,314.07,81.38,315,69.71,316.89Z"/><polygon class="cls-12" points="61.03 190.88 64.2 179.95 76.56 179.97 79.36 191.2 69.8 204.04 61.03 190.88"/><path class="cls-11" d="M68.69,171.38a20.72,20.72,0,0,1-.85,7C71.44,176.9,71.86,174.35,68.69,171.38Z"/><path class="cls-12" d="M89.24,143.48l.6,27.91c.21,9.8-8.17,17.93-18.71,18.15S51.86,182,51.65,172.21l-.37-17.05a10.78,10.78,0,0,1,10.54-11S89,143.53,89.24,143.48Z"/><polygon class="cls-14" points="82.89 169.3 77.91 169.41 77.7 159.49 79.32 159.45 82.89 169.3"/><path class="cls-15" d="M78,182.89a3.72,3.72,0,0,1-3.81-3.65l7.46-.16A3.72,3.72,0,0,1,78,182.89Z"/><ellipse class="cls-4" cx="85.04" cy="162.1" rx="1.38" ry="2.8"/><ellipse class="cls-4" cx="69.95" cy="162.1" rx="1.38" ry="2.8"/><ellipse class="cls-22" cx="70.19" cy="162.19" rx="0.74" ry="1.5"/><ellipse class="cls-22" cx="85.04" cy="162.19" rx="0.74" ry="1.5"/><path class="cls-23" d="M51.65,172.21s2-10.28,7.63-11.69l1.4-13s20.05.94,25.73-1.88l.8,8.87,2.3,1.73,1-16.79s-2.28-9.17-7.63-10.29c0,0-4.24-1.94-12.06-1.94,0,0-10.61-.66-13.53,5.77,0,0-6,1.31-7.63,8.62C49.67,141.66,41.8,152.79,51.65,172.21Z"/><path class="cls-17" d="M89.8,169.48s-5.15-2.77-24.87.52c-12.74,2.13-13.16-18.62-3.48-19.49,5-.45,22.29,6.18,37.25,8.94Z"/><path class="cls-18" d="M71.79,155.8,61.45,167.19S87.93,166,92.18,167L97,165Z"/><path class="cls-18" d="M65,149.48l-5.47,4s-3.87,3,1.93,13.7l11.82-6.52-1.51-11.38Z"/><path class="cls-17" d="M95.61,149.26H65.76a1.51,1.51,0,0,0-1.46,1.19,20.82,20.82,0,0,0,1.46,12.67,6,6,0,0,0,2.59,1.5s28.36.87,28.62.38C97.74,163.55,101.71,153.25,95.61,149.26Z"/><path class="cls-17" d="M66.28,162.81l-6,3.59s.64.82,1.16.79l5.7-3.17A7.22,7.22,0,0,1,66.28,162.81Z"/><path class="cls-19" d="M67.15,164l-5.7,3.17s1.11,0,1.78-.07l5.36-2.5A6.9,6.9,0,0,1,67.15,164Z"/><path class="cls-20" d="M61.45,154.92s-7.85-.7-14.47,3l.48,2.76a23.6,23.6,0,0,0,.27,3s-.28-.82,13.61-2.68Z"/><polygon class="cls-17" points="49.3 157.17 52.64 156.31 51.88 162.73 48.43 163.69 49.3 157.17"/><path class="cls-12" d="M54.76,163.3A4.55,4.55,0,0,0,51.45,162a4.08,4.08,0,1,0,.17,8.14,4.48,4.48,0,0,0,3.25-1.48Z"/><polygon class="cls-12" points="168.26 202.21 172.55 201.53 181.8 191.59 187.11 204.82 171.84 209.89 168.26 202.21"/><polygon class="cls-12" points="18.41 292.14 18.71 296.45 27.79 306.55 14.13 310.66 10.45 295.28 18.41 292.14"/><path d="M61,191.17c1.63,5.08,14.59,49.9-7.53,126.54l-5-.47s21-68.78,8.63-125.38l3.21-1A.52.52,0,0,1,61,191.17Z"/><path d="M69.71,316.89s14.89-73.3,9.52-126.2L84.3,192s7.91,33.75-9.89,124.11Z"/><path class="cls-24" d="M158.55,201.21l6.83,14.63s5.87-.11,8-3.06l-6.59-13.94A11.51,11.51,0,0,0,158.55,201.21Z"/><path class="cls-24" d="M20.78,286.65,5.87,290.57s-.59,5.79,1.9,8.39l14.53-3.82A14.79,14.79,0,0,0,20.78,286.65Z"/><path class="cls-25" d="M215.33,173.87a23.31,23.31,0,0,1,3.54-8.31A22.93,22.93,0,0,1,245,156.74c-.07.85-.33,1-1.25.8a22.56,22.56,0,0,0-7.64-.71,21.79,21.79,0,0,0-18.45,13.5,10.13,10.13,0,0,0-1,3.74c0,.11-.18.35.12.29a23,23,0,0,1,4.05-.61s.12,0,.13-.06c.19-.49.64-.3,1-.4,1.62-.45,3.3-.46,4.93-.77a.53.53,0,0,0,.7,0c.5-.34.82-1,1.47-1.06a4,4,0,0,0,1.69-.09,5.23,5.23,0,0,1,1.62-.21c.61,0,.94.52,1.33.87s.85.49,1.35,0c.78-.83,1.66-1.57,2.5-2.34a.51.51,0,0,0,.63.28l4.89-1a34.15,34.15,0,0,1,3.14,2,.81.81,0,0,0,1.12-.07c1.14-1,2.31-1.91,3.48-2.85a1.54,1.54,0,0,1,2.31.15c.19.2.37.41.55.61a30,30,0,0,0,2.54,2.74q1.5,1.68,3,3.35a1.13,1.13,0,0,1,.31.67,19,19,0,0,1,.14,3.29c-.89.32-1.8.59-2.67,1a9.2,9.2,0,0,0-2.63,1.2c-.8-.17-1.31.48-2,.73-.52,0-.57-.28-.42-.7a12.45,12.45,0,0,0,.51-2.57c0-.22.25-.54-.16-.6a.61.61,0,0,0-.73.49,6.27,6.27,0,0,0,0,.75c0,.32-.07.67-.4.74-.81.17-1.64.53-2.44-.09a.79.79,0,0,0-.86,0c-.34.14-.68.3-1,.42-3,1-5.91,2.34-9,3.23a8.76,8.76,0,0,0-1.38.58c-.31.15-.58.41-.26.77a2.38,2.38,0,0,0,1.24.9c1.93.42,3.92.51,5.83,1a1.2,1.2,0,0,0,1.18-.34c.88-.85,1.81-1.66,2.67-2.53a16.18,16.18,0,0,1,1.52-1.34,1.49,1.49,0,0,1,1.75-.2c.29.15.58.28.88.42,0,.83.14,1,1,.82s1.83.15,2.73-.15c.06,0,.16.09.24.14-.14.26-.37.3-.57.38a94.69,94.69,0,0,1-9.41,3.48,120.79,120.79,0,0,1-18.32,3.86,48.09,48.09,0,0,1-6.57.29,1.71,1.71,0,0,1-.53-.73c4.29-.46,8.58-.87,13.05-1.55a7.94,7.94,0,0,0-2.72-1.31c-.89-.29-1.83-.45-2.65-.64l5-1.56c.14,0,.33-.08.32-.26s-.24-.22-.4-.23c-1.1-.06-2.2-.1-3.3-.19a95.43,95.43,0,0,0-11.47.19c-.51,0-.51.26-.36.63.3.72.59,1.43.88,2.15a3,3,0,0,1-1,.51,22.08,22.08,0,0,1-1.76-5.07,25.56,25.56,0,0,1-.44-7.09Zm16.85,9.64h1.58c.2,0,.43,0,.51-.21s-.11-.32-.24-.43c-.92-.84-1.82-1.7-2.76-2.51a1.39,1.39,0,0,0-2,0c-1.16.91-2.29,1.86-3.43,2.79-.11.09-.32.15-.24.33s.27.18.46.17C228.11,183.47,230.15,183.79,232.18,183.51ZM245.52,172a32.7,32.7,0,0,0-4.69,1.24c-.93.25-1.85.58-2.78.89-.19.07-.46.14-.46.42s.24.29.42.37c.71.31,1.42.63,2.12,1a.86.86,0,0,0,1-.1A55.39,55.39,0,0,0,245.52,172Z"/><path class="cls-26" d="M229,171.46c-.65.11-1,.72-1.47,1.06a.53.53,0,0,1-.7,0c-1-1-1.93-2.09-2.91-3.12-1.11-1.18-1.81-1.17-2.94,0l-4.37,4.64a10.13,10.13,0,0,1,1-3.74,21.79,21.79,0,0,1,18.45-13.5,22.56,22.56,0,0,1,7.64.71c.92.23,1.18.05,1.25-.8a21.12,21.12,0,0,1,8.23,4.83c.71.66,1.39,1.35,2.07,2,.5.67,1,1.33,1.49,2a23.8,23.8,0,0,1,1.49,2.52,25.12,25.12,0,0,1,1.39,3.45c-.14.39-.53.55-.8,1-.29-.75-.53-1.39-.8-2-.1-.24-.14-.61-.46-.61s-.4.38-.44.63a1.13,1.13,0,0,1-1,1,30,30,0,0,1-2.54-2.74c-.18-.2-.36-.41-.55-.61a1.54,1.54,0,0,0-2.31-.15c-1.17.94-2.34,1.87-3.48,2.85a.81.81,0,0,1-1.12.07,34.15,34.15,0,0,0-3.14-2c-.54-.38-1.08-.78-1.64-1.15a1.42,1.42,0,0,0-2,.14c-.63.57-1.24,1.17-1.85,1.76-.84.77-1.72,1.51-2.5,2.34-.5.53-.85.49-1.35,0s-.72-.84-1.33-.87a1.54,1.54,0,0,0-1.78-.86A3.18,3.18,0,0,0,229,171.46Zm1.85-10.4-.45.15a16.23,16.23,0,0,0-7.61,5.6c-.26.35-.55.74-.08,1.1s.79.05,1.09-.35a14.88,14.88,0,0,1,7-5.16,1.89,1.89,0,0,0,.48-.21.56.56,0,0,0,.24-.71C231.46,161.17,231.23,161.06,230.87,161.06Zm1.33,4.22a5.6,5.6,0,0,0,1.26-.1c.58-.11.67-.46.56-.93a1.62,1.62,0,0,0-1.9-1.18,1.48,1.48,0,0,0-1.05,1.61C231.14,165.56,231.82,165.19,232.2,165.28Z"/><path class="cls-26" d="M233,200.92a23,23,0,0,1-9.29-4.34,24,24,0,0,1-3.3-3.15,66.24,66.24,0,0,0,11.42-1c1.72-.28,3.44-.59,5.16-.89a13.93,13.93,0,0,0,8.07,1.41,23,23,0,0,0,3.69-.81,4.13,4.13,0,0,1-1,1.08,18,18,0,0,1-3.9,2.19,67.14,67.14,0,0,1-8.41,3.72c-.49.16-1.07.3-1.27.92C233.32,199.82,233.16,200.4,233,200.92Z"/><path class="cls-27" d="M237,191.52c-1.73.3-3.45.61-5.17.89a66.24,66.24,0,0,1-11.42,1h0L219,191.66c.41-.16.89.13,1.27-.21a48.09,48.09,0,0,0,6.57-.29,120.79,120.79,0,0,0,18.32-3.86,94.69,94.69,0,0,0,9.41-3.48c.2-.08.43-.12.57-.38-.08-.05-.18-.16-.24-.14-.9.3-1.83-.05-2.73.15s-1,0-1-.82l1.1-.93c.66-.25,1.17-.9,2-.73a3.07,3.07,0,0,1,1.45,1.37c.43.69.86.71,1.52.32s1.52-.76,2.28-1.13l.78-.43c.19.6.31,1.26,1.05,1.46,0,0,0,0,0,.07-.37.24-.89.23-1.12.69a4.39,4.39,0,0,0-1.23.6c-.1,0-.19,0-.2.17h0a2.39,2.39,0,0,0-1.17.6,19,19,0,0,0-2.78,1.11c-3.11,1.23-6.19,2.53-9.41,3.47C242.68,190.09,239.82,190.8,237,191.52Z"/><path class="cls-28" d="M188.08,172.58a4.06,4.06,0,0,1-1.83-3.1c-.14-.76-.74-1.46-.3-2.33.22-.43.6-.9.23-1.47,0-.05.1-.26.19-.37a5.85,5.85,0,0,1,8.48-.87c.31.27.75.48.47,1.09-.12.26.26.57.37.87.2.5.65,1,.13,1.57-.13.16,0,.53,0,.81a4.59,4.59,0,0,1-1.32,3.4c-.15.15-.3.52-.63.21-.77,0-1.55,0-2.32,0A12.79,12.79,0,0,0,188.08,172.58Z"/><path class="cls-29" d="M215.33,173.87c-.12.81-.25,1.62-.37,2.43a18.64,18.64,0,0,0-3.6,2.13,18.25,18.25,0,0,0-5.31,5.12c-1.4,2.2-1.08,3.9.95,5.48a23.24,23.24,0,0,0,2.72,1.39c-.17.32-.49.27-.77.28a1.53,1.53,0,0,0-1.39.8,6.09,6.09,0,0,1-4.06-4.36,6.35,6.35,0,0,1,1.34-5.15c2-2.92,4.86-4.84,7.8-6.64A15,15,0,0,1,215.33,173.87Z"/><path class="cls-29" d="M259.08,183.92a4.39,4.39,0,0,1,1.23-.6c-2.19,8.83-7.62,14.64-16.32,17.31a21.42,21.42,0,0,1-10.46.48,3.81,3.81,0,0,1-.57-.19c.2-.52.36-1.1,1.14-.89a3.8,3.8,0,0,0,.58.15,22.13,22.13,0,0,0,12.62-2,22.27,22.27,0,0,0,11.16-12.56,3.8,3.8,0,0,0,.41-1.55h0Z"/><path class="cls-28" d="M278.31,186.47a3.44,3.44,0,0,1,0,6.88,3.44,3.44,0,1,1,0-6.88Z"/><path class="cls-25" d="M261.43,182.63s0-.07,0-.07c-.74-.2-.86-.86-1.05-1.46l.36-.31a30.63,30.63,0,0,0,6-4.09,11.05,11.05,0,0,0,3.51-4.65,2.16,2.16,0,0,0,1.09-.2c.34-.14.71-.22.78.33a7.35,7.35,0,0,1-2,3.87,23.55,23.55,0,0,1-4.52,4.06A36.72,36.72,0,0,1,261.43,182.63Z"/><path class="cls-29" d="M256.79,165.61l-1.49-2a44.09,44.09,0,0,1,7.78.49,18.13,18.13,0,0,1,6.11,2c.17.09.38.14.43.38-.28.5-.54,1-.2,1.57l.26.44h-.29A27.34,27.34,0,0,0,266.8,167a30.31,30.31,0,0,0-9.53-1.57A.54.54,0,0,0,256.79,165.61Z"/><path class="cls-28" d="M207.48,147.79a2.31,2.31,0,0,1,2.24,2.26,2.28,2.28,0,0,1-2.35,2.3,2.28,2.28,0,1,1,.11-4.56Z"/><path class="cls-26" d="M207.56,191.5a1.53,1.53,0,0,1,1.39-.8c.28,0,.6,0,.77-.28a25.69,25.69,0,0,0,3.77.76c1.75.3,3.52.22,5.28.42a11.13,11.13,0,0,0-2.46.11A32.46,32.46,0,0,0,212.9,193a9.18,9.18,0,0,1-1.84-.2.8.8,0,0,0-1,.38,1.19,1.19,0,0,1-1.75.45,1.39,1.39,0,0,1-.81-1.66C207.54,191.79,207.62,191.66,207.56,191.5Zm.85.26a4,4,0,0,0,1.37.57c.21,0,.56.34.64-.14a.53.53,0,0,0-.55-.7A2.93,2.93,0,0,0,208.41,191.76Z"/><path class="cls-29" d="M252.87,202.58a6.24,6.24,0,0,1,.33,2.34c0,1.18.2,1.35,1.37,1.44a10.08,10.08,0,0,1,2.39.38l-1.67.22c-2.36.3-1.82-.24-2.12,2.1a14,14,0,0,1-.27,1.68,12.34,12.34,0,0,1-.46-3c0-.47-.13-.66-.63-.7a16.61,16.61,0,0,1-3.16-.5l2.46-.23.81-.1c.42,0,.5-.28.53-.66A13,13,0,0,1,252.87,202.58Z"/><path class="cls-26" d="M269.42,168c-.34-.57-.08-1.07.2-1.57h.23c.62.89,1.59.56,2.43.69a1.49,1.49,0,0,1-.33,1.27c-.25.25-.1.48,0,.75a4.72,4.72,0,0,1,.22,3c-.07-.55-.44-.47-.78-.33a2.16,2.16,0,0,1-1.09.2,3.6,3.6,0,0,0-.89-3.56h.29a1.58,1.58,0,0,0,1.29.44c.27,0,.62,0,.65-.35a.63.63,0,0,0-.5-.66A2.06,2.06,0,0,0,269.42,168Z"/><path class="cls-25" d="M212.9,193a32.46,32.46,0,0,1,3.41-1.26,11.13,11.13,0,0,1,2.46-.11h0l.23.06,1.34,1.77a33.16,33.16,0,0,1-6.06-.25C213.85,193.11,213.33,193.29,212.9,193Z"/><path class="cls-29" d="M266.93,141.78c-.92.1-1.85.27-2.78.29-.74,0-.87.4-.91,1-.05.89-.14,1.77-.28,2.67a9.21,9.21,0,0,1-.4-2.8c-.08-.6-.24-.82-.85-.85a10.68,10.68,0,0,1-2.76-.45c.84-.08,1.68-.21,2.52-.22s1.1-.15,1.1-1a11.38,11.38,0,0,1,.42-2.74c.08.81.19,1.61.24,2.42.08,1.23.09,1.24,1.28,1.31.81,0,1.62.17,2.43.26Z"/><path class="cls-29" d="M223,153.31a49.63,49.63,0,0,1-3.8,4.89.77.77,0,0,1-1.24.07.73.73,0,0,1,.08-1.22c1.31-1.07,2.64-2.12,4-3.18.29-.23.6-.43.91-.65Z"/><path class="cls-29" d="M230.62,207.13c-1.29,1.65-2.58,3.31-3.88,5-.42.52-.92.57-1.29.17a.8.8,0,0,1,.08-1.26c1.53-1.28,3.09-2.53,4.64-3.78a1,1,0,0,1,.43-.11Z"/><path class="cls-29" d="M211.24,195.72c-1.22,1.56-2.44,3.14-3.68,4.69a.75.75,0,0,1-1.18.14.73.73,0,0,1-.09-1.13,34.85,34.85,0,0,1,4.86-3.79Z"/><path class="cls-29" d="M255.17,153.43c-1.15,1.67-2.41,3.25-3.71,4.8a.76.76,0,0,1-1.19.08.75.75,0,0,1,0-1.19,36.58,36.58,0,0,1,4.83-3.76Z"/><path class="cls-29" d="M278.67,171.65l-2.36,3c-.37.48-.74,1-1.13,1.41s-1,.59-1.36.21a.94.94,0,0,1,.25-1.37q2.06-1.63,4.12-3.26C278.28,171.61,278.37,171.52,278.67,171.65Z"/><path class="cls-27" d="M188.08,172.58a12.79,12.79,0,0,1,3.44-.18c.77,0,1.55,0,2.32,0,.11.41-.26.48-.48.61A4.61,4.61,0,0,1,188.08,172.58Z"/><path class="cls-29" d="M225.18,204.53c-.27-.65.08-1.38-.39-1.79s-1.16.06-1.9-.36a15,15,0,0,1,1.49-.22c.49,0,.65-.24.66-.7a1.9,1.9,0,0,1,.23-1.21c-.15,1.55.51,2.25,2,2.18a3.34,3.34,0,0,1-.92.15c-.79-.06-1,.35-1,1A1.29,1.29,0,0,1,225.18,204.53Z"/><path class="cls-29" d="M225.39,140.72c1.76.46,2.13-.5,2.08-1.89.27,1.72.27,1.72,2.13,2a.94.94,0,0,1-.85.17c-.71,0-1.08.24-1.1,1,0,.34-.07.67-.14,1.23a2,2,0,0,1-.18-1.26c0-.62-.25-.86-.81-.9l-1-.08Z"/><path class="cls-29" d="M264.21,189.28a13,13,0,0,1-1.73,2.46,2.1,2.1,0,0,1-.67.69c-.23.11-.43.14-.59-.09s-.29-.41-.06-.66A22.85,22.85,0,0,1,264.21,189.28Z"/><path class="cls-29" d="M201.08,195.82c-.41-.55.07-1.34-.48-1.68a5,5,0,0,0-1.69-.31c.07-.05.09-.07.11-.07a4.51,4.51,0,0,0,1.6-.3c.46-.29.13-1,.26-1.48a1.3,1.3,0,0,1,.13-.19c.41,1.79.41,1.79,2,2-.21.32-.54.24-.81.2-.8-.12-1.08.28-1.09,1C201.12,195.28,201.1,195.55,201.08,195.82Z"/><path class="cls-29" d="M281.47,147.27c-.59.23-1.34-.18-1.68.32a5.11,5.11,0,0,0-.35,1.82c-.1-.73,0-1.38-.35-1.81s-1.1-.12-1.72-.38c1.45.07,2.35-.39,2.1-2,0,.21.11.43.14.64.16,1.19.16,1.18,1.4,1.25C281.15,147.13,281.31,147.08,281.47,147.27Z"/><path class="cls-29" d="M194.27,157.81c1.5.23,2.21-.37,2.06-1.95.13.61,0,1.26.39,1.66s1,.24,1.61.3a.79.79,0,0,1-.6.21c-1.21.12-1.21.12-1.29,1.37,0,.12,0,.25,0,.49a1.57,1.57,0,0,1-.23-1.11c0-.5-.2-.76-.71-.73A2.81,2.81,0,0,1,194.27,157.81Z"/><path class="cls-29" d="M272.28,167.17c-.84-.13-1.81.2-2.43-.69.33-.69,1-.42,1.45-.37A1.11,1.11,0,0,1,272.28,167.17Z"/><path class="cls-29" d="M270.22,159.89c.25.59.22,1.36,1.25,1.14-.75.14-1.24.41-1.2,1.22-.1-.71-.32-1.22-1.26-1C269.42,160.71,270.49,160.93,270.22,159.89Z"/><path class="cls-29" d="M239.25,152.39c-.82,0-1.15.39-1.18,1.17,0-.77-.4-1.18-1.22-1.08.24-.64,1.54-.15,1.16-1.34A1.26,1.26,0,0,0,239.25,152.39Z"/><path class="cls-29" d="M199.85,178.54c.92,0,1.05-.56,1.22-1.26,0,.79.18,1.37,1.18,1.19-.67.23-1.49.17-1.15,1.3C200.89,179.09,200.75,178.48,199.85,178.54Z"/><path class="cls-29" d="M257.27,147.28c-.08-.78-.27-1.31-1.2-1.32,1,.14,1.12-.42,1.1-1.31.39,1.2.39,1.2,1.22,1.32C257.64,146.05,257.15,146.37,257.27,147.28Z"/><path class="cls-29" d="M278.92,171.25s0,0,0,0,0,0,0-.06l.07.07Z"/><path class="cls-29" d="M255.09,153.36l.11,0,0,.1Z"/><path class="cls-29" d="M223.13,153.14c0,.05-.09.11-.14.17l-.08-.09.16-.13Z"/><polygon class="cls-29" points="211.66 195.24 211.69 195.2 211.66 195.23 211.66 195.24"/><path class="cls-29" d="M211.51,195.39l-.14.16-.06-.06.19-.11Z"/><path class="cls-29" d="M211.37,195.55l-.13.17-.09-.09.16-.14Z"/><path class="cls-29" d="M223.07,153.09l.06-.05s0,0,0,0,0,0,0,.06Z"/><path class="cls-29" d="M230.6,207.1l0,0,0,0,0,0Z"/><path class="cls-29" d="M211.65,195.23l-.14.16h0l.16-.14Z"/><path class="cls-30" d="M218.81,191.6h0c-1.76-.2-3.53-.12-5.28-.42a25.69,25.69,0,0,1-3.77-.76A23.24,23.24,0,0,1,207,189c-2-1.58-2.35-3.28-.95-5.48a18.25,18.25,0,0,1,5.31-5.12,18.64,18.64,0,0,1,3.6-2.13,25.56,25.56,0,0,0,.44,7.09,22.08,22.08,0,0,0,1.76,5.07c.24.46.48.93.7,1.4A8.4,8.4,0,0,1,218.81,191.6Z"/><path class="cls-27" d="M218.14,188c-.29-.72-.58-1.43-.88-2.15-.15-.37-.15-.61.36-.63a95.43,95.43,0,0,1,11.47-.19c1.1.09,2.2.13,3.3.19.16,0,.39,0,.4.23s-.18.22-.32.26l-5,1.56c.82.19,1.76.35,2.65.64a7.94,7.94,0,0,1,2.72,1.31c-4.47.68-8.76,1.09-13.05,1.55A22.66,22.66,0,0,1,218.14,188Z"/><path class="cls-26" d="M252.36,181.7l-1.1.93c-.3-.14-.59-.27-.88-.42a1.49,1.49,0,0,0-1.75.2,16.18,16.18,0,0,0-1.52,1.34c-.86.87-1.79,1.68-2.67,2.53a1.2,1.2,0,0,1-1.18.34c-1.91-.5-3.9-.59-5.83-1a2.38,2.38,0,0,1-1.24-.9c-.32-.36-.05-.62.26-.77a8.76,8.76,0,0,1,1.38-.58c3-.89,5.94-2.25,9-3.23.36-.12.7-.28,1-.42a.79.79,0,0,1,.86,0c.8.62,1.63.26,2.44.09.33-.07.4-.42.4-.74a6.27,6.27,0,0,1,0-.75.61.61,0,0,1,.73-.49c.41.06.19.38.16.6a12.45,12.45,0,0,1-.51,2.57C251.79,181.42,251.84,181.7,252.36,181.7Z"/><path class="cls-27" d="M216.63,174.07l4.37-4.64c1.13-1.2,1.83-1.21,2.94,0,1,1,1.94,2.08,2.91,3.12-1.63.31-3.31.32-4.93.77-.35.1-.8-.09-1,.4,0,0-.08.06-.13.06a23,23,0,0,0-4.05.61C216.45,174.42,216.64,174.18,216.63,174.07Z"/><path class="cls-27" d="M232.18,183.51c-2,.28-4.07,0-6.1.08-.19,0-.38,0-.46-.17s.13-.24.24-.33c1.14-.93,2.27-1.88,3.43-2.79a1.39,1.39,0,0,1,2,0c.94.81,1.84,1.67,2.76,2.51.13.11.31.23.24.43s-.31.21-.51.21Z"/><path class="cls-29" d="M260.72,180.79l-.36.31-.78.43c-.13-.91.22-1.81.05-2.73a19,19,0,0,0-.14-3.29,1.13,1.13,0,0,0-.31-.67q-1.51-1.67-3-3.35a1.13,1.13,0,0,0,1-1c0-.25.13-.62.44-.63s.36.37.46.61c.27.64.51,1.28.8,2,.27-.41.66-.57.8-1a4.67,4.67,0,0,1,.46,1.41A23.29,23.29,0,0,1,260.72,180.79Z"/><path class="cls-26" d="M245.52,172a55.39,55.39,0,0,1-4.36,3.78.86.86,0,0,1-1,.1c-.7-.33-1.41-.65-2.12-1-.18-.08-.41-.12-.42-.37s.27-.35.46-.42c.93-.31,1.85-.64,2.78-.89A32.7,32.7,0,0,1,245.52,172Z"/><path class="cls-26" d="M259.63,178.8c.17.92-.18,1.82-.05,2.73-.76.37-1.55.7-2.28,1.13s-1.09.37-1.52-.32a3.07,3.07,0,0,0-1.45-1.37,9.2,9.2,0,0,1,2.63-1.2C257.83,179.39,258.74,179.12,259.63,178.8Z"/><path class="cls-27" d="M237.51,169.65c.61-.59,1.22-1.19,1.85-1.76a1.42,1.42,0,0,1,2-.14c.56.37,1.1.77,1.64,1.15l-4.89,1A.51.51,0,0,1,237.51,169.65Z"/><path class="cls-26" d="M218.14,188a22.66,22.66,0,0,0,1.64,2.77,1.71,1.71,0,0,0,.53.73c-.38.34-.86.05-1.27.21l-.23-.06a8.4,8.4,0,0,0-.95-1.74c-.22-.47-.46-.94-.7-1.4A3,3,0,0,0,218.14,188Z"/><path class="cls-27" d="M229,171.46a3.18,3.18,0,0,1,1.53-1.16,1.54,1.54,0,0,1,1.78.86,5.23,5.23,0,0,0-1.62.21A4,4,0,0,1,229,171.46Z"/><path class="cls-30" d="M260.72,180.79a23.29,23.29,0,0,0-.59-7.8,4.67,4.67,0,0,0-.46-1.41,25.12,25.12,0,0,0-1.39-3.45,23.8,23.8,0,0,0-1.49-2.52.54.54,0,0,1,.48-.15A30.31,30.31,0,0,1,266.8,167a27.34,27.34,0,0,1,2.59,1.46,3.6,3.6,0,0,1,.89,3.56,11.05,11.05,0,0,1-3.51,4.65A30.63,30.63,0,0,1,260.72,180.79Z"/><path class="cls-27" d="M230.87,161.06c.36,0,.59.11.69.42a.56.56,0,0,1-.24.71,1.89,1.89,0,0,1-.48.21,14.88,14.88,0,0,0-7,5.16c-.3.4-.61.73-1.09.35s-.18-.75.08-1.1a16.23,16.23,0,0,1,7.61-5.6Z"/><path class="cls-25" d="M232.2,165.28c-.38-.09-1.06.28-1.13-.6a1.48,1.48,0,0,1,1.05-1.61,1.62,1.62,0,0,1,1.9,1.18c.11.47,0,.82-.56.93A5.6,5.6,0,0,1,232.2,165.28Z"/><path class="cls-25" d="M258.46,185.63a22.27,22.27,0,0,1-11.16,12.56,22.13,22.13,0,0,1-12.62,2,3.8,3.8,0,0,1-.58-.15c.2-.62.78-.76,1.27-.92a67.14,67.14,0,0,0,8.41-3.72,18,18,0,0,0,3.9-2.19,4.13,4.13,0,0,0,1-1.08,23,23,0,0,1-3.69.81,13.93,13.93,0,0,1-8.07-1.41c2.87-.72,5.73-1.43,8.56-2.26,3.22-.94,6.3-2.24,9.41-3.47a19,19,0,0,1,2.78-1.11A2.35,2.35,0,0,1,258.46,185.63Z"/><path class="cls-26" d="M258.46,185.63a2.35,2.35,0,0,0-.76-.95,2.39,2.39,0,0,1,1.17-.6A3.8,3.8,0,0,1,258.46,185.63Z"/><path class="cls-26" d="M259.08,183.92l-.2.17C258.89,184,259,183.93,259.08,183.92Z"/><path class="cls-25" d="M269.42,168a2.06,2.06,0,0,1,1.7-.13.63.63,0,0,1,.5.66c0,.35-.38.32-.65.35a1.58,1.58,0,0,1-1.29-.44C269.59,168.33,269.5,168.19,269.42,168Z"/><path class="cls-25" d="M208.41,191.76a2.93,2.93,0,0,1,1.46-.27.53.53,0,0,1,.55.7c-.08.48-.43.19-.64.14A4,4,0,0,1,208.41,191.76Z"/><path class="cls-31" d="M248.65,251.21l-.05-2.63h15.48v2a112.83,112.83,0,0,1,15.39,1.05l-.06-154.95H237.52V252.73C242.82,251.89,243.82,251.61,248.65,251.21ZM248.6,102h15.48v15.78H248.6Zm0,37.67h15.48v15.78H248.6Zm0,35.28h15.48v15.78H248.6Zm0,36.82h15.48v15.79H248.6Z"/></g></g></svg>