<?xml version="1.0" encoding="utf-8"?>
<!-- Generator: Adobe Illustrator 22.0.1, SVG Export Plug-In . SVG Version: 6.00 Build 0)  -->
<svg version="1.1" id="Layer_1" xmlns="http://www.w3.org/2000/svg" xmlns:xlink="http://www.w3.org/1999/xlink" x="0px" y="0px"
	 viewBox="0 0 792 612" style="enable-background:new 0 0 792 612;" xml:space="preserve">
<style type="text/css">
	.st0{fill:url(#SVGID_1_);}
	.st1{fill:#15AF87;}
	.st2{opacity:0.5;}
	.st3{fill:#FFFFFF;}
	.st4{opacity:0.35;fill:#FFFFFF;}
	.st5{opacity:0.35;fill:#D0D2D3;}
	.st6{fill:none;stroke:#E74448;stroke-miterlimit:10;}
	.st7{fill:none;}
	.st8{fill:url(#SVGID_2_);}
	.st9{opacity:0.35;fill:url(#SVGID_3_);}
	.st10{opacity:0.35;fill:url(#SVGID_4_);}
	.st11{opacity:0.35;fill:url(#SVGID_5_);}
	.st12{opacity:0.35;fill:url(#SVGID_6_);}
	.st13{fill:#111434;}
	.st14{fill:none;stroke:#111434;stroke-width:0.5;stroke-miterlimit:10;}
	.st15{fill:#F4CC87;}
	.st16{fill:#BA8C6B;}
	.st17{fill:#C39E76;}
	.st18{fill:#695654;}
	.st19{fill:#E74448;}
	.st20{fill:#1C4372;}
	.st21{fill:#424242;}
	.st22{fill:#5A5A5D;}
	.st23{fill:#808083;}
	.st24{fill:#6E7071;}
	.st25{fill:#1995C3;}
	.st26{fill:#030303;}
	.st27{fill:#121534;}
	.st28{fill:#224283;}
	.st29{fill:#8E6AAE;}
	.st30{fill:#72469C;}
	.st31{fill:#CAB6D7;}
	.st32{fill:#E3A039;}
	.st33{fill:#28245F;}
	.st34{fill:#121436;}
	.st35{opacity:0.35;fill:url(#SVGID_7_);}
	.st36{opacity:0.5;fill:#FFFFFF;}
</style>
<linearGradient id="SVGID_1_" gradientUnits="userSpaceOnUse" x1="23.3706" y1="269.8276" x2="791.9041" y2="269.8276">
	<stop  offset="0" style="stop-color:#29B574"/>
	<stop  offset="1" style="stop-color:#00A79C"/>
</linearGradient>
<path class="st0" d="M230.3,0l5.7,4c8.6,6.2,16.4,13.4,23.1,21.6l2.2,2.7c0,0,54.8,51.3,16.7,122.1c-11.9,22.2-31.1,39.6-54,50
	c-24.9,11.3-63.5,37.5-65.7,91.7l0,3.7c-1.9,13.4-3.7,30.9-64.4,45.5c-23.2,5.6-43.9,19.2-57.3,38.9C20.4,404.5,17,456,38,496.1
	c48.5,92.8,195.2,11.5,229.4-9.1c6.7-4,13.7-7.4,21-10.1c39.7-14.8,143-81,256.6-19.3c151.6,82.3,191.6-40.8,174.8-77.1
	c-16.9-36.5-140.5-163.9-13.4-251.6c0,0,36.9-25.9,85.4-21.4V28.4V0H230.3z"/>
<path class="st1" d="M121.4,128.8c-11.1-6.5-18.3-18.3-18.3-31.2c0-12.9,7.2-28.9,37.9-37.9c0,0,25.3-11,68,0
	c43,11.1,53.8,69.7,47.2,92.2c-6.6,22.2-44.7,46.1-74.6,5.4c-0.5-0.7-1-1.5-1.5-2.3c-2.3-3.6-13.3-18.1-43.6-21.3
	c-4.6-0.5-9.2-1.8-13.3-4C122.6,129.5,122,129.2,121.4,128.8z"/>
<g class="st2">
	<g>
		<path class="st3" d="M196.4,72.7l-30.6,50.7c-1,1.6-0.4,3.7,1.3,4.7l0,0c1.7,0.9,3.8,0.2,4.6-1.5L196.4,72.7z"/>
		<circle class="st3" cx="168.7" cy="125" r="2.6"/>
	</g>
	<g>
		<path class="st3" d="M209.2,86.8L194,111.9c-0.5,0.8-0.2,1.9,0.6,2.3l0,0c0.8,0.5,1.9,0.1,2.3-0.8L209.2,86.8z"/>
		<circle class="st3" cx="195.5" cy="112.7" r="1.3"/>
	</g>
	<g>
		<path class="st3" d="M169.9,72.1l-20.5,33.9c-0.7,1.1-0.3,2.5,0.8,3.1l0,0c1.1,0.6,2.6,0.2,3.1-1L169.9,72.1z"/>
		<circle class="st3" cx="151.4" cy="107" r="1.8"/>
	</g>
</g>
<g>
	<path class="st4" d="M247.3,270.3v228.5l63.9-29V270.3H247.3z M287.9,466.2h-23.6v-23.6h23.6V466.2z M287.9,411.1h-23.6v-23.6h23.6
		V411.1z M287.9,358.3h-23.6v-23.6h23.6V358.3z M287.9,301.9h-23.6v-23.6h23.6V301.9z"/>
	<rect x="256.8" y="254.9" class="st4" width="36.1" height="15.4"/>
	<rect x="256.8" y="235.6" class="st4" width="36.1" height="15.8"/>
	<rect x="256.8" y="251.4" class="st5" width="36.1" height="3.5"/>
</g>
<path class="st4" d="M131.1,315.6l-0.7,227.3l96.1-15.9V315.6H131.1z M199.1,382.8h7.4v13h-7.4V382.8z M168.3,430.9v-13h7.4v13
	H168.3z M169.9,453.7v13h-7.4v-13H169.9z M171.7,453.7h7.4v13h-7.4V453.7z M177.2,430.9v-13h7.4v13H177.2z M181.1,453.7h7.4v13h-7.4
	V453.7z M186.3,430.9v-13h7.4v13H186.3z M190,453.7h7.4v13H190V453.7z M195.8,430.9v-13h7.4v13H195.8z M199.1,453.7h7.4v13h-7.4
	V453.7z M205.9,430.9v-13h7.4v13H205.9z M190,382.8h7.4v13H190V382.8z M181.1,382.8h7.4v13h-7.4V382.8z M171.7,382.8h7.4v13h-7.4
	V382.8z M162.4,382.8h7.4v13h-7.4V382.8z M149.7,418h7.4v13h-7.4V418z M157.6,506.7h-7.4v-13h7.4V506.7z M158.9,418h7.4v13h-7.4V418
	z M166.9,506.7h-7.4v-13h7.4V506.7z M176.3,506.7h-7.4v-13h7.4V506.7z M185.2,506.7h-7.4v-13h7.4V506.7z M194.3,506.7h-7.4v-13h7.4
	V506.7z M203.7,506.7h-7.4v-13h7.4V506.7z M213.9,506.7h-7.4v-13h7.4V506.7z M216,466.6h-7.4v-13h7.4V466.6z M216,395.8h-7.4v-13
	h7.4V395.8z M226.1,466.6h-7.4v-13h7.4V466.6z M226.1,395.8h-7.4v-13h7.4V395.8z"/>
<path class="st6" d="M597.4,426.2"/>
<path class="st7" d="M130.2,336.8"/>
<circle class="st3" cx="609.7" cy="193" r="21.8"/>
<linearGradient id="SVGID_2_" gradientUnits="userSpaceOnUse" x1="708.4066" y1="181.0274" x2="751.983" y2="181.0274">
	<stop  offset="0" style="stop-color:#29B574"/>
	<stop  offset="1" style="stop-color:#00A79C"/>
</linearGradient>
<circle class="st8" cx="730.2" cy="181" r="21.8"/>
<g>
	
		<linearGradient id="SVGID_3_" gradientUnits="userSpaceOnUse" x1="508.5809" y1="266.7138" x2="592.4136" y2="266.7138" gradientTransform="matrix(1 0 0 1 3.237860e-05 0)">
		<stop  offset="0" style="stop-color:#D0D2D3"/>
		<stop  offset="1" style="stop-color:#FFFFFF"/>
	</linearGradient>
	<rect x="508.6" y="245.7" class="st9" width="83.8" height="41.9"/>
	
		<linearGradient id="SVGID_4_" gradientUnits="userSpaceOnUse" x1="537.178" y1="223.5243" x2="563.8165" y2="223.5243" gradientTransform="matrix(1 0 0 1 3.237860e-05 0)">
		<stop  offset="0" style="stop-color:#D0D2D3"/>
		<stop  offset="1" style="stop-color:#FFFFFF"/>
	</linearGradient>
	<rect x="537.2" y="201.3" class="st10" width="26.6" height="44.4"/>
	
		<linearGradient id="SVGID_5_" gradientUnits="userSpaceOnUse" x1="549.322" y1="181.0274" x2="551.6725" y2="181.0274" gradientTransform="matrix(1 0 0 1 3.237860e-05 0)">
		<stop  offset="0" style="stop-color:#D0D2D3"/>
		<stop  offset="1" style="stop-color:#FFFFFF"/>
	</linearGradient>
	<rect x="549.3" y="160.8" class="st11" width="2.4" height="40.5"/>
	
		<linearGradient id="SVGID_6_" gradientUnits="userSpaceOnUse" x1="-941.6577" y1="386.9647" x2="-783.4341" y2="386.9647" gradientTransform="matrix(-1 0 0 1 -311.6369 0)">
		<stop  offset="0" style="stop-color:#D0D2D3"/>
		<stop  offset="1" style="stop-color:#FFFFFF"/>
	</linearGradient>
	<path class="st12" d="M630,486.3V287.7H471.8l-0.1,146.6c27.4,3.4,51.3,12.3,85.3,30.7C581.9,478.4,610,485,630,486.3z
		 M523.9,346.1h-20v-20h20V346.1z M523.9,393.8h-20v-20h20V393.8z M523.9,438.5h-20v-20h20V438.5z"/>
</g>
<g>
	<g>
		<path class="st13" d="M704.3,301.2c0,0,10.4-31.6-26.4-44.3c0,0-16.1-24.4-40.1-8.2c0,0-18.8,0.4-18,22.4c0,0-22.5,24.1,3.1,45.4
			l40.2,13.8C663,330.4,699.1,315.6,704.3,301.2z"/>
		<path class="st14" d="M674.7,246.9c0,0-15.4-17.3-32.2-5.7"/>
		<path class="st14" d="M615.9,272.1c0,0-19.1,8.4-10.2,26.8"/>
		<path class="st14" d="M699.4,265.9c0,0,23.6,32.3,1.4,45.6"/>
		<g>
			<path class="st15" d="M657.6,315.6c-0.2,3,0.3,5.5,1,8.1C654.4,322,653.9,319,657.6,315.6z"/>
			<path class="st16" d="M633.9,283.4l-0.7,32.2c-0.2,11.3,9.4,20.7,21.6,21c12.2,0.3,22.3-8.7,22.5-20l0.4-19.7
				c0.1-6.9-5.3-12.6-12.2-12.7C665.5,284.2,634.2,283.4,633.9,283.4z"/>
			<path class="st16" d="M673.7,306.3c0.9-1,2.3-1.6,3.8-1.5c2.8,0.1,5,2.2,5,4.8c-0.1,2.6-2.4,4.7-5.2,4.6c-1.5,0-2.9-0.7-3.8-1.7
				L673.7,306.3z"/>
			<path class="st17" d="M667.4,313.8c0,1.8-3.3,3.2-7.2,3.1c-3.9-0.1-7.1-1.6-7.1-3.4c0-1.8,3.3-3.2,7.2-3.1
				C664.3,310.4,667.4,312,667.4,313.8z"/>
			<path class="st17" d="M634.5,310.9c-0.4,0-0.8,0-1.2,0.1l-0.1,4.6c0,0.2,0,0.4,0,0.6c0.4,0.1,0.8,0.1,1.2,0.1
				c2.4,0.1,4.3-1.1,4.4-2.6C638.7,312.2,636.8,311,634.5,310.9z"/>
			<polygon class="st18" points="641.2,313.2 646.9,313.3 647.2,301.9 645.3,301.8 			"/>
			<path class="st19" d="M646.6,327.2c2.4,0.1,4.4-1.8,4.4-4.2l-8.6-0.2C642.4,325.2,644.3,327.1,646.6,327.2z"/>
		</g>
		<ellipse class="st20" cx="638.7" cy="304.9" rx="1.6" ry="3.2"/>
		<ellipse class="st20" cx="656.1" cy="304.9" rx="1.6" ry="3.2"/>
	</g>
	<g>
		<path class="st21" d="M631.9,316.8c0,0,5.8-3.1,28.2,0.6c14.5,2.4,14.9-21.1,3.9-22.1c-5.7-0.5-25.3,7-42.3,10.2L631.9,316.8z"/>
		<path class="st22" d="M652.4,301.3l11.7,12.9c0,0-30.1-1.3-34.9-0.2l-5.4-2.3L652.4,301.3z"/>
		<path class="st22" d="M660.1,294.1l6.2,4.5c0,0,4.4,3.4-2.2,15.6l-13.4-7.4l1.7-12.9L660.1,294.1z"/>
		<path class="st21" d="M625.3,293.8h33.9c0.8,0,1.5,0.6,1.7,1.3c0.6,2.7,1.1,8.5-1.7,14.4c-0.2,0.5-2.4,1.7-2.9,1.7
			c0,0-32.2,1-32.5,0.4C622.9,310.1,618.4,298.4,625.3,293.8z"/>
		<path class="st21" d="M658.6,309.2l6.8,4.1c0,0-0.7,0.9-1.3,0.9l-6.5-3.6C657.6,310.6,658,310.2,658.6,309.2z"/>
		<path class="st23" d="M657.6,310.6l6.5,3.6c0,0-1.3,0-2-0.1l-6.1-2.8C656,311.3,657.2,310.9,657.6,310.6z"/>
		<path class="st24" d="M664.1,300.3c0,0,8.9-0.8,16.4,3.4l-0.5,3.1c0.1,0.7-0.3,3.4-0.3,3.4s0.3-0.9-15.4-3L664.1,300.3z"/>
		<polygon class="st21" points="677.9,302.8 674.1,301.8 675,309.1 678.9,310.2 		"/>
	</g>
	<polygon class="st16" points="501.5,385.7 495,384.6 485.8,374.8 480.6,387.9 497.9,393.6 	"/>
	<polygon class="st16" points="710.7,470.8 711.5,477.6 704.2,489.5 718.7,491.1 719.7,472.2 	"/>
	<path class="st6" d="M654.2,399.5"/>
	<path class="st19" d="M700.4,361.1c-4.5-7.7-12.4-12.7-21.2-13.7l-11.2-1.2h-22.1l-14.7,1.5c-7.5,0.8-14.8,3.2-21.3,7.2l-50.5,30.9
		c-2.9,1.8-6.4,2.6-9.8,2.3l-52.9-4.8l-1.3,12.3l57.4,10c3.4,0.6,6.9,0.1,10-1.5l54.2-27.7l0.2,5.6c-0.9,2.4-2.2,5-3.4,6.9
		c-4.6,6.7-3.4,16.2,3.5,21.4l0.8,0.6l11.2,74.9c0,0,40.2,4.9,64.7-21.2l-1.4-10c-2.4-12.9-3.1-26-2-39l2.4-30.2l17.5,27.2
		c1.6,2.5,2.3,5.4,2.1,8.4l-3.6,53.7l12.3,1.1l8.8-58.1c0.5-3.1-0.1-6.3-1.7-9L700.4,361.1z"/>
	<polygon class="st16" points="648.2,346.2 650.9,330.4 661.9,330.4 665.7,346.2 657,355.7 	"/>
	<polygon class="st16" points="648.2,346.2 654.2,377.7 665.7,346.2 657,355.7 	"/>
</g>
<g>
	<path class="st3" d="M119.6,335.5l14.2,21.2l14.9-21c0.1-0.2,0.4-0.1,0.4,0.1c0.7,8.3,10.8,97.7-15.7,203.8l-8.2,1.1
		c-4.2,0.6-8.5,0.7-12.7,0.5l-7-0.4c0,0,32.4-96.1,14-205.3C119.5,335.5,119.6,335.4,119.6,335.5z"/>
	<g>
		<path class="st25" d="M107.2,540.9c-34.4-1.9-49-20.5-49-20.5c18.5-40.3,6.3-112.2,6.3-112.2l-14.8,30.5l4.3,59.7l-18,7.1
			l-13.8-57.2c-2.2-9.3-0.9-19.1,3.6-27.5l32.2-58.7c3.1-5.7,8.3-9.9,14.5-11.8l46.1-14.1c0.4-0.1,0.8,0.1,0.9,0.5
			C123.9,348.4,137.7,440.5,107.2,540.9z"/>
		<path class="st25" d="M133.4,539.6c24.1-129.1,16.6-194.9,15.6-202.8c-0.1-0.4,0.3-0.7,0.7-0.6l82.1,26.3
			c4.1,1.3,8.4,1.5,12.6,0.5l46.9-10.8l7.8,16.8c-37.3,17.2-61.9,23.8-72.7,20.1c-10.8-3.7-42.9-7.3-42.9-7.3
			c-17.3,93.4-6.9,146.6-6.9,146.6C155.5,535,152.3,536.4,133.4,539.6z"/>
	</g>
	<path class="st7" d="M113.8,310.6"/>
	<polygon class="st16" points="119.4,336.3 124.6,318.7 144.5,318.7 149,336.8 133.6,357.5 	"/>
	<path class="st15" d="M131.8,304.9c0.2,4.2-0.4,7.7-1.4,11.3C136.2,313.8,136.9,309.7,131.8,304.9z"/>
	<path class="st16" d="M164.9,259.9l1,45c0.3,15.8-13.2,28.9-30.2,29.3c-17,0.4-31.1-12.1-31.4-28l-0.6-27.5
		c-0.2-9.6,7.4-17.5,17-17.7C120.7,260.9,164.5,259.9,164.9,259.9z"/>
	<polygon class="st18" points="154.7,301.5 146.7,301.7 146.3,285.7 148.9,285.6 	"/>
	<path class="st19" d="M146.8,323.4c-3.3,0.1-6.1-2.6-6.1-5.9l12-0.3C152.8,320.6,150.2,323.4,146.8,323.4z"/>
	<ellipse class="st3" cx="158.2" cy="289.9" rx="2.2" ry="4.5"/>
	<ellipse class="st3" cx="133.8" cy="289.9" rx="2.2" ry="4.5"/>
	<ellipse class="st26" cx="134.2" cy="290" rx="1.2" ry="2.4"/>
	<ellipse class="st26" cx="158.2" cy="290" rx="1.2" ry="2.4"/>
	<path class="st27" d="M104.3,306.2c0,0,3.2-16.6,12.3-18.9l2.3-20.9c0,0,32.3,1.5,41.5-3l1.3,14.3l3.7,2.8l1.6-27.1
		c0,0-3.7-14.8-12.3-16.6c0,0-6.8-3.1-19.5-3.1c0,0-17.1-1.1-21.8,9.3c0,0-9.7,2.1-12.3,13.9C101.1,256.9,88.4,274.9,104.3,306.2z"
		/>
	<g>
		<path class="st21" d="M165.8,301.8c0,0-8.3-4.5-40.1,0.9c-20.5,3.4-21.2-30-5.6-31.4c8.1-0.7,35.9,10,60.1,14.4L165.8,301.8z"/>
		<path class="st22" d="M136.8,279.7l-16.7,18.4c0,0,42.7-1.9,49.6-0.3l7.7-3.2L136.8,279.7z"/>
		<path class="st22" d="M125.8,269.5L117,276c0,0-6.3,4.8,3.1,22.1l19.1-10.5l-2.4-18.4L125.8,269.5z"/>
		<path class="st21" d="M175.2,269.2h-48.1c-1.1,0-2.1,0.8-2.4,1.9c-0.8,3.9-1.5,12.1,2.4,20.4c0.3,0.7,3.4,2.4,4.2,2.4
			c0,0,45.7,1.4,46.2,0.6C178.7,292.2,185.1,275.6,175.2,269.2z"/>
		<path class="st21" d="M127.9,291l-9.7,5.8c0,0,1,1.3,1.9,1.3l9.2-5.1C129.3,293,128.8,292.5,127.9,291z"/>
		<path class="st23" d="M129.3,293l-9.2,5.1c0,0,1.8,0,2.9-0.1l8.7-4C131.6,294,129.9,293.4,129.3,293z"/>
		<path class="st24" d="M120.1,278.3c0,0-12.7-1.1-23.3,4.8l0.8,4.5c-0.1,1,0.4,4.8,0.4,4.8s-0.5-1.3,21.9-4.3L120.1,278.3z"/>
		<polygon class="st21" points="100.5,281.9 105.9,280.6 104.7,290.9 99.1,292.5 		"/>
	</g>
	<path class="st16" d="M109.3,291.8c-1.3-1.3-3.2-2.2-5.3-2.1c-3.9,0.1-7,3.1-6.9,6.7c0.1,3.6,3.3,6.5,7.2,6.4c2.1,0,4-1,5.2-2.4
		L109.3,291.8z"/>
	<polygon class="st16" points="292.4,354.6 299.3,353.5 314.2,337.5 322.8,358.8 298.2,367 	"/>
	<polygon class="st16" points="50.7,499.6 51.2,506.6 65.8,522.9 43.8,529.5 37.9,504.7 	"/>
	<path d="M119.3,336.8c2.6,8.2,23.5,80.5-12.1,204.1l-8-0.8c0,0,33.9-111,13.9-202.2l5.2-1.7C118.7,336.1,119.2,336.3,119.3,336.8z"
		/>
	<path d="M133.4,539.6c0,0,24-118.2,15.4-203.6l8.2,2.1c0,0,12.8,54.4-16,200.2L133.4,539.6z"/>
	<path class="st28" d="M276.8,353l11,23.6c0,0,9.5-0.2,12.8-4.9L290,349.2C290,349.2,283,348.1,276.8,353z"/>
	<path class="st28" d="M54.5,490.8l-24,6.3c0,0-1,9.3,3.1,13.5l23.4-6.2C57,504.5,58.1,497.9,54.5,490.8z"/>
</g>
<g>
	<path class="st29" d="M368.3,308.9c1.1-4.8,2.9-9.3,5.7-13.4c2.9-4.2,6.4-7.7,10.8-10.4c9.9-6.1,20.3-7.3,31.4-3.8
		c-0.1,1.4-0.5,1.7-2,1.3c-4.1-1-8.1-1.5-12.3-1.2c-5.8,0.5-11.1,2.2-15.9,5.3c-6.3,4-11,9.5-13.8,16.5c-0.8,1.9-1.6,3.9-1.7,6
		c0,0.2-0.3,0.6,0.2,0.5c2.2-0.4,4.3-1,6.5-1c0.1,0,0.2,0,0.2-0.1c0.3-0.8,1-0.5,1.6-0.6c2.6-0.7,5.3-0.8,8-1.3
		c0.4,0.2,0.6,0.3,1.1,0c0.8-0.6,1.3-1.5,2.4-1.7c0.9,0.2,1.8,0.1,2.7-0.1c0.9-0.2,1.7-0.4,2.6-0.3c1,0,1.5,0.8,2.1,1.4
		c0.8,0.7,1.4,0.8,2.2-0.1c1.3-1.3,2.7-2.5,4-3.8c0.2,0.4,0.6,0.6,1,0.5c2.6-0.6,5.3-1.1,7.9-1.7c1.8,0.9,3.4,2.2,5.1,3.2
		c0.7,0.4,1.2,0.4,1.8-0.1c1.8-1.6,3.7-3.1,5.6-4.6c1.3-1,2.5-1,3.7,0.2c0.3,0.3,0.6,0.7,0.9,1c1.4,1.5,2.6,3.1,4.1,4.4
		c1.6,1.8,3.2,3.6,4.9,5.4c0.3,0.3,0.5,0.6,0.5,1.1c0.2,1.8,0.3,3.5,0.2,5.3c-1.4,0.5-2.9,0.9-4.3,1.6c-1.4,0.6-3,0.9-4.2,1.9
		c-1.3-0.3-2.1,0.8-3.2,1.2c-0.8,0-0.9-0.4-0.7-1.1c0.5-1.3,0.6-2.7,0.8-4.1c0-0.4,0.4-0.9-0.3-1c-0.5-0.1-1.1,0.2-1.2,0.8
		c-0.1,0.4,0,0.8,0,1.2c0,0.5-0.1,1.1-0.7,1.2c-1.3,0.3-2.7,0.9-3.9-0.1c-0.4-0.3-0.9-0.2-1.4,0c-0.6,0.2-1.1,0.5-1.7,0.7
		c-4.9,1.6-9.5,3.8-14.5,5.2c-0.8,0.2-1.5,0.6-2.2,0.9c-0.5,0.2-0.9,0.7-0.4,1.2c0.6,0.6,1.1,1.3,2,1.5c3.1,0.7,6.3,0.8,9.4,1.6
		c0.7,0.2,1.3,0,1.9-0.6c1.4-1.4,2.9-2.7,4.3-4.1c0.8-0.8,1.6-1.5,2.4-2.2c0.9-0.7,1.8-0.9,2.8-0.3c0.5,0.2,0.9,0.5,1.4,0.7
		c0,1.3,0.2,1.6,1.5,1.3c1.5-0.3,3,0.2,4.4-0.2c0.1,0,0.2,0.1,0.4,0.2c-0.2,0.4-0.6,0.5-0.9,0.6c-5,2-10,4.1-15.2,5.6
		c-9.7,2.7-19.5,5-29.6,6.2c-3.5,0.4-7,0.5-10.6,0.5c-0.4-0.3-0.6-0.7-0.9-1.2c6.9-0.8,13.8-1.4,21.1-2.5c-1.6-1.2-3-1.7-4.4-2.1
		c-1.4-0.5-2.9-0.7-4.3-1c2.6-0.8,5.4-1.7,8.1-2.5c0.2-0.1,0.5-0.1,0.5-0.4c0-0.4-0.4-0.3-0.6-0.4c-1.8-0.1-3.5-0.2-5.3-0.3
		c-6.2-0.5-12.3,0.1-18.5,0.3c-0.8,0-0.8,0.4-0.6,1c0.5,1.2,0.9,2.3,1.4,3.5c-0.5,0.4-1,0.6-1.6,0.8c-1.3-2.6-2.2-5.3-2.8-8.2
		c-0.9-3.8-0.9-7.6-0.7-11.4C367.9,311.5,368.1,310.2,368.3,308.9z M395.5,324.4c0.8,0,1.7,0,2.5,0c0.3,0,0.7,0,0.8-0.4
		c0.1-0.3-0.2-0.5-0.4-0.7c-1.5-1.4-2.9-2.7-4.5-4c-1.1-0.9-2.1-0.9-3.2-0.1c-1.9,1.5-3.7,3-5.5,4.5c-0.2,0.1-0.5,0.2-0.4,0.5
		c0.1,0.3,0.4,0.3,0.7,0.3C389,324.4,392.2,324.9,395.5,324.4z M417,305.9c-2.6,0.3-5,1.3-7.6,2c-1.5,0.4-3,0.9-4.5,1.4
		c-0.3,0.1-0.7,0.2-0.7,0.7c0,0.4,0.4,0.5,0.7,0.6c1.1,0.5,2.3,1,3.4,1.5c0.6,0.3,1.1,0.3,1.7-0.1C412.4,310,414.8,308.2,417,305.9z
		"/>
	<path class="st30" d="M390.4,305c-1.1,0.2-1.6,1.2-2.4,1.7c-0.5,0.3-0.8,0.2-1.1,0c-1.6-1.7-3.1-3.4-4.7-5
		c-1.8-1.9-2.9-1.9-4.7,0.1c-2.4,2.5-4.7,5-7.1,7.5c0-2.2,0.9-4.1,1.7-6c2.8-7,7.5-12.5,13.8-16.5c4.8-3.1,10.2-4.8,15.9-5.3
		c4.2-0.4,8.3,0.1,12.3,1.2c1.5,0.4,1.9,0.1,2-1.3c5,1.6,9.4,4.1,13.3,7.8c1.1,1.1,2.2,2.2,3.3,3.3c0.8,1.1,1.6,2.2,2.4,3.2
		c0.9,1.3,1.7,2.7,2.4,4.1c0.9,1.8,1.6,3.7,2.2,5.6c-0.2,0.6-0.8,0.9-1.3,1.6c-0.5-1.2-0.9-2.3-1.3-3.3c-0.2-0.4-0.2-1-0.7-1
		c-0.5,0-0.6,0.6-0.7,1c-0.2,0.9-0.7,1.4-1.6,1.5c-1.5-1.3-2.7-2.9-4.1-4.4c-0.3-0.3-0.6-0.7-0.9-1c-1.2-1.2-2.4-1.3-3.7-0.2
		c-1.9,1.5-3.8,3-5.6,4.6c-0.6,0.5-1.1,0.6-1.8,0.1c-1.7-1.1-3.2-2.4-5.1-3.2c-0.9-0.6-1.7-1.3-2.6-1.9c-1.2-0.8-2.2-0.8-3.3,0.2
		c-1,0.9-2,1.9-3,2.8c-1.4,1.3-2.8,2.4-4,3.8c-0.8,0.9-1.4,0.8-2.2,0.1c-0.6-0.6-1.2-1.4-2.1-1.4c-0.6-1.2-1.6-1.6-2.9-1.4
		C391.8,303.3,391.1,304.2,390.4,305z M393.4,288.2c-0.2,0.1-0.5,0.1-0.7,0.2c-5,1.8-9.1,4.8-12.3,9c-0.4,0.6-0.9,1.2-0.1,1.8
		c0.8,0.6,1.3,0.1,1.8-0.6c2.9-3.9,6.7-6.7,11.3-8.3c0.3-0.1,0.5-0.2,0.8-0.3c0.4-0.3,0.6-0.7,0.4-1.2
		C394.3,288.4,394,288.2,393.4,288.2z M395.5,295c0.8,0,1.4,0,2-0.2c0.9-0.2,1.1-0.7,0.9-1.5c-0.3-1.3-1.8-2.2-3.1-1.9
		c-1.1,0.3-1.8,1.4-1.7,2.6C393.8,295.5,394.9,294.9,395.5,295z"/>
	<path class="st30" d="M396.8,352.5c-5.5-1.3-10.5-3.5-15-7c-1.9-1.5-3.7-3.2-5.3-5.1c6.2,0.1,12.3-0.6,18.4-1.6
		c2.8-0.5,5.6-1,8.3-1.4c4.1,2.2,8.5,2.6,13,2.3c1.9-0.2,3.8-0.8,5.9-1.3c-0.5,0.9-1.1,1.3-1.7,1.7c-1.9,1.6-4.1,2.5-6.3,3.5
		c-4.5,2.1-8.8,4.5-13.6,6c-0.8,0.3-1.7,0.5-2.1,1.5C397.4,350.7,397.1,351.7,396.8,352.5z"/>
	<path class="st31" d="M403.2,337.3c-2.8,0.5-5.6,1-8.3,1.4c-6.1,1-12.2,1.7-18.4,1.6c0,0,0,0,0,0c-0.7-0.9-1.4-1.9-2.2-2.8
		c0.7-0.3,1.4,0.2,2.1-0.3c3.5,0.1,7.1-0.1,10.6-0.5c10-1.2,19.8-3.5,29.6-6.2c5.2-1.5,10.2-3.6,15.2-5.6c0.3-0.1,0.7-0.2,0.9-0.6
		c-0.1-0.1-0.3-0.3-0.4-0.2c-1.5,0.5-3-0.1-4.4,0.2c-1.3,0.3-1.6,0-1.5-1.3c0.6-0.5,1.2-1,1.8-1.5c1.1-0.4,1.9-1.4,3.2-1.2
		c1.1,0.4,1.8,1.3,2.3,2.2c0.7,1.1,1.4,1.2,2.5,0.5c1.2-0.7,2.4-1.2,3.7-1.8c0.4-0.2,0.8-0.5,1.3-0.7c0.3,1,0.5,2,1.7,2.3
		c0,0,0,0.1,0,0.1c-0.6,0.4-1.4,0.4-1.8,1.1c-0.7,0.2-1.3,0.6-2,1c-0.2,0-0.3,0.1-0.3,0.3c0,0,0,0,0,0c-0.7,0.2-1.4,0.4-1.9,1
		c-1.6,0.4-3,1.2-4.5,1.8c-5,2-10,4.1-15.2,5.6C412.4,335,407.8,336.2,403.2,337.3z"/>
	<path class="st32" d="M324.4,306.8c-1.9-1.1-2.6-3-3-5c-0.2-1.2-1.2-2.4-0.5-3.8c0.4-0.7,1-1.5,0.4-2.4c-0.1-0.1,0.2-0.4,0.3-0.6
		c3.3-4.3,9.5-5,13.7-1.4c0.5,0.4,1.2,0.8,0.8,1.8c-0.2,0.4,0.4,0.9,0.6,1.4c0.3,0.8,1,1.6,0.2,2.5c-0.2,0.3-0.1,0.9,0,1.3
		c0,2.1-0.7,4-2.1,5.5c-0.2,0.2-0.5,0.8-1,0.3c-1.3,0-2.5,0-3.8,0C328.1,306.6,326.2,306.2,324.4,306.8z"/>
	<path class="st33" d="M368.3,308.9c-0.2,1.3-0.4,2.6-0.6,3.9c-2.1,0.8-3.9,2.2-5.8,3.4c-3.3,2.3-6.4,4.8-8.6,8.2
		c-2.3,3.6-1.7,6.3,1.5,8.9c1.3,1,3,1.4,4.4,2.2c-0.3,0.5-0.8,0.4-1.3,0.5c-1,0.1-1.8,0.4-2.2,1.3c-3.3-1.3-5.7-3.5-6.6-7
		c-0.7-3.1,0.5-5.8,2.2-8.3c3.2-4.7,7.8-7.8,12.6-10.7C365.4,310.4,366.8,309.4,368.3,308.9z"/>
	<path class="st33" d="M438.9,325.1c0.6-0.4,1.2-0.8,2-1c-3.5,14.2-12.3,23.6-26.3,27.9c-5.5,1.7-11.2,1.9-16.9,0.8
		c-0.3-0.1-0.6-0.2-0.9-0.3c0.3-0.9,0.6-1.8,1.8-1.4c0.3,0.1,0.6,0.2,0.9,0.2c7.1,0.9,13.9-0.1,20.4-3.2c3.8-1.8,7.2-4.3,10.1-7.4
		c3.6-3.7,6.2-8,7.9-12.8c0.3-0.8,0.7-1.6,0.7-2.5c0,0,0,0,0,0C438.7,325.3,438.8,325.2,438.9,325.1z"/>
	<path class="st32" d="M469.9,329.2c3,0,5.6,2.5,5.5,5.4c-0.1,3.3-2.2,5.6-5.5,5.7c-3,0.1-5.6-2.6-5.6-5.3
		C464.4,331.7,466.7,329.2,469.9,329.2z"/>
	<path class="st29" d="M442.7,323c0,0,0-0.1,0-0.1c-1.2-0.3-1.4-1.4-1.7-2.3c0.2-0.2,0.4-0.3,0.6-0.5c3.5-1.8,6.8-4,9.7-6.6
		c2.4-2.1,4.6-4.4,5.7-7.5c0.6,0,1.2-0.1,1.8-0.3c0.5-0.2,1.1-0.4,1.2,0.5c-0.4,2.4-1.6,4.5-3.2,6.2c-2.2,2.4-4.5,4.8-7.3,6.5
		C447.3,320.3,445.1,321.9,442.7,323z"/>
	<path class="st33" d="M435.2,295.6c-0.8-1.1-1.6-2.2-2.4-3.2c4.2,0,8.4,0.1,12.5,0.8c3.4,0.6,6.8,1.4,9.9,3.2
		c0.3,0.2,0.6,0.2,0.7,0.6c-0.4,0.8-0.9,1.6-0.3,2.5c0.1,0.2,0.3,0.5,0.4,0.7c-0.2,0-0.3,0-0.5,0c-1.4-0.7-2.7-1.8-4.2-2.4
		c-5-1.9-10.2-2.2-15.4-2.5C435.7,295.3,435.4,295.3,435.2,295.6z"/>
	<path class="st32" d="M355.7,266.8c2,0,3.6,1.7,3.6,3.6c0,2.1-1.7,3.7-3.8,3.7c-2.1,0-3.6-1.7-3.6-3.8
		C351.9,268.4,353.6,266.8,355.7,266.8z"/>
	<path class="st30" d="M355.8,337.3c0.5-0.9,1.3-1.2,2.2-1.3c0.5,0,1,0.1,1.3-0.5c2,0.6,4,0.9,6.1,1.2c2.8,0.5,5.7,0.3,8.5,0.7
		c-1.3,0-2.7-0.1-4,0.2c-1.9,0.5-3.7,1.3-5.5,2c-1-0.1-2,0-3-0.3c-0.8-0.3-1.2,0.1-1.6,0.6c-0.9,1.1-1.6,1.3-2.8,0.7
		c-1.1-0.5-1.6-1.5-1.3-2.7C355.8,337.8,355.9,337.6,355.8,337.3z M357.2,337.7c0.7,0.5,1.5,0.7,2.2,0.9c0.3,0.1,0.9,0.6,1-0.2
		c0.1-0.6-0.1-1.1-0.9-1.1C358.8,337.3,358,337.3,357.2,337.7z"/>
	<path class="st33" d="M428.9,355.2c0.5,1.2,0.5,2.5,0.5,3.8c0.1,1.9,0.3,2.2,2.2,2.3c1.3,0.1,2.6,0.2,3.9,0.6
		c-0.9,0.1-1.8,0.2-2.7,0.4c-3.8,0.5-2.9-0.4-3.4,3.4c-0.1,0.9-0.2,1.8-0.4,2.7c-0.5-1.6-0.6-3.2-0.7-4.8c-0.1-0.7-0.2-1.1-1-1.1
		c-1.7-0.1-3.4-0.4-5.1-0.8c1.3-0.1,2.6-0.2,4-0.4c0.4,0,0.9-0.1,1.3-0.2c0.7-0.1,0.8-0.4,0.8-1.1
		C428.3,358.4,428.4,356.8,428.9,355.2z"/>
	<path class="st30" d="M455.6,299.5c-0.5-0.9-0.1-1.7,0.3-2.5c0.1,0,0.2,0,0.4,0c1,1.4,2.6,0.9,3.9,1.1c0.1,0.7,0,1.5-0.5,2
		c-0.4,0.4-0.2,0.8,0,1.2c0.5,1.6,0.9,3.2,0.3,4.8c-0.1-0.9-0.7-0.8-1.2-0.5c-0.6,0.2-1.1,0.4-1.8,0.3c0.6-2.2,0.1-4.1-1.4-5.7
		c0.2,0,0.3,0,0.5,0c0.6,0.5,1.3,0.8,2.1,0.7c0.4,0,1,0,1-0.6c0-0.5-0.3-1-0.8-1.1C457.4,299.1,456.4,298.8,455.6,299.5z"/>
	<path class="st29" d="M364.4,339.7c1.8-0.7,3.6-1.5,5.5-2c1.3-0.3,2.6-0.1,4-0.2c0,0,0.1,0,0.1,0c0.1,0,0.2,0.1,0.4,0.1
		c0.7,0.9,1.4,1.9,2.2,2.8c-3.3,0.1-6.5,0.1-9.8-0.4C365.9,339.9,365.1,340.2,364.4,339.7z"/>
	<path class="st33" d="M451.6,257.1c-1.5,0.2-3,0.4-4.5,0.5c-1.2,0-1.4,0.6-1.5,1.6c-0.1,1.4-0.2,2.9-0.5,4.3
		c-0.7-1.4-0.4-3-0.6-4.5c-0.1-1-0.4-1.3-1.4-1.4c-1.5-0.1-3-0.3-4.5-0.7c1.4-0.1,2.7-0.4,4.1-0.4c1.2,0,1.8-0.2,1.8-1.6
		c0-1.5,0.3-2.9,0.7-4.4c0.1,1.3,0.3,2.6,0.4,3.9c0.1,2,0.1,2,2.1,2.1c1.3,0.1,2.6,0.3,3.9,0.4C451.6,257,451.6,257,451.6,257.1z"/>
	<path class="st33" d="M380.7,275.7c-1.8,2.8-4,5.3-6.1,7.9c-0.6,0.7-1.3,0.8-2,0.1c-0.7-0.7-0.6-1.4,0.1-2c2.1-1.7,4.3-3.4,6.4-5.1
		c0.5-0.4,1-0.7,1.5-1.1C380.6,275.6,380.6,275.7,380.7,275.7z"/>
	<path class="st33" d="M393,362.5c-2.1,2.7-4.2,5.3-6.3,8c-0.7,0.8-1.5,0.9-2.1,0.3c-0.7-0.7-0.5-1.5,0.1-2c2.5-2.1,5-4.1,7.5-6.1
		C392.4,362.5,392.7,362.5,393,362.5L393,362.5z"/>
	<path class="st33" d="M361.7,344.1c-2,2.5-3.9,5.1-5.9,7.6c-0.5,0.6-1.2,0.9-1.9,0.2c-0.6-0.6-0.7-1.3-0.1-1.8
		c2.4-2.3,5-4.3,7.8-6.1C361.6,344,361.7,344.1,361.7,344.1z"/>
	<path class="st33" d="M432.6,275.9c-1.9,2.7-3.9,5.2-6,7.7c-0.6,0.7-1.3,0.7-1.9,0.1c-0.6-0.6-0.7-1.3,0-1.9c2.4-2.2,5-4.3,7.8-6.1
		C432.5,275.8,432.6,275.9,432.6,275.9z"/>
	<path class="st33" d="M470.5,305.3c-1.3,1.7-2.6,3.3-3.8,4.9c-0.6,0.8-1.2,1.5-1.8,2.3c-0.7,0.8-1.6,1-2.2,0.3
		c-0.6-0.6-0.4-1.6,0.4-2.2c2.2-1.8,4.4-3.5,6.6-5.3C469.9,305.2,470,305.1,470.5,305.3z"/>
	<path class="st31" d="M324.4,306.8c1.8-0.6,3.7-0.2,5.5-0.3c1.2,0,2.5,0,3.8,0c0.2,0.7-0.4,0.8-0.8,1
		C330.3,309.1,326.9,308.8,324.4,306.8z"/>
	<path class="st33" d="M384.2,358.3c-0.4-1,0.1-2.2-0.6-2.9c-0.7-0.6-1.9,0.1-3.1-0.6c1-0.2,1.7-0.3,2.4-0.3c0.8,0,1-0.4,1.1-1.1
		c0-0.6-0.1-1.3,0.4-2c-0.2,2.5,0.8,3.6,3.2,3.5c-0.5,0.1-1,0.3-1.5,0.2c-1.3-0.1-1.6,0.6-1.6,1.7
		C384.5,357.3,384.6,357.8,384.2,358.3z"/>
	<path class="st33" d="M384.6,255.4c2.8,0.7,3.4-0.8,3.3-3c0.4,2.8,0.4,2.8,3.4,3.3c-0.4,0.4-1,0.3-1.4,0.3
		c-1.1-0.1-1.7,0.4-1.8,1.6c0,0.5-0.1,1.1-0.2,2c-0.4-0.9-0.3-1.5-0.3-2c0.1-1-0.4-1.4-1.3-1.5c-0.5,0-1.1-0.1-1.6-0.1
		C384.7,255.7,384.6,255.6,384.6,255.4z"/>
	<path class="st33" d="M447.2,333.7c-0.7,1.5-1.8,2.7-2.8,4c-0.3,0.4-0.6,0.9-1.1,1.1c-0.4,0.2-0.7,0.2-1-0.1
		c-0.2-0.3-0.5-0.7-0.1-1.1C443.7,336.1,445.5,335,447.2,333.7z"/>
	<path class="st33" d="M345.4,344.3c-0.7-0.9,0.1-2.1-0.8-2.7c-0.7-0.4-1.8-0.3-2.7-0.5c0.1-0.1,0.2-0.1,0.2-0.1
		c0.9-0.1,1.9,0,2.6-0.5c0.8-0.5,0.2-1.6,0.4-2.4c0-0.1,0.1-0.2,0.2-0.3c0.7,2.9,0.7,2.9,3.3,3.2c-0.3,0.5-0.9,0.4-1.3,0.3
		c-1.3-0.2-1.7,0.5-1.8,1.6C345.4,343.4,345.4,343.8,345.4,344.3z"/>
	<path class="st33" d="M475,266c-1,0.4-2.2-0.3-2.7,0.5c-0.5,0.7-0.4,1.8-0.6,2.9c-0.1-1.2,0-2.2-0.6-2.9c-0.6-0.8-1.8-0.2-2.8-0.6
		c2.3,0.1,3.8-0.6,3.4-3.2c0.1,0.3,0.2,0.7,0.2,1c0.3,1.9,0.3,1.9,2.3,2C474.5,265.7,474.8,265.7,475,266z"/>
	<path class="st33" d="M334.4,283c2.4,0.4,3.6-0.6,3.3-3.1c0.2,1,0,2,0.6,2.7c0.6,0.6,1.7,0.4,2.6,0.5c-0.3,0.3-0.6,0.3-1,0.3
		c-2,0.2-2,0.2-2.1,2.2c0,0.2,0,0.4,0,0.8c-0.5-0.7-0.4-1.3-0.4-1.8c0-0.8-0.3-1.2-1.2-1.2C335.7,283.4,335,283.3,334.4,283z"/>
	<path class="st33" d="M460.2,298.1c-1.4-0.2-2.9,0.3-3.9-1.1c0.5-1.1,1.5-0.7,2.3-0.6C459.5,296.5,460.1,297.1,460.2,298.1z"/>
	<path class="st33" d="M456.9,286.3c0.4,1,0.4,2.2,2,1.8c-1.2,0.2-2,0.7-1.9,2c-0.2-1.1-0.5-2-2-1.6
		C455.6,287.6,457.3,288,456.9,286.3z"/>
	<path class="st33" d="M406.9,274.2c-1.3,0-1.8,0.6-1.9,1.9c-0.1-1.2-0.6-1.9-2-1.7c0.4-1,2.5-0.2,1.9-2.2
		C405.1,273.5,405.7,274.1,406.9,274.2z"/>
	<path class="st33" d="M343.4,316.4c1.5,0.1,1.7-0.9,2-2c0,1.3,0.3,2.2,1.9,1.9c-1.1,0.4-2.4,0.3-1.9,2.1
		C345,317.3,344.8,316.3,343.4,316.4z"/>
	<path class="st33" d="M436,266c-0.1-1.2-0.5-2.1-1.9-2.1c1.6,0.2,1.8-0.7,1.8-2.1c0.6,1.9,0.6,1.9,2,2.1
		C436.6,264,435.8,264.5,436,266z"/>
	<path class="st33" d="M470.9,304.7C470.9,304.6,470.8,304.6,470.9,304.7c-0.1-0.1,0-0.1,0-0.2C470.9,304.5,471,304.6,470.9,304.7
		C471,304.6,470.9,304.6,470.9,304.7z"/>
	<path class="st33" d="M432.5,275.8c0.1,0,0.1,0,0.2,0c0,0.1,0,0.1-0.1,0.2C432.6,275.9,432.5,275.8,432.5,275.8z"/>
	<path class="st33" d="M380.9,275.4c-0.1,0.1-0.1,0.2-0.2,0.3c0,0-0.1-0.1-0.1-0.1C380.6,275.5,380.7,275.4,380.9,275.4L380.9,275.4
		z"/>
	<polygon class="st33" points="362.4,343.3 362.5,343.3 362.4,343.3 	"/>
	<path class="st33" d="M362.2,343.6c-0.1,0.1-0.1,0.2-0.2,0.3c0,0-0.1-0.1-0.1-0.1C362,343.7,362.1,343.6,362.2,343.6
		C362.2,343.6,362.2,343.6,362.2,343.6z"/>
	<path class="st33" d="M362,343.9c-0.1,0.1-0.1,0.2-0.2,0.3c0,0-0.1-0.1-0.1-0.1c0.1-0.1,0.2-0.2,0.3-0.2
		C361.9,343.8,361.9,343.8,362,343.9z"/>
	<path class="st33" d="M380.8,275.4C380.9,275.3,380.9,275.3,380.8,275.4c0.1-0.1,0.2,0,0.1,0C381,275.4,380.9,275.4,380.8,275.4
		C380.9,275.4,380.8,275.4,380.8,275.4z"/>
	<path class="st33" d="M393,362.5C393,362.5,393,362.4,393,362.5c0.1-0.1,0.1,0,0.1,0C393,362.5,393,362.5,393,362.5
		C393,362.5,393,362.5,393,362.5z"/>
	<path class="st33" d="M362.4,343.3c-0.1,0.1-0.2,0.2-0.2,0.3c0,0,0,0,0,0C362.2,343.5,362.3,343.4,362.4,343.3
		C362.4,343.3,362.4,343.3,362.4,343.3z"/>
	<path class="st34" d="M373.9,337.5C373.9,337.5,373.9,337.5,373.9,337.5c-2.9-0.3-5.8-0.2-8.6-0.7c-2-0.3-4.1-0.6-6.1-1.2
		c-1.4-0.8-3.1-1.2-4.4-2.2c-3.3-2.6-3.8-5.3-1.5-8.9c2.2-3.4,5.3-6,8.6-8.2c1.9-1.3,3.7-2.6,5.8-3.4c-0.2,3.8-0.1,7.7,0.7,11.4
		c0.6,2.8,1.5,5.6,2.8,8.2c0.4,0.8,0.8,1.5,1.1,2.3C372.9,335.6,373.7,336.4,373.9,337.5z"/>
	<path class="st31" d="M372.9,331.6c-0.5-1.2-0.9-2.3-1.4-3.5c-0.2-0.6-0.2-1,0.6-1c6.2-0.2,12.3-0.8,18.5-0.3
		c1.8,0.1,3.5,0.2,5.3,0.3c0.3,0,0.6,0,0.6,0.4c0,0.3-0.3,0.4-0.5,0.4c-2.7,0.9-5.4,1.7-8.1,2.5c1.3,0.3,2.8,0.6,4.3,1
		c1.4,0.5,2.8,0.9,4.4,2.1c-7.2,1.1-14.1,1.7-21.1,2.5C374.4,334.7,373.7,333.1,372.9,331.6z"/>
	<path class="st30" d="M428.1,321.5c-0.6,0.5-1.2,1-1.8,1.5c-0.5-0.2-1-0.4-1.4-0.7c-1-0.5-2-0.4-2.8,0.3c-0.8,0.7-1.7,1.4-2.4,2.2
		c-1.4,1.4-2.9,2.7-4.3,4.1c-0.5,0.5-1.2,0.7-1.9,0.6c-3.1-0.8-6.3-1-9.4-1.6c-0.9-0.2-1.5-0.8-2-1.5c-0.5-0.6-0.1-1,0.4-1.2
		c0.7-0.4,1.5-0.7,2.2-0.9c4.9-1.4,9.6-3.6,14.5-5.2c0.6-0.2,1.1-0.4,1.7-0.7c0.5-0.2,0.9-0.3,1.4,0c1.3,1,2.6,0.4,3.9,0.1
		c0.5-0.1,0.6-0.7,0.7-1.2c0-0.4,0-0.8,0-1.2c0.1-0.6,0.6-0.9,1.2-0.8c0.7,0.1,0.3,0.6,0.3,1c-0.2,1.4-0.4,2.8-0.8,4.1
		C427.2,321.1,427.2,321.5,428.1,321.5z"/>
	<path class="st31" d="M370.4,309.2c2.4-2.5,4.7-5,7.1-7.5c1.8-1.9,2.9-2,4.7-0.1c1.6,1.7,3.1,3.4,4.7,5c-2.6,0.5-5.3,0.5-8,1.3
		c-0.6,0.2-1.3-0.2-1.6,0.6c0,0.1-0.1,0.1-0.2,0.1c-2.2,0-4.4,0.6-6.5,1C370.1,309.8,370.4,309.4,370.4,309.2z"/>
	<path class="st31" d="M395.5,324.4c-3.3,0.5-6.6-0.1-9.8,0.1c-0.3,0-0.6,0-0.7-0.3c-0.1-0.3,0.2-0.4,0.4-0.5c1.8-1.5,3.7-3,5.5-4.5
		c1.1-0.9,2.1-0.8,3.2,0.1c1.5,1.3,3,2.7,4.5,4c0.2,0.2,0.5,0.4,0.4,0.7c-0.1,0.4-0.5,0.3-0.8,0.4
		C397.2,324.4,396.4,324.4,395.5,324.4z"/>
	<path class="st33" d="M441.6,320c-0.2,0.2-0.4,0.3-0.6,0.5c-0.4,0.2-0.8,0.5-1.3,0.7c-0.2-1.5,0.4-2.9,0.1-4.4
		c0.1-1.8,0-3.6-0.2-5.3c0-0.4-0.2-0.8-0.5-1.1c-1.6-1.8-3.2-3.6-4.9-5.4c0.9-0.2,1.4-0.6,1.6-1.5c0.1-0.4,0.2-1,0.7-1
		c0.5,0,0.6,0.6,0.7,1c0.4,1,0.8,2.1,1.3,3.3c0.4-0.7,1.1-0.9,1.3-1.6c0.4,0.7,0.6,1.5,0.8,2.3C441.6,311.6,441.9,315.8,441.6,320z"
		/>
	<path class="st30" d="M417,305.9c-2.2,2.3-4.7,4.1-7,6.1c-0.6,0.5-1.1,0.4-1.7,0.1c-1.1-0.5-2.3-1-3.4-1.5
		c-0.3-0.1-0.7-0.2-0.7-0.6c0-0.5,0.4-0.6,0.7-0.7c1.5-0.5,3-1,4.5-1.4C412,307.2,414.4,306.2,417,305.9z"/>
	<path class="st30" d="M439.8,316.8c0.3,1.5-0.3,2.9-0.1,4.4c-1.2,0.6-2.5,1.1-3.7,1.8c-1.1,0.6-1.8,0.6-2.5-0.5
		c-0.6-0.9-1.2-1.8-2.3-2.2c1.2-1.1,2.8-1.3,4.2-1.9C436.9,317.8,438.4,317.3,439.8,316.8z"/>
	<path class="st31" d="M404.1,302.1c1-0.9,2-1.9,3-2.8c1.1-1,2-1.1,3.3-0.2c0.9,0.6,1.8,1.2,2.6,1.9c-2.6,0.6-5.3,1.1-7.9,1.7
		C404.7,302.6,404.3,302.5,404.1,302.1z"/>
	<path class="st30" d="M372.9,331.6c0.9,1.5,1.6,3.1,2.6,4.5c0.2,0.4,0.4,0.9,0.9,1.2c-0.6,0.5-1.4,0.1-2.1,0.3
		c-0.1,0-0.2-0.1-0.4-0.1c-0.2-1.1-1.1-1.8-1.5-2.8c-0.4-0.8-0.7-1.5-1.1-2.3C371.9,332.2,372.4,332,372.9,331.6z"/>
	<path class="st31" d="M390.4,305c0.7-0.8,1.4-1.7,2.5-1.9c1.3-0.2,2.3,0.2,2.9,1.4c-0.9-0.1-1.8,0.1-2.6,0.3
		C392.2,305.1,391.3,305.2,390.4,305z"/>
	<path class="st34" d="M441.6,320c0.4-4.2,0.1-8.4-0.9-12.6c-0.2-0.8-0.3-1.6-0.8-2.3c-0.7-1.9-1.3-3.8-2.2-5.6
		c-0.7-1.4-1.5-2.8-2.4-4.1c0.2-0.3,0.5-0.3,0.8-0.3c5.2,0.3,10.4,0.6,15.4,2.5c1.5,0.6,2.8,1.6,4.2,2.4c1.5,1.7,2,3.6,1.4,5.7
		c-1.1,3.1-3.3,5.4-5.7,7.5C448.3,316,445.1,318.2,441.6,320z"/>
	<path class="st31" d="M393.4,288.2c0.6,0,0.9,0.2,1.1,0.7c0.2,0.5,0,0.9-0.4,1.2c-0.2,0.1-0.5,0.2-0.8,0.3
		c-4.6,1.6-8.4,4.4-11.3,8.3c-0.5,0.6-1,1.2-1.8,0.6c-0.8-0.6-0.3-1.2,0.1-1.8c3.2-4.2,7.3-7.2,12.3-9
		C392.9,288.4,393.2,288.3,393.4,288.2z"/>
	<path class="st29" d="M395.5,295c-0.6-0.2-1.7,0.4-1.8-1c-0.1-1.2,0.6-2.3,1.7-2.6c1.3-0.3,2.8,0.6,3.1,1.9c0.2,0.8,0,1.3-0.9,1.5
		C396.9,295,396.3,295,395.5,295z"/>
	<path class="st29" d="M437.9,327.8c-1.7,4.9-4.3,9.1-7.9,12.8c-2.9,3.1-6.3,5.6-10.1,7.4c-6.5,3.1-13.3,4.1-20.4,3.2
		c-0.3,0-0.6-0.2-0.9-0.2c0.3-1,1.3-1.2,2.1-1.5c4.7-1.5,9.1-3.9,13.6-6c2.2-1,4.4-2,6.3-3.5c0.6-0.5,1.1-0.9,1.7-1.7
		c-2.1,0.5-4,1.1-5.9,1.3c-4.5,0.4-8.9,0-13-2.3c4.6-1.2,9.2-2.3,13.8-3.6c5.2-1.5,10.2-3.6,15.2-5.6c1.5-0.6,2.9-1.4,4.5-1.8
		C437.3,326.7,437.6,327.3,437.9,327.8z"/>
	<path class="st30" d="M437.9,327.8c-0.3-0.6-0.6-1.2-1.2-1.5c0.5-0.6,1.2-0.8,1.9-1C438.6,326.2,438.2,327,437.9,327.8z"/>
	<path class="st30" d="M438.9,325.1c-0.1,0.1-0.2,0.2-0.3,0.3C438.6,325.2,438.7,325.1,438.9,325.1z"/>
	<path class="st29" d="M455.6,299.5c0.9-0.6,1.8-0.4,2.8-0.2c0.5,0.1,0.8,0.6,0.8,1.1c0,0.6-0.6,0.5-1,0.6c-0.8,0.1-1.5-0.2-2.1-0.7
		C455.9,299.9,455.7,299.7,455.6,299.5z"/>
	<path class="st29" d="M357.2,337.7c0.9-0.4,1.6-0.5,2.4-0.4c0.8,0,1,0.5,0.9,1.1c-0.1,0.8-0.7,0.3-1,0.2
		C358.7,338.4,357.9,338.3,357.2,337.7z"/>
</g>
<linearGradient id="SVGID_7_" gradientUnits="userSpaceOnUse" x1="404.1247" y1="310.1898" x2="471.7972" y2="310.1898">
	<stop  offset="0" style="stop-color:#D0D2D3"/>
	<stop  offset="1" style="stop-color:#FFFFFF"/>
</linearGradient>
<path class="st35" d="M422.1,433.6l-0.1-4.2h25v3.2c8.1-0.2,16.9,0.8,24.8,1.7l-0.1-249.9h-67.6v251.8
	C412.7,434.7,414.3,434.3,422.1,433.6z M422,192.9h25v25.5h-25V192.9z M422,253.7h25v25.5h-25V253.7z M422,310.6h25V336h-25V310.6z
	 M422,370h25v25.5h-25V370z"/>
<path class="st36" d="M279.4,147.8c-1.8,4.1-5.8,10.3-8.4,14.1h63.1l-13.5-3.4c0.2-0.4,0.3-0.8,0.3-1.2c0-1.1-0.8-2.1-1.9-2.4
	c0.2-0.5,0.2-1.1,0.2-1.7c0-3.4-2.8-6.2-6.2-6.2c-0.9,0-1.7,0.2-2.5,0.5c0.2-0.8,0.3-1.7,0.3-2.6c0-6.8-5.5-12.3-12.3-12.3
	c-1.6,0-3.1,0.3-4.6,0.9c-2.8-3.5-6.6-4.4-6.9-4.4C284.6,136.4,282.6,140.5,279.4,147.8z"/>
<g>
	<path class="st36" d="M261,161.9v-33.1c-2.5-1.8-5.5-2.8-8.8-2.8c-8.4,0-15.2,6.8-15.2,15.2c0,1.1,0.1,2.2,0.3,3.2
		c-0.9-0.4-2-0.6-3.1-0.6c-4.2,0-7.6,3.4-7.6,7.6c0,0.7,0.1,1.4,0.3,2.1c-1.3,0.3-2.3,1.5-2.3,2.9c0,0.5,0.1,1,0.4,1.5l-16.6,4.1
		H261z"/>
</g>
</svg>
