<svg aria-hidden="true" style="position: absolute; width: 0; height: 0; overflow: hidden;" version="1.1" xmlns="http://www.w3.org/2000/svg" xmlns:xlink="http://www.w3.org/1999/xlink">
<defs>
<symbol id="icon-linkedin-with-circle" viewBox="0 0 20 20">
<title>linkedin-with-circle</title>
<path d="M10 0.4c-5.302 0-9.6 4.298-9.6 9.6s4.298 9.6 9.6 9.6 9.6-4.298 9.6-9.6-4.298-9.6-9.6-9.6zM7.65 13.979h-1.944v-6.256h1.944v6.256zM6.666 6.955c-0.614 0-1.011-0.435-1.011-0.973 0-0.549 0.409-0.971 1.036-0.971s1.011 0.422 1.023 0.971c0 0.538-0.396 0.973-1.048 0.973zM14.75 13.979h-1.944v-3.467c0-0.807-0.282-1.355-0.985-1.355-0.537 0-0.856 0.371-0.997 0.728-0.052 0.127-0.065 0.307-0.065 0.486v3.607h-1.945v-4.26c0-0.781-0.025-1.434-0.051-1.996h1.689l0.089 0.869h0.039c0.256-0.408 0.883-1.010 1.932-1.010 1.279 0 2.238 0.857 2.238 2.699v3.699z"></path>
</symbol>
<symbol id="icon-instagram-with-circle" viewBox="0 0 20 20">
<title>instagram-with-circle</title>
<path d="M13 10c0 1.657-1.343 3-3 3s-3-1.343-3-3c0-0.171 0.018-0.338 0.049-0.5h-1.049v3.997c0 0.278 0.225 0.503 0.503 0.503h6.995c0.277 0 0.502-0.225 0.502-0.503v-3.997h-1.049c0.031 0.162 0.049 0.329 0.049 0.5zM10 12c1.104 0 2-0.896 2-2s-0.896-2-2-2-2 0.896-2 2 0.896 2 2 2zM12.4 7.9h1.199c0.166 0 0.301-0.135 0.301-0.3v-1.199c0-0.166-0.135-0.301-0.301-0.301h-1.199c-0.166 0-0.301 0.135-0.301 0.301v1.199c0.001 0.165 0.136 0.3 0.301 0.3zM10 0.4c-5.302 0-9.6 4.298-9.6 9.6s4.298 9.6 9.6 9.6c5.302 0 9.6-4.298 9.6-9.6s-4.298-9.6-9.6-9.6zM15 13.889c0 0.611-0.5 1.111-1.111 1.111h-7.778c-0.611 0-1.111-0.5-1.111-1.111v-7.778c0-0.611 0.5-1.111 1.111-1.111h7.778c0.611 0 1.111 0.5 1.111 1.111v7.778z"></path>
</symbol>
<symbol id="icon-facebook-with-circle" viewBox="0 0 20 20">
<title>facebook-with-circle</title>
<path d="M10 0.4c-5.302 0-9.6 4.298-9.6 9.6s4.298 9.6 9.6 9.6 9.6-4.298 9.6-9.6-4.298-9.6-9.6-9.6zM12.274 7.034h-1.443c-0.171 0-0.361 0.225-0.361 0.524v1.042h1.805l-0.273 1.486h-1.532v4.461h-1.703v-4.461h-1.545v-1.486h1.545v-0.874c0-1.254 0.87-2.273 2.064-2.273h1.443v1.581z"></path>
</symbol>
<symbol id="icon-adb" viewBox="0 0 24 24">
<title>adb</title>
<path d="M15 9c0.563 0 0.984-0.422 0.984-0.984s-0.422-1.031-0.984-1.031-0.984 0.469-0.984 1.031 0.422 0.984 0.984 0.984zM9 9c0.563 0 0.984-0.422 0.984-0.984s-0.422-1.031-0.984-1.031-0.984 0.469-0.984 1.031 0.422 0.984 0.984 0.984zM16.125 4.359c1.734 1.266 2.859 3.328 2.859 5.625v1.031h-13.969v-1.031c0-2.297 1.125-4.359 2.859-5.625l-2.109-2.109 0.844-0.797 2.297 2.297c0.938-0.469 1.969-0.75 3.094-0.75s2.156 0.281 3.094 0.75l2.297-2.297 0.844 0.797zM5.016 15.984v-3.984h13.969v3.984c0 3.891-3.094 7.031-6.984 7.031s-6.984-3.141-6.984-7.031z"></path>
</symbol>
<symbol id="icon-cloud_queue" viewBox="0 0 24 24">
<title>cloud_queue</title>
<path d="M18.984 18c1.641 0 3-1.359 3-3s-1.359-3-3-3h-1.5v-0.516c0-3.047-2.438-5.484-5.484-5.484-2.531 0-4.641 1.688-5.297 3.984h-0.703c-2.203 0-3.984 1.828-3.984 4.031s1.781 3.984 3.984 3.984h12.984zM19.359 10.031c2.578 0.188 4.641 2.344 4.641 4.969 0 2.766-2.25 5.016-5.016 5.016h-12.984c-3.328 0-6-2.672-6-6 0-3.094 2.344-5.625 5.344-5.953 1.266-2.391 3.75-4.078 6.656-4.078 3.656 0 6.656 2.578 7.359 6.047z"></path>
</symbol>
<symbol id="icon-extension" viewBox="0 0 24 24">
<title>extension</title>
<path d="M20.484 11.016c1.359 0 2.531 1.125 2.531 2.484s-1.172 2.484-2.531 2.484h-1.5v4.031c0 1.078-0.891 1.969-1.969 1.969h-3.797v-1.5c0-1.5-1.219-2.672-2.719-2.672s-2.719 1.172-2.719 2.672v1.5h-3.797c-1.078 0-1.969-0.891-1.969-1.969v-3.797h1.5c1.5 0 2.672-1.219 2.672-2.719s-1.172-2.719-2.672-2.719h-1.5v-3.797c0-1.078 0.891-1.969 1.969-1.969h4.031v-1.5c0-1.359 1.125-2.531 2.484-2.531s2.484 1.172 2.484 2.531v1.5h4.031c1.078 0 1.969 0.891 1.969 1.969v4.031h1.5z"></path>
</symbol>
<symbol id="icon-home" viewBox="0 0 24 24">
<title>home</title>
<path d="M9.984 20.016h-4.969v-8.016h-3l9.984-9 9.984 9h-3v8.016h-4.969v-6h-4.031v6z"></path>
</symbol>
<symbol id="icon-phone_in_talk" viewBox="0 0 24 24">
<title>phone_in_talk</title>
<path d="M15 12c0-1.641-1.359-3-3-3v-2.016c2.766 0 5.016 2.25 5.016 5.016h-2.016zM18.984 12c0-3.891-3.094-6.984-6.984-6.984v-2.016c4.969 0 9 4.031 9 9h-2.016zM20.016 15.516c0.563 0 0.984 0.422 0.984 0.984v3.516c0 0.563-0.422 0.984-0.984 0.984-9.375 0-17.016-7.641-17.016-17.016 0-0.563 0.422-0.984 0.984-0.984h3.516c0.563 0 0.984 0.422 0.984 0.984 0 1.266 0.188 2.438 0.563 3.563 0.094 0.328 0.047 0.75-0.234 1.031l-2.203 2.203c1.453 2.859 3.797 5.156 6.609 6.609l2.203-2.203c0.281-0.281 0.703-0.328 1.031-0.234 1.125 0.375 2.297 0.563 3.563 0.563z"></path>
</symbol>
<symbol id="icon-phonelink_setup" viewBox="0 0 24 24">
<title>phonelink_setup</title>
<path d="M18.984 0.984c1.078 0 2.016 0.938 2.016 2.016v18c0 1.078-0.938 2.016-2.016 2.016h-9.984c-1.078 0-2.016-0.938-2.016-2.016v-3h2.016v2.016h9.984v-16.031h-9.984v2.016h-2.016v-3c0-1.078 0.938-2.016 2.016-2.016h9.984zM8.016 14.016c1.078 0 1.969-0.938 1.969-2.016s-0.891-2.016-1.969-2.016-2.016 0.938-2.016 2.016 0.938 2.016 2.016 2.016zM11.813 12.516l1.078 0.891c0.094 0.094 0.188 0.188 0.094 0.281l-0.984 1.734c-0.094 0.094-0.188 0.094-0.281 0.094l-1.313-0.516c-0.281 0.188-0.609 0.422-0.891 0.516l-0.234 1.266c-0.094 0.094-0.188 0.234-0.281 0.234h-2.016c-0.094 0-0.281-0.141-0.188-0.234l-0.188-1.266c-0.281-0.094-0.609-0.328-0.891-0.516l-1.406 0.422c-0.094 0.094-0.234-0.047-0.328-0.141l-0.984-1.688c0-0.094 0-0.188 0.094-0.375l1.125-0.797v-1.031l-1.125-0.797c-0.094-0.094-0.188-0.188-0.094-0.281l0.984-1.734c0.094-0.094 0.234-0.094 0.328-0.094l1.266 0.516c0.281-0.188 0.656-0.422 0.938-0.516l0.188-1.266c0.094-0.094 0.188-0.234 0.281-0.234h2.016c0.188 0 0.281 0.141 0.281 0.234l0.234 1.266c0.281 0.094 0.609 0.328 0.891 0.516l1.313-0.422c0.094-0.094 0.188 0.047 0.281 0.141l0.984 1.688c0 0.094 0 0.188-0.094 0.281l-1.078 0.797v1.031z"></path>
</symbol>
<symbol id="icon-settings" viewBox="0 0 24 24">
<title>settings</title>
<path d="M12 15.516c1.922 0 3.516-1.594 3.516-3.516s-1.594-3.516-3.516-3.516-3.516 1.594-3.516 3.516 1.594 3.516 3.516 3.516zM19.453 12.984l2.109 1.641c0.188 0.141 0.234 0.422 0.094 0.656l-2.016 3.469c-0.141 0.234-0.375 0.281-0.609 0.188l-2.484-0.984c-0.516 0.375-1.078 0.75-1.688 0.984l-0.375 2.625c-0.047 0.234-0.234 0.422-0.469 0.422h-4.031c-0.234 0-0.422-0.188-0.469-0.422l-0.375-2.625c-0.609-0.234-1.172-0.563-1.688-0.984l-2.484 0.984c-0.234 0.094-0.469 0.047-0.609-0.188l-2.016-3.469c-0.141-0.234-0.094-0.516 0.094-0.656l2.109-1.641c-0.047-0.328-0.047-0.656-0.047-0.984s0-0.656 0.047-0.984l-2.109-1.641c-0.188-0.141-0.234-0.422-0.094-0.656l2.016-3.469c0.141-0.234 0.375-0.281 0.609-0.188l2.484 0.984c0.516-0.375 1.078-0.75 1.688-0.984l0.375-2.625c0.047-0.234 0.234-0.422 0.469-0.422h4.031c0.234 0 0.422 0.188 0.469 0.422l0.375 2.625c0.609 0.234 1.172 0.563 1.688 0.984l2.484-0.984c0.234-0.094 0.469-0.047 0.609 0.188l2.016 3.469c0.141 0.234 0.094 0.516-0.094 0.656l-2.109 1.641c0.047 0.328 0.047 0.656 0.047 0.984s0 0.656-0.047 0.984z"></path>
</symbol>
<symbol id="icon-vpn_lock" viewBox="0 0 24 24">
<title>vpn_lock</title>
<path d="M9.984 20.953v-1.969c-1.078 0-1.969-0.891-1.969-1.969v-1.031l-4.828-4.781c-0.141 0.563-0.188 1.172-0.188 1.781 0 4.078 3.047 7.5 6.984 7.969zM18.938 12h2.016c0.047 0.328 0.047 0.656 0.047 0.984 0 5.531-4.453 10.031-9.984 10.031s-10.031-4.5-10.031-10.031 4.5-9.984 10.031-9.984c1.031 0 2.063 0.188 3 0.469v2.531c0 1.078-0.938 2.016-2.016 2.016h-2.016v1.969c0 0.563-0.422 1.031-0.984 1.031h-2.016v1.969h6c0.563 0 1.031 0.469 1.031 1.031v3h0.984c0.891 0 1.641 0.563 1.922 1.359 1.313-1.406 2.063-3.328 2.063-5.391 0-0.328 0-0.656-0.047-0.984zM21.188 3.984v-0.469c0-0.938-0.75-1.734-1.688-1.734s-1.688 0.797-1.688 1.734v0.469h3.375zM21.984 3.984c0.563 0 1.031 0.469 1.031 1.031v3.984c0 0.563-0.469 0.984-1.031 0.984h-4.969c-0.563 0-1.031-0.422-1.031-0.984v-3.984c0-0.563 0.469-1.031 1.031-1.031v-0.469c0-1.359 1.125-2.531 2.484-2.531s2.484 1.172 2.484 2.531v0.469z"></path>
</symbol>
<symbol id="icon-facebook" viewBox="0 0 32 32">
<title>facebook</title>
<path d="M19 6h5v-6h-5c-3.86 0-7 3.14-7 7v3h-4v6h4v16h6v-16h5l1-6h-6v-3c0-0.542 0.458-1 1-1z"></path>
</symbol>
<symbol id="icon-instagram" viewBox="0 0 32 32">
<title>instagram</title>
<path d="M16 2.881c4.275 0 4.781 0.019 6.462 0.094 1.563 0.069 2.406 0.331 2.969 0.55 0.744 0.288 1.281 0.638 1.837 1.194 0.563 0.563 0.906 1.094 1.2 1.838 0.219 0.563 0.481 1.412 0.55 2.969 0.075 1.688 0.094 2.194 0.094 6.463s-0.019 4.781-0.094 6.463c-0.069 1.563-0.331 2.406-0.55 2.969-0.288 0.744-0.637 1.281-1.194 1.837-0.563 0.563-1.094 0.906-1.837 1.2-0.563 0.219-1.413 0.481-2.969 0.55-1.688 0.075-2.194 0.094-6.463 0.094s-4.781-0.019-6.463-0.094c-1.563-0.069-2.406-0.331-2.969-0.55-0.744-0.288-1.281-0.637-1.838-1.194-0.563-0.563-0.906-1.094-1.2-1.837-0.219-0.563-0.481-1.413-0.55-2.969-0.075-1.688-0.094-2.194-0.094-6.463s0.019-4.781 0.094-6.463c0.069-1.563 0.331-2.406 0.55-2.969 0.288-0.744 0.638-1.281 1.194-1.838 0.563-0.563 1.094-0.906 1.838-1.2 0.563-0.219 1.412-0.481 2.969-0.55 1.681-0.075 2.188-0.094 6.463-0.094zM16 0c-4.344 0-4.887 0.019-6.594 0.094-1.7 0.075-2.869 0.35-3.881 0.744-1.056 0.412-1.95 0.956-2.837 1.85-0.894 0.888-1.438 1.781-1.85 2.831-0.394 1.019-0.669 2.181-0.744 3.881-0.075 1.713-0.094 2.256-0.094 6.6s0.019 4.887 0.094 6.594c0.075 1.7 0.35 2.869 0.744 3.881 0.413 1.056 0.956 1.95 1.85 2.837 0.887 0.887 1.781 1.438 2.831 1.844 1.019 0.394 2.181 0.669 3.881 0.744 1.706 0.075 2.25 0.094 6.594 0.094s4.888-0.019 6.594-0.094c1.7-0.075 2.869-0.35 3.881-0.744 1.050-0.406 1.944-0.956 2.831-1.844s1.438-1.781 1.844-2.831c0.394-1.019 0.669-2.181 0.744-3.881 0.075-1.706 0.094-2.25 0.094-6.594s-0.019-4.887-0.094-6.594c-0.075-1.7-0.35-2.869-0.744-3.881-0.394-1.063-0.938-1.956-1.831-2.844-0.887-0.887-1.781-1.438-2.831-1.844-1.019-0.394-2.181-0.669-3.881-0.744-1.712-0.081-2.256-0.1-6.6-0.1v0z"></path>
<path d="M16 7.781c-4.537 0-8.219 3.681-8.219 8.219s3.681 8.219 8.219 8.219 8.219-3.681 8.219-8.219c0-4.537-3.681-8.219-8.219-8.219zM16 21.331c-2.944 0-5.331-2.387-5.331-5.331s2.387-5.331 5.331-5.331c2.944 0 5.331 2.387 5.331 5.331s-2.387 5.331-5.331 5.331z"></path>
<path d="M26.462 7.456c0 1.060-0.859 1.919-1.919 1.919s-1.919-0.859-1.919-1.919c0-1.060 0.859-1.919 1.919-1.919s1.919 0.859 1.919 1.919z"></path>
</symbol>
<symbol id="icon-twitter" viewBox="0 0 32 32">
<title>twitter</title>
<path d="M32 7.075c-1.175 0.525-2.444 0.875-3.769 1.031 1.356-0.813 2.394-2.1 2.887-3.631-1.269 0.75-2.675 1.3-4.169 1.594-1.2-1.275-2.906-2.069-4.794-2.069-3.625 0-6.563 2.938-6.563 6.563 0 0.512 0.056 1.012 0.169 1.494-5.456-0.275-10.294-2.888-13.531-6.862-0.563 0.969-0.887 2.1-0.887 3.3 0 2.275 1.156 4.287 2.919 5.463-1.075-0.031-2.087-0.331-2.975-0.819 0 0.025 0 0.056 0 0.081 0 3.181 2.263 5.838 5.269 6.437-0.55 0.15-1.131 0.231-1.731 0.231-0.425 0-0.831-0.044-1.237-0.119 0.838 2.606 3.263 4.506 6.131 4.563-2.25 1.762-5.075 2.813-8.156 2.813-0.531 0-1.050-0.031-1.569-0.094 2.913 1.869 6.362 2.95 10.069 2.95 12.075 0 18.681-10.006 18.681-18.681 0-0.287-0.006-0.569-0.019-0.85 1.281-0.919 2.394-2.075 3.275-3.394z"></path>
</symbol>
<symbol id="icon-linkedin2" viewBox="0 0 32 32">
<title>linkedin2</title>
<path d="M12 12h5.535v2.837h0.079c0.77-1.381 2.655-2.837 5.464-2.837 5.842 0 6.922 3.637 6.922 8.367v9.633h-5.769v-8.54c0-2.037-0.042-4.657-3.001-4.657-3.005 0-3.463 2.218-3.463 4.509v8.688h-5.767v-18z"></path>
<path d="M2 12h6v18h-6v-18z"></path>
<path d="M8 7c0 1.657-1.343 3-3 3s-3-1.343-3-3c0-1.657 1.343-3 3-3s3 1.343 3 3z"></path>
</symbol>
<symbol id="icon-html-five" viewBox="0 0 32 32">
<title>html-five</title>
<path d="M1.892 0l2.567 28.801 11.524 3.199 11.554-3.204 2.572-28.796h-28.216zM24.52 9.42h-13.517l0.322 3.617h12.874l-0.97 10.844-7.245 2.008-7.237-2.008-0.495-5.547h3.547l0.252 2.82 3.933 1.060 0.009-0.002 3.935-1.062 0.408-4.58h-12.242l-0.953-10.681h17.694l-0.316 3.532z"></path>
</symbol>
</defs>
</svg>
